<?xml version="1.0" encoding="iso-8859-1"?>
<!-- Generator: Adobe Illustrator 19.0.0, SVG Export Plug-In . SVG Version: 6.00 Build 0)  -->
<svg version="1.1" id="Layer_1" xmlns="http://www.w3.org/2000/svg" xmlns:xlink="http://www.w3.org/1999/xlink" x="0px" y="0px"
	 viewBox="0 0 512 512" style="enable-background:new 0 0 512 512;" xml:space="preserve">
<g>
	<circle style="fill:#A0EBFF;" cx="256" cy="256" r="256"/>
	<path style="fill:#FDF35A;" d="M344.038,223.954c0-50.284-40.76-91.044-91.044-91.044s-91.044,40.76-91.044,91.044
		c0,49.833,20.291,64.41,40.504,92.698c13.322,18.637,13.322,39.685,13.322,39.685h74.435c0,0-0.026-21.048,13.322-39.685
		C323.768,288.379,344.038,273.787,344.038,223.954z"/>
	<path style="fill:#F7BF00;" d="M252.995,132.91v223.427h37.217c0,0-0.026-21.048,13.322-39.685
		c20.239-28.268,40.504-42.865,40.504-92.698C344.038,173.67,303.273,132.91,252.995,132.91z"/>
	<path style="fill:#F7BF00;" d="M278.513,356.337v-27.684c0-7.962-6.456-14.418-14.418-14.418h-22.2
		c-7.962,0-14.418,6.456-14.418,14.418v27.679h51.036V356.337z"/>
	<rect x="215.757" y="356.352" style="fill:#335872;" width="74.409" height="47.063"/>
	<path style="fill:#D03E00;" d="M215.777,403.4v3.825c0,7.962,6.456,14.418,14.418,14.418h45.573
		c7.962,0,14.418-6.456,14.418-14.418V403.4H215.777z"/>
	<path style="fill:#335872;" d="M252.995,439.849c10.056,0,18.212-8.156,18.212-18.212h-36.424
		C234.783,431.698,242.934,439.849,252.995,439.849z"/>
	<path style="fill:#FDF35A;" d="M264.095,314.235h-11.11v42.097h25.528v-27.679C278.513,320.691,272.056,314.235,264.095,314.235z"
		/>
	<path style="fill:#D03E00;" d="M262.026,356.347c0,0-0.159-59.484-0.159-79.283c0-6.461,2.217-13.204,4.362-19.727
		c2.478-7.521,5.033-15.304,2.376-18.98c-1.961-2.708-7.363-4.147-15.606-4.147c-8.228,0-13.629,1.454-15.626,4.198
		c-2.739,3.779-0.164,11.674,2.33,19.313c2.099,6.426,4.265,13.061,4.265,19.338v79.273h-7.798v-79.268
		c0-5.033-1.971-11.075-3.881-16.922c-3.098-9.492-6.298-19.318-1.229-26.312c3.676-5.059,10.644-7.419,21.939-7.419
		c11.32,0,18.289,2.34,21.924,7.373c4.997,6.902,1.807,16.604-1.28,25.989c-1.951,5.939-3.973,12.078-3.973,17.29
		c0,19.794,0.159,79.263,0.159,79.263L262.026,356.347z"/>
	<rect x="252.979" y="356.352" style="fill:#153040;" width="37.228" height="47.063"/>
	<path style="fill:#153040;" d="M252.995,421.637v18.212c10.056,0,18.212-8.156,18.212-18.212H252.995z"/>
	<path style="fill:#9C2E00;" d="M252.995,403.4v18.243h22.774c7.962,0,14.418-6.456,14.418-14.418V403.4H252.995z"/>
	<path style="fill:#F7BF00;" d="M150.62,257.546c-0.451-2.616-2.949-4.367-5.555-3.917l-33.838,5.852
		c-2.616,0.451-4.362,2.939-3.912,5.555c0.404,2.335,2.437,3.988,4.731,3.988l0.824-0.072l33.838-5.852
		C149.32,262.646,151.071,260.157,150.62,257.546z M193.864,92.82c-1.111-2.406-3.968-3.461-6.38-2.345
		c-2.406,1.111-3.461,3.968-2.34,6.38l14.408,31.165c0.814,1.756,2.55,2.79,4.362,2.79c0.671,0,1.362-0.143,2.012-0.445
		c2.406-1.111,3.461-3.968,2.34-6.38L193.864,92.82z M162.227,163.604c0.901,0.763,2.002,1.137,3.098,1.137
		c1.372,0,2.729-0.579,3.676-1.705c1.715-2.028,1.459-5.059-0.568-6.774l-26.23-22.159c-2.038-1.72-5.069-1.454-6.774,0.568
		c-1.715,2.028-1.459,5.059,0.568,6.774L162.227,163.604z M110.3,202.634l33.137,8.996l1.265,0.169c2.109,0,4.05-1.408,4.634-3.548
		c0.696-2.56-0.819-5.202-3.379-5.893l-33.137-8.996c-2.555-0.696-5.197,0.819-5.893,3.379
		C106.225,199.301,107.735,201.938,110.3,202.634z M165.929,300.472l-28.196,19.604c-2.176,1.516-2.719,4.511-1.203,6.687
		c0.932,1.347,2.432,2.063,3.953,2.063c0.947,0,1.9-0.282,2.739-0.86l28.196-19.604c2.176-1.516,2.719-4.511,1.203-6.687
		C171.105,299.489,168.115,298.962,165.929,300.472z M252.995,72.494c-2.396,0.21-4.449,2.191-4.46,4.716l-0.113,34.34
		c-0.01,2.575,2.022,4.644,4.572,4.777c2.55-0.128,4.582-2.202,4.572-4.777l-0.113-34.34
		C257.444,74.685,255.386,72.704,252.995,72.494z M340.664,164.741c1.096,0,2.196-0.369,3.098-1.137l26.23-22.154
		c2.028-1.715,2.278-4.746,0.568-6.774c-1.705-2.022-4.736-2.289-6.774-0.568l-26.23,22.159c-2.028,1.715-2.278,4.746-0.568,6.774
		C337.935,164.163,339.292,164.741,340.664,164.741z M356.654,208.251c0.584,2.14,2.519,3.548,4.634,3.548l1.265-0.169l33.137-8.996
		c2.56-0.696,4.076-3.333,3.379-5.898c-0.701-2.56-3.343-4.076-5.893-3.379l-33.137,8.996
		C357.468,203.054,355.958,205.691,356.654,208.251z M394.762,259.482l-33.838-5.852c-2.611-0.451-5.105,1.3-5.555,3.917
		c-0.451,2.616,1.3,5.099,3.912,5.555l33.838,5.852l0.824,0.072c2.294,0,4.326-1.654,4.731-3.988
		C399.124,262.42,397.373,259.932,394.762,259.482z M340.055,300.472c-2.186-1.51-5.176-0.983-6.692,1.203
		c-1.516,2.176-0.978,5.176,1.203,6.687l28.196,19.604c0.84,0.579,1.792,0.86,2.739,0.86c1.521,0,3.016-0.722,3.953-2.063
		c1.516-2.176,0.978-5.171-1.203-6.687L340.055,300.472z M318.495,90.476c-2.412-1.116-5.263-0.061-6.38,2.345l-14.408,31.171
		c-1.116,2.406-0.067,5.263,2.34,6.38c0.65,0.302,1.341,0.445,2.012,0.445c1.818,0,3.553-1.034,4.362-2.79l14.408-31.165
		C321.956,94.444,320.906,91.592,318.495,90.476z"/>
</g>
<g>
</g>
<g>
</g>
<g>
</g>
<g>
</g>
<g>
</g>
<g>
</g>
<g>
</g>
<g>
</g>
<g>
</g>
<g>
</g>
<g>
</g>
<g>
</g>
<g>
</g>
<g>
</g>
<g>
</g>
</svg>
