<svg xmlns="http://www.w3.org/2000/svg" width="24" height="24" viewBox="0 0 24 24" fill="none">
  <g clip-path="url(#clip0_1408_768)">
    <path d="M18.6539 14.0737L16.5501 20.5H7.4613L5.35742 14.0737" stroke="black" stroke-width="0.93" stroke-miterlimit="10"/>
    <path d="M14.2883 14.0737L13.2363 20.5" stroke="black" stroke-width="0.93" stroke-miterlimit="10"/>
    <path d="M9.34375 13.9302L10.3957 20.3564" stroke="black" stroke-width="0.93" stroke-miterlimit="10"/>
    <path d="M18.1275 10.4136H5.87245C4.83833 10.4136 4 11.233 4 12.2438C4 13.2546 4.83833 14.074 5.87245 14.074H18.1275C19.1617 14.074 20 13.2546 20 12.2438C20 11.233 19.1617 10.4136 18.1275 10.4136Z" stroke="black" stroke-width="0.93" stroke-miterlimit="10"/>
    <path d="M16.1508 6.76318H7.85097C6.81684 6.76318 5.97852 7.58259 5.97852 8.59338C5.97852 9.60417 6.81684 10.4236 7.85097 10.4236H16.1508C17.1849 10.4236 18.0232 9.60417 18.0232 8.59338C18.0232 7.58259 17.1849 6.76318 16.1508 6.76318Z" stroke="black" stroke-width="0.93" stroke-miterlimit="10"/>
    <path d="M15.3088 6.81463C15.3088 6.81463 16.4239 5.01527 13.3732 3C13.3732 3 12.5001 4.01792 10.512 4.19271C10.512 4.19271 8.01888 4.37779 8.61848 6.81463" stroke="black" stroke-width="0.93" stroke-miterlimit="10"/>
  </g>
  <defs>
    <clipPath id="clip0_1408_768">
      <rect width="24" height="24" fill="white"/>
    </clipPath>
  </defs>
</svg>