<?xml version="1.0" encoding="iso-8859-1"?>
<!-- Uploaded to: SVG Repo, www.svgrepo.com, Generator: SVG Repo Mixer Tools -->
<svg xmlns="http://www.w3.org/2000/svg" xmlns:xlink="http://www.w3.org/1999/xlink" version="1.1" id="Layer_1"  viewBox="0 0 428.186 428.186" xml:space="preserve" width="512" height="512">
<g>
	<polygon style="fill:#E09B2D;" points="102.826,264.978 138.296,420.688 106.016,420.688 55.446,264.978 85.766,264.978  "/>
	<polygon style="fill:#E09B2D;" points="166.106,264.978 181.396,420.688 138.296,420.688 102.826,264.978  "/>
	<polygon style="fill:#F7B239;" points="372.746,264.978 322.166,420.688 289.896,420.688 325.366,264.978 342.416,264.978  "/>
	<polygon style="fill:#F7B239;" points="325.366,264.978 289.896,420.688 246.786,420.688 262.086,264.978  "/>
	<polygon style="fill:#F7B239;" points="262.086,264.978 246.786,420.688 181.396,420.688 166.106,264.978  "/>
	<path style="fill:#2BA5F7;" d="M253.166,71.908h-78.06c-1.16-23.06,10.84-45.8,32.6-57.29c12.24-6.47,25.69-8.38,38.39-6.31   c-7.88,16.81-8.04,36.98,1.3,54.67C249.076,66.168,251.006,69.148,253.166,71.908z"/>
	<path style="fill:#2197D8;" d="M242.504,18.033c0.921-3.333,2.122-6.588,3.592-9.725c-12.7-2.07-26.15-0.16-38.39,6.31   c-21.76,11.49-33.76,34.23-32.6,57.29h40.498C214.55,50.949,224.369,30.257,242.504,18.033z"/>
	<path style="fill:#2BA5F7;" d="M313.676,81.328c5.83,5.82,9.43,13.87,9.43,22.76c0,17.77-14.41,32.18-32.18,32.18h-153.67   c-8.88,0-16.93-3.6-22.75-9.43c-5.83-5.82-9.43-13.87-9.43-22.75c0-17.78,14.41-32.18,32.18-32.18h37.85h78.06h37.76   C299.816,71.908,307.856,75.508,313.676,81.328z"/>
	<path style="fill:#2BA5F7;" d="M340.506,145.688c5.83,5.82,9.43,13.86,9.43,22.75c0,17.78-14.41,32.18-32.18,32.18h-207.33   c-8.89,0-16.93-3.6-22.75-9.42c-5.83-5.83-9.43-13.87-9.43-22.76c0-17.77,14.41-32.17,32.18-32.17h26.83h153.67h26.83   C326.636,136.268,334.686,139.868,340.506,145.688z"/>
	<path style="fill:#2BA5F7;" d="M365.176,210.048c5.82,5.82,9.42,13.86,9.42,22.75c0,17.77-14.4,32.18-32.18,32.18h-17.05h-63.28   h-95.98h-63.28h-17.06c-8.89,0-16.93-3.6-22.75-9.43c-5.83-5.82-9.43-13.86-9.43-22.75c0-17.77,14.41-32.18,32.18-32.18h24.66   h207.33h24.66C351.306,200.618,359.356,204.218,365.176,210.048z"/>
	<g>
		<path style="fill:#2197D8;" d="M192.506,126.837c5.82,5.83,13.87,9.43,22.75,9.43h-78c-8.88,0-16.93-3.6-22.75-9.43    c-5.83-5.82-9.43-13.87-9.43-22.75c0-17.78,14.41-32.18,32.18-32.18h78c-17.77,0-32.18,14.4-32.18,32.18    C183.076,112.968,186.676,121.018,192.506,126.837z"/>
		<path style="fill:#2197D8;" d="M165.676,191.198c5.82,5.82,13.86,9.42,22.75,9.42h-78c-8.89,0-16.93-3.6-22.75-9.42    c-5.83-5.83-9.43-13.87-9.43-22.76c0-17.77,14.41-32.17,32.18-32.17h78c-17.77,0-32.18,14.4-32.18,32.17    C156.246,177.328,159.846,185.368,165.676,191.198z"/>
		<path style="fill:#2197D8;" d="M141.016,255.548c5.82,5.83,13.86,9.43,22.75,9.43h-78c-8.89,0-16.93-3.6-22.75-9.43    c-5.83-5.82-9.43-13.86-9.43-22.75c0-17.77,14.41-32.18,32.18-32.18h78c-17.77,0-32.18,14.41-32.18,32.18    C131.586,241.687,135.186,249.728,141.016,255.548z"/>
	</g>
	<path style="fill:#FFFFFF;" d="M351.596,240.298c-4.143,0-7.5-3.358-7.5-7.5c0-0.462-0.163-0.86-0.486-1.183   c-0.496-0.498-1.021-0.498-1.193-0.498c-4.143,0-7.5-3.358-7.5-7.5s3.357-7.5,7.5-7.5c4.46,0,8.652,1.738,11.805,4.895   c1.818,1.818,4.875,5.773,4.875,11.785C359.096,236.94,355.739,240.298,351.596,240.298z"/>
	<path style="fill:#FFFFFF;" d="M326.936,175.937c-4.143,0-7.5-3.358-7.5-7.5c0-0.457-0.161-0.848-0.478-1.165   c-0.506-0.505-1.03-0.505-1.202-0.505c-4.143,0-7.5-3.358-7.5-7.5s3.357-7.5,7.5-7.5c6.01,0,9.974,3.065,11.802,4.892   c1.819,1.816,4.878,5.766,4.878,11.778C334.436,172.58,331.078,175.937,326.936,175.937z"/>
	<path style="fill:#FFFFFF;" d="M300.106,111.588c-4.143,0-7.5-3.358-7.5-7.5c0-0.172,0-0.698-0.492-1.189   c-0.326-0.327-0.726-0.491-1.188-0.491c-4.143,0-7.5-3.358-7.5-7.5s3.357-7.5,7.5-7.5c6.01,0,9.966,3.057,11.789,4.879   c1.825,1.822,4.891,5.782,4.891,11.801C307.606,108.23,304.248,111.588,300.106,111.588z"/>
	<path style="fill:#FFFFFF;" d="M219.133,59.641c-3.448,0-6.553-2.392-7.32-5.898c-1.292-5.906-1.993-11.962-2.085-17.999   c-0.063-4.142,3.243-7.55,7.386-7.613c0.038,0,0.077-0.001,0.115-0.001c4.09,0,7.435,3.283,7.497,7.386   c0.076,5.037,0.662,10.091,1.741,15.021c0.885,4.046-1.678,8.044-5.724,8.93C220.203,59.584,219.663,59.641,219.133,59.641z"/>
	<path style="fill:#333333;" d="M373.424,257.52c5.422-6.786,8.675-15.378,8.675-24.72c0-19.834-14.628-36.316-33.663-39.223   c5.621-6.849,9.001-15.604,9.001-25.135c0-20.514-15.648-37.442-35.635-39.475c5.5-6.812,8.804-15.467,8.804-24.884   c0-21.879-17.8-39.679-39.679-39.679h-33.94c-1.067-1.58-2.065-3.221-2.964-4.927c-7.957-15.07-8.373-32.56-1.142-47.985   c0.998-2.129,0.939-4.603-0.157-6.683c-1.098-2.08-3.106-3.524-5.428-3.903c-14.851-2.421-29.756,0.028-43.098,7.08   c-21.224,11.207-34.975,32.793-36.523,56.417h-30.418c-21.88,0-39.68,17.8-39.68,39.679c0,9.417,3.303,18.072,8.804,24.884   c-19.987,2.033-35.635,18.96-35.635,39.475c0,9.531,3.38,18.286,9.001,25.135c-19.034,2.908-33.662,19.389-33.662,39.223   c0,9.342,3.253,17.934,8.675,24.72c-2.14,0.196-4.109,1.294-5.386,3.051c-1.411,1.942-1.808,4.442-1.065,6.726l50.572,155.707   c1.003,3.09,3.883,5.183,7.133,5.183H322.17c3.25,0,6.13-2.093,7.133-5.183l50.571-155.707c0.742-2.283,0.346-4.784-1.065-6.726   C377.533,258.814,375.564,257.715,373.424,257.52z M211.206,21.25c7.627-4.032,15.902-6.14,24.336-6.242   c-4.841,16.36-3.411,33.804,4.182,49.396h-57.007C184.233,46.309,194.897,29.861,211.206,21.25z M137.259,79.404h153.668   c13.607,0,24.679,11.071,24.679,24.679s-11.071,24.679-24.679,24.679H137.259c-13.608,0-24.68-11.071-24.68-24.679   S123.651,79.404,137.259,79.404z M110.428,143.763h207.33c13.607,0,24.679,11.071,24.679,24.679s-11.071,24.679-24.679,24.679   h-207.33c-13.608,0-24.68-11.071-24.68-24.679S96.82,143.763,110.428,143.763z M85.766,208.121H342.42   c13.608,0,24.679,11.071,24.679,24.679s-11.07,24.679-24.679,24.679H85.766c-13.608,0-24.679-11.071-24.679-24.679   S72.157,208.121,85.766,208.121z M65.765,272.479h20.001h11.073l32.053,140.707h-17.426L65.765,272.479z M112.223,272.479h47.081   l13.824,140.707h-28.852L112.223,272.479z M188.199,413.186l-13.823-140.707h79.434l-13.823,140.707H188.199z M255.058,413.186   l13.824-140.707h47.08L283.91,413.186H255.058z M316.72,413.186h-17.426l32.052-140.707h11.074h20L316.72,413.186z"/>
</g>















</svg>