<?xml version="1.0" encoding="iso-8859-1"?>
<!-- Generator: Adobe Illustrator 18.0.0, SVG Export Plug-In . SVG Version: 6.00 Build 0)  -->
<!DOCTYPE svg PUBLIC "-//W3C//DTD SVG 1.1//EN" "http://www.w3.org/Graphics/SVG/1.1/DTD/svg11.dtd">
<svg version="1.1" id="Capa_1" xmlns="http://www.w3.org/2000/svg" xmlns:xlink="http://www.w3.org/1999/xlink" x="0px" y="0px"
	 viewBox="0 0 475.262 475.262" style="enable-background:new 0 0 475.262 475.262;" xml:space="preserve">
<g id="XMLID_12_">
	<path id="XMLID_29_" d="M155.745,185.466c18.639,0,33.753-15.106,33.753-33.745c0-18.654-15.114-33.754-33.753-33.754
		c-18.645,0-33.759,15.1-33.759,33.754C121.986,170.36,137.1,185.466,155.745,185.466z"/>
	<path id="XMLID_28_" d="M291.355,121.193c-18.646,0-33.761,15.1-33.761,33.754c0,18.639,15.115,33.745,33.761,33.745
		c18.639,0,33.753-15.106,33.753-33.745C325.108,136.292,309.994,121.193,291.355,121.193z"/>
	<path id="XMLID_27_" d="M155.745,106.2c19.903,0,36.68,12.925,42.855,30.758c3.792-4.543,9.086-7.522,14.969-8.694
		c-6.88-7.975-11.193-18.225-11.193-29.556c0-8.671,2.567-16.707,6.795-23.61c-2.283-1.531-5.753-2.428-7.201-2.428h-45.151
		c-6.383,0-11.807,1.792-14.433,7.554l-17.43,38.181C133.766,110.26,145.679,106.2,155.745,106.2z"/>
	<path id="XMLID_26_" d="M179.395,66.985c16.293,0,29.516-13.215,29.516-29.508c0-16.318-13.223-29.525-29.516-29.525
		c-16.303,0-29.525,13.207-29.525,29.525C149.87,53.77,163.092,66.985,179.395,66.985z"/>
	<path id="XMLID_25_" d="M349.178,131.49c-6.879-7.975-11.193-18.227-11.193-29.556c0-0.337,0.093-0.65,0.101-0.988h-40.831
		c-0.146,0-3.495,0.628-4.146,0.835c-0.175,2.636-0.504,5.217-1.119,7.707c19.619,0.283,36.113,13.061,42.218,30.696
		C338.001,135.641,343.294,132.661,349.178,131.49z"/>
	<path id="XMLID_24_" d="M320.611,95.055c7.669,0,14.586-2.918,19.949-7.576c2.13-6.298,5.485-11.998,9.959-16.724
		c0.413-2.015,0.643-4.1,0.643-6.236c0-16.877-13.674-30.535-30.551-30.535c-16.868,0-30.542,13.658-30.542,30.535
		C290.069,81.388,303.742,95.055,320.611,95.055z"/>
	<path id="XMLID_23_" d="M222.086,138.957c-7.454,0-13.551,2.123-16.5,8.634l-5.011,10.985c-1.295,8.459-4.909,16.065-10.196,22.324
		l-0.176,0.391c7.002,1.433,13.008,5.615,16.778,11.666c0.583,0.936,1.316,1.748,1.784,2.767l15.521,33.998l14.049-30.78
		c3.47-7.646,10.542-12.824,18.685-14.44c-6.88-7.975-11.193-18.226-11.193-29.555c0-5.646,1.164-10.993,3.05-15.989
		C217.813,138.957,228.461,138.957,222.086,138.957z"/>
	<path id="XMLID_22_" d="M227.725,337.385c-5.699,3.439-12.647,4.766-19.25,3.41v59.967c2.695,6.061,8.717,10.313,15.78,10.313
		c6.151,0,11.299-3.386,14.371-8.221v-65.293C235.011,338.297,231.302,338.175,227.725,337.385z"/>
	<path id="XMLID_21_" d="M247.897,132.454c1.493,0,2.918-0.253,4.358-0.436c5.906-10.036,15.474-17.52,26.919-20.73
		c1.57-3.893,2.482-8.121,2.482-12.58c0-18.654-15.115-33.753-33.76-33.753c-18.639,0-33.754,15.099-33.754,33.753
		C214.143,117.348,229.258,132.454,247.897,132.454z"/>
	<path id="XMLID_20_" d="M53.882,321.205c-2.452-6.557-2.2-13.673,0.712-20.039l18.31-40.119l29.821-65.331
		c3.279-7.224,9.76-12.325,17.329-14.249v-1.83c-5.462-6.963-8.887-15.491-9.521-24.845c-0.628-0.199-3.992-0.835-4.146-0.835
		H59.665c-6.634,0-12.219,1.869-14.932,7.806l-43.55,95.423c-2.997,6.564-0.108,14.311,6.458,17.305
		c6.625,3.026,14.333,0.054,17.305-6.457l21.06-46.141c0,3.761-0.046,60.842-0.046,162.621c0,8.657,7.017,15.674,15.674,15.674
		c8.655,0,15.673-7.017,15.673-15.674v-46.432c-3.324-0.083-6.649-0.781-9.774-2.214C61.182,332.972,56.325,327.763,53.882,321.205z
		"/>
	<path id="XMLID_19_" d="M88.745,335.783v48.73c0,8.158,6.306,14.648,14.272,15.391v-78.637l-0.759,1.653
		C99.555,328.867,94.559,333.28,88.745,335.783z"/>
	<path id="XMLID_18_" d="M83.031,148.067c16.869,0,30.542-13.667,30.542-30.535c0-16.878-13.673-30.536-30.542-30.536
		c-16.877,0-30.551,13.658-30.551,30.536C52.48,134.4,66.154,148.067,83.031,148.067z"/>
	<path id="XMLID_17_" d="M190.203,304.391l6.458-14.149v-23.181l5.293,11.59l15.859-34.756l-19.758-43.291
		c-2.979-6.55-9.184-8.635-16.501-8.635c-113.032,0,27.242,0-51.633,0c-7.338,0-13.514,2.063-16.493,8.635L65.296,306.053
		c-3.31,7.246-0.115,15.811,7.14,19.122c7.201,3.301,15.796,0.159,19.12-7.141l23.273-50.989c0,38.51-0.046,36.97-0.046,179.721
		c0,9.567,7.752,17.32,17.321,17.32c9.568,0,17.321-7.753,17.321-17.32V343.522h12.641v103.244c0,9.567,7.752,17.32,17.32,17.32
		c9.567,0,17.32-7.753,17.32-17.32V334.774c-3.165-2.805-5.699-6.267-7.217-10.343C186.947,317.613,187.568,310.166,190.203,304.391
		z"/>
	<path id="XMLID_16_" d="M473.956,256.267l-48.133-105.45c-3.011-6.596-9.239-8.634-16.494-8.634c-112.596,0,27.126,0-51.633,0
		c-7.385,0-13.521,2.076-16.502,8.634l-5.009,10.986c-1.295,8.457-4.911,16.071-10.196,22.322l-0.176,0.391
		c8.586,1.755,15.573,7.913,18.562,14.434L392.5,304.391c2.91,6.365,3.163,13.482,0.712,20.04c-0.828,2.229-2.03,4.228-3.387,6.114
		v66.433c0,9.568,7.753,17.321,17.322,17.321c9.567,0,17.32-7.753,17.32-17.321c0-95.459-0.046-148.856-0.046-179.719l23.273,50.989
		c3.324,7.301,11.92,10.441,19.121,7.139C474.071,272.078,477.265,263.513,473.956,256.267z"/>
	<path id="XMLID_15_" d="M344.827,326.14l-0.759-1.663l0.016,1.004v78.507c2.697,6.059,8.719,10.312,15.782,10.312
		c9.566,0,17.32-7.753,17.32-17.321v-57.087C364.882,344.058,350.296,338.121,344.827,326.14z"/>
	<path id="XMLID_14_" d="M383.505,135.68c18.646,0,33.762-15.107,33.762-33.746c0-18.654-15.115-33.753-33.762-33.753
		c-18.638,0-33.753,15.099-33.753,33.753C349.752,120.573,364.867,135.68,383.505,135.68z"/>
	<path id="XMLID_13_" d="M333.665,203.828c-2.988-6.542-9.177-8.633-16.501-8.633c-113.034,0,27.241,0-51.632,0
		c-7.377,0-13.514,2.091-16.495,8.633l-48.132,105.45c-3.309,7.247-0.114,15.811,7.141,19.12c7.201,3.303,15.797,0.162,19.121-7.139
		l23.273-50.989v54.982c0,0.082-0.047,0.151-0.047,0.229V449.99c0,9.568,7.754,17.321,17.321,17.321
		c9.569,0,17.321-7.753,17.321-17.321V346.747h12.641V449.99c0,9.568,7.753,17.321,17.32,17.321c9.569,0,17.321-7.753,17.321-17.321
		V325.481c0-0.077-0.045-0.147-0.045-0.229v-54.96l23.265,50.968c2.421,5.315,7.661,8.448,13.138,8.448
		c2.007,0,4.045-0.42,5.984-1.309c7.255-3.309,10.449-11.873,7.138-19.12L333.665,203.828z"/>
</g>
<g>
</g>
<g>
</g>
<g>
</g>
<g>
</g>
<g>
</g>
<g>
</g>
<g>
</g>
<g>
</g>
<g>
</g>
<g>
</g>
<g>
</g>
<g>
</g>
<g>
</g>
<g>
</g>
<g>
</g>
</svg>
