<svg xmlns="http://www.w3.org/2000/svg" width="1600" height="900" viewBox="0 0 1600 900" role="img">
  <title>ETH deposit flow from L1 to L2 on Arbitrum</title>
  <desc>A user calls depositEth() on the L1 Inbox contract, which enqueues a delayed message to the Bridge contract; funds are escrowed on L1 and, after the transaction is justified on Ethereum, Arbitrum nodes pick it up from the Bridge's events and credit the equivalent funds to the user on L2.</desc>
  <defs>
    <marker id="arrow" viewBox="0 0 10 10" refX="8.5" refY="5" markerWidth="6" markerHeight="6" orient="auto-start-reverse"><path d="M0 1 L9 5 L0 9 z" fill="#ffffff"/></marker>
  </defs>
  <g transform="scale(3.779534)"><defs><linearGradient id="bgGrad" x1="800" x2="800" y1="905.32" y2="-3.69" gradientTransform="translate(-108.744 -61.913)scale(.26458)" gradientUnits="userSpaceOnUse"><stop offset="0" stop-color="#12aaff"/><stop offset=".3" stop-color="#1b4add"/><stop offset=".75" stop-color="#152c4e"/></linearGradient></defs><path d="M-108.744-61.912h423.333v238.125h-423.333z" class="cls-1" style="fill:url(#bgGrad);stroke-width:.264583" transform="translate(108.744 61.912)"/><g class="cls-5" style="opacity:.1"><g transform="scale(.26458)"><path d="M0 260.61h94.31l26.14-17.13h37.72l19.61 30.93h107.79l22.63-15.47h64.07" class="cls-3" style="fill:none;stroke:#fff;stroke-width:.86px;stroke-miterlimit:10"/><circle cx="372.11" cy="258.94" r="3.22" class="cls-4" style="fill:#fff"/></g><g transform="scale(.26458)"><path d="M0 279.81h94.75l26.58-17.44 33.75.32 20.37 30.92h110.12l22.63-15.46h98.76" class="cls-3" style="fill:none;stroke:#fff;stroke-width:.86px;stroke-miterlimit:10"/><circle cx="406.8" cy="278.15" r="3.22" class="cls-4" style="fill:#fff"/></g><g transform="scale(.26458)"><path d="M0 299.31h94.75l26.58-17.45 33.75.32 20.37 30.92h107.06" class="cls-3" style="fill:none;stroke:#fff;stroke-width:.86px;stroke-miterlimit:10"/><circle cx="282.35" cy="313.1" r="3.22" class="cls-4" style="fill:#fff"/></g><path d="M179.16 360.12H80.85l-22.63 15.47H0" class="cls-3" style="fill:none;stroke:#fff;stroke-width:.86px;stroke-miterlimit:10" transform="scale(.26458)"/><path d="M178.97 356.42c2.04 0 3.7 1.66 3.7 3.7s-1.66 3.7-3.7 3.7-3.7-1.66-3.7-3.7 1.66-3.7 3.7-3.7" class="cls-4" style="fill:#fff" transform="scale(.26458)"/><path d="M0 358.76h58.22l22.63-15.46h101.83l14.86-14.86h51.08l14.09 14.08h50.84" class="cls-3" style="fill:none;stroke:#fff;stroke-width:.86px;stroke-miterlimit:10" transform="scale(.26458)"/><path d="M313.37 346.23c2.04 0 3.7-1.66 3.7-3.7s-1.66-3.7-3.7-3.7-3.7 1.66-3.7 3.7 1.66 3.7 3.7 3.7" class="cls-4" style="fill:#fff" transform="scale(.26458)"/><g transform="scale(.26458)"><path d="M0 309.46h137.88" class="cls-3" style="fill:none;stroke:#fff;stroke-width:.86px;stroke-miterlimit:10"/><circle cx="137.72" cy="309.46" r="3.22" class="cls-4" style="fill:#fff"/></g><g transform="scale(.26458)"><path d="M217.38 428.12h-98.3l-22.63-15.46H0" class="cls-3" style="fill:none;stroke:#fff;stroke-width:.86px;stroke-miterlimit:10"/><circle cx="217.2" cy="428.12" r="3.7" class="cls-4" style="fill:#fff"/></g><path d="M240.22 443.59H119.08l-22.63-15.47H0" class="cls-3" style="fill:none;stroke:#fff;stroke-width:.86px;stroke-miterlimit:10" transform="scale(.26458)"/><path d="M240.04 439.88c2.04 0 3.7 1.66 3.7 3.7s-1.66 3.7-3.7 3.7-3.7-1.66-3.7-3.7 1.66-3.7 3.7-3.7" class="cls-4" style="fill:#fff" transform="scale(.26458)"/><path d="M0 227.1h163.21l23.67 34.9" class="cls-3" style="fill:none;stroke:#fff;stroke-width:.86px;stroke-miterlimit:10" transform="scale(.26458)"/><path d="M184.12 263.67a3.218 3.218 0 1 0 5.33-3.61 3.218 3.218 0 1 0-5.33 3.61" class="cls-4" style="fill:#fff" transform="scale(.26458)"/><path d="M0 214.44h175.62l31.72 49.48h54.06" class="cls-3" style="fill:none;stroke:#fff;stroke-width:.86px;stroke-miterlimit:10" transform="scale(.26458)"/><path d="M261.24 267.14c1.78 0 3.22-1.44 3.22-3.22s-1.44-3.22-3.22-3.22-3.22 1.44-3.22 3.22 1.44 3.22 3.22 3.22" class="cls-4" style="fill:#fff" transform="scale(.26458)"/><g transform="scale(.26458)"><path d="M0 201.24h206.12l17.02 25.86h59.37" class="cls-3" style="fill:none;stroke:#fff;stroke-width:.86px;stroke-miterlimit:10"/><circle cx="282.35" cy="227.1" r="3.22" class="cls-4" style="fill:#fff"/></g><g transform="scale(.26458)"><path d="M0 76.95h80.47l31.51 31.52h108.1" class="cls-3" style="fill:none;stroke:#fff;stroke-width:.86px;stroke-miterlimit:10"/><circle cx="219.92" cy="108.47" r="3.22" class="cls-4" style="fill:#fff"/></g><path d="M0 94.72h80.47l31.51 31.51h88.56l21.01 21.01h87.37" class="cls-3" style="fill:none;stroke:#fff;stroke-width:.86px;stroke-miterlimit:10" transform="scale(.26458)"/><path d="M308.76 150.46c1.78 0 3.22-1.44 3.22-3.22s-1.44-3.22-3.22-3.22-3.22 1.44-3.22 3.22 1.44 3.22 3.22 3.22" class="cls-4" style="fill:#fff" transform="scale(.26458)"/><g transform="scale(.26458)"><path d="M0 110.48h75.32l30.72 30.72h80.92l27.28 27.28 73.18-.52" class="cls-3" style="fill:none;stroke:#fff;stroke-width:.86px;stroke-miterlimit:10"/><circle cx="287.26" cy="167.96" r="3.22" class="cls-4" style="fill:#fff"/></g><g transform="scale(.26458)"><path d="M0 125.84h65.86" class="cls-3" style="fill:none;stroke:#fff;stroke-width:.86px;stroke-miterlimit:10"/><circle cx="65.7" cy="125.84" r="3.22" class="cls-4" style="fill:#fff"/></g><g transform="scale(.26458)"><path d="M0 143.06h82.99" class="cls-3" style="fill:none;stroke:#fff;stroke-width:.86px;stroke-miterlimit:10"/><circle cx="82.83" cy="143.06" r="3.22" class="cls-4" style="fill:#fff"/></g><g transform="scale(.26458)"><path d="M0 241.55h82.99" class="cls-3" style="fill:none;stroke:#fff;stroke-width:.86px;stroke-miterlimit:10"/><circle cx="82.83" cy="241.55" r="3.22" class="cls-4" style="fill:#fff"/></g><path d="M109.69 187.83h135.87" class="cls-3" style="fill:none;stroke:#fff;stroke-width:.86px;stroke-miterlimit:10" transform="scale(.26458)"/><path d="M245.4 191.05c1.78 0 3.22-1.44 3.22-3.22s-1.44-3.22-3.22-3.22-3.22 1.44-3.22 3.22 1.44 3.22 3.22 3.22" class="cls-4" style="fill:#fff" transform="scale(.26458)"/><g transform="scale(.26458)"><path d="M250.65 244.73H216.1l-20.84-33.46" class="cls-3" style="fill:none;stroke:#fff;stroke-width:.86px;stroke-miterlimit:10"/><circle cx="250.49" cy="244.73" r="3.22" class="cls-4" style="fill:#fff"/></g><g transform="scale(.26458)"><path d="M0 189.34h85.83l18.29-18.29h79.78" class="cls-3" style="fill:none;stroke:#fff;stroke-width:.86px;stroke-miterlimit:10"/><circle cx="183.74" cy="171.05" r="3.22" class="cls-4" style="fill:#fff"/></g><path d="M0 174.87h71.61l19.37-19.37 35.77.8" class="cls-3" style="fill:none;stroke:#fff;stroke-width:.86px;stroke-miterlimit:10" transform="scale(.26458)"/><path d="M126.52 159.51c1.78.04 3.25-1.37 3.29-3.15a3.22 3.22 0 0 0-3.15-3.29 3.22 3.22 0 0 0-3.29 3.15 3.22 3.22 0 0 0 3.15 3.29" class="cls-4" style="fill:#fff" transform="scale(.26458)"/><g transform="scale(.26458)"><path d="M0 158.41h52.82" class="cls-3" style="fill:none;stroke:#fff;stroke-width:.86px;stroke-miterlimit:10"/><circle cx="52.66" cy="158.41" r="3.22" class="cls-4" style="fill:#fff"/></g><g transform="scale(.26458)"><path d="M0 339.86h52.82" class="cls-3" style="fill:none;stroke:#fff;stroke-width:.86px;stroke-miterlimit:10"/><circle cx="52.66" cy="339.86" r="3.22" class="cls-4" style="fill:#fff"/></g><g transform="scale(.26458)"><path d="M0 443.59h52.82" class="cls-3" style="fill:none;stroke:#fff;stroke-width:.86px;stroke-miterlimit:10"/><circle cx="52.66" cy="443.59" r="3.22" class="cls-4" style="fill:#fff"/></g><path d="M134.85 393.49h32.81" class="cls-3" style="fill:none;stroke:#fff;stroke-width:.86px;stroke-miterlimit:10" transform="scale(.26458)"/><path d="M167.5 396.71c1.78 0 3.22-1.44 3.22-3.22s-1.44-3.22-3.22-3.22-3.22 1.44-3.22 3.22 1.44 3.22 3.22 3.22" class="cls-4" style="fill:#fff" transform="scale(.26458)"/><g transform="scale(.26458)"><path d="M0 324.95h125.55" class="cls-3" style="fill:none;stroke:#fff;stroke-width:.86px;stroke-miterlimit:10"/><circle cx="125.39" cy="324.95" r="3.22" class="cls-4" style="fill:#fff"/></g><g transform="scale(.26458)"><path d="M0 399.91h116.96l9.25 9.25h140.28" class="cls-3" style="fill:none;stroke:#fff;stroke-width:.86px;stroke-miterlimit:10"/><circle cx="266.33" cy="409.16" r="3.22" class="cls-4" style="fill:#fff"/></g><path d="M0 389.35h86.05l17.43-11.48h101.07" class="cls-3" style="fill:none;stroke:#fff;stroke-width:.86px;stroke-miterlimit:10" transform="scale(.26458)"/><path d="M204.39 381.09c1.78 0 3.22-1.44 3.22-3.22s-1.44-3.22-3.22-3.22-3.22 1.44-3.22 3.22 1.44 3.22 3.22 3.22" class="cls-4" style="fill:#fff" transform="scale(.26458)"/><g transform="scale(.26458)"><path d="M0 60.8h44.46V26.86h188.09" class="cls-3" style="fill:none;stroke:#fff;stroke-width:.86px;stroke-miterlimit:10"/><circle cx="232.39" cy="26.86" r="3.22" class="cls-4" style="fill:#fff"/></g><path d="M0 39.87h29.13V13.85h72.11" class="cls-3" style="fill:none;stroke:#fff;stroke-width:.86px;stroke-miterlimit:10" transform="scale(.26458)"/><path d="M101.08 17.07c1.78 0 3.22-1.44 3.22-3.22s-1.44-3.22-3.22-3.22-3.22 1.44-3.22 3.22 1.44 3.22 3.22 3.22" class="cls-4" style="fill:#fff" transform="scale(.26458)"/><g transform="scale(.26458)"><path d="M261.33 39.87H122.47l21.62 21.62h85.62" class="cls-3" style="fill:none;stroke:#fff;stroke-width:.86px;stroke-miterlimit:10"/><path d="M261.16 36.65c1.78 0 3.22 1.44 3.22 3.22s-1.44 3.22-3.22 3.22-3.22-1.44-3.22-3.22 1.44-3.22 3.22-3.22" class="cls-4" style="fill:#fff"/><circle cx="229.54" cy="61.49" r="3.22" class="cls-4" style="fill:#fff"/></g><g transform="scale(.26458)"><path d="M252.92 93.8H121.38L86.05 58.47l-23.9-1.1v-17.5h30.34l37.2 37.2h82.26" class="cls-3" style="fill:none;stroke:#fff;stroke-width:.86px;stroke-miterlimit:10"/><circle cx="252.75" cy="93.8" r="3.22" class="cls-4" style="fill:#fff"/><circle cx="211.79" cy="77.07" r="3.22" class="cls-4" style="fill:#fff"/></g></g><g class="cls-5" style="opacity:.1"><path d="M0 703.18h94.31l26.14-17.13h37.72l19.61 30.92h107.79l22.63-15.46h64.07" class="cls-3" style="fill:none;stroke:#fff;stroke-width:.86px;stroke-miterlimit:10" transform="scale(.26458)"/><path d="M372.11 704.73c1.78 0 3.22-1.44 3.22-3.22s-1.44-3.22-3.22-3.22-3.22 1.44-3.22 3.22 1.44 3.22 3.22 3.22" class="cls-4" style="fill:#fff" transform="scale(.26458)"/><path d="M0 722.38h94.75l26.58-17.44 33.75.31 20.37 30.93h110.12l22.63-15.46h98.76" class="cls-3" style="fill:none;stroke:#fff;stroke-width:.86px;stroke-miterlimit:10" transform="scale(.26458)"/><path d="M406.8 723.94c1.78 0 3.22-1.44 3.22-3.22s-1.44-3.22-3.22-3.22-3.22 1.44-3.22 3.22 1.44 3.22 3.22 3.22" class="cls-4" style="fill:#fff" transform="scale(.26458)"/><path d="M0 741.87h94.75l26.58-17.44 33.75.32 20.37 30.92h107.06" class="cls-3" style="fill:none;stroke:#fff;stroke-width:.86px;stroke-miterlimit:10" transform="scale(.26458)"/><path d="M282.35 758.89c1.78 0 3.22-1.44 3.22-3.22s-1.44-3.22-3.22-3.22-3.22 1.44-3.22 3.22 1.44 3.22 3.22 3.22" class="cls-4" style="fill:#fff" transform="scale(.26458)"/><path d="M179.16 802.69H80.85l-22.63 15.46H0" class="cls-3" style="fill:none;stroke:#fff;stroke-width:.86px;stroke-miterlimit:10" transform="scale(.26458)"/><path d="M178.97 798.99c2.04 0 3.7 1.66 3.7 3.7s-1.66 3.7-3.7 3.7-3.7-1.66-3.7-3.7 1.66-3.7 3.7-3.7" class="cls-4" style="fill:#fff" transform="scale(.26458)"/><path d="M0 801.33h58.22l22.63-15.46h101.83L197.54 771h51.08l14.09 14.09h50.84" class="cls-3" style="fill:none;stroke:#fff;stroke-width:.86px;stroke-miterlimit:10" transform="scale(.26458)"/><path d="M313.37 788.79c2.04 0 3.7-1.66 3.7-3.7s-1.66-3.7-3.7-3.7-3.7 1.66-3.7 3.7 1.66 3.7 3.7 3.7" class="cls-4" style="fill:#fff" transform="scale(.26458)"/><path d="M0 752.03h137.88" class="cls-3" style="fill:none;stroke:#fff;stroke-width:.86px;stroke-miterlimit:10" transform="scale(.26458)"/><path d="M137.72 755.25c1.78 0 3.22-1.44 3.22-3.22s-1.44-3.22-3.22-3.22-3.22 1.44-3.22 3.22 1.44 3.22 3.22 3.22" class="cls-4" style="fill:#fff" transform="scale(.26458)"/><path d="M217.38 870.69h-98.3l-22.63-15.46H0" class="cls-3" style="fill:none;stroke:#fff;stroke-width:.86px;stroke-miterlimit:10" transform="scale(.26458)"/><path d="M217.2 866.99c2.04 0 3.7 1.66 3.7 3.7s-1.66 3.7-3.7 3.7-3.7-1.66-3.7-3.7 1.66-3.7 3.7-3.7" class="cls-4" style="fill:#fff" transform="scale(.26458)"/><path d="M240.22 886.15H119.08l-22.63-15.46H0" class="cls-3" style="fill:none;stroke:#fff;stroke-width:.86px;stroke-miterlimit:10" transform="scale(.26458)"/><path d="M240.04 882.45c2.04 0 3.7 1.66 3.7 3.7s-1.66 3.7-3.7 3.7-3.7-1.66-3.7-3.7 1.66-3.7 3.7-3.7" class="cls-4" style="fill:#fff" transform="scale(.26458)"/><path d="M0 669.67h163.21l23.67 34.9" class="cls-3" style="fill:none;stroke:#fff;stroke-width:.86px;stroke-miterlimit:10" transform="scale(.26458)"/><path d="M184.12 706.24a3.218 3.218 0 1 0 5.33-3.61 3.218 3.218 0 1 0-5.33 3.61" class="cls-4" style="fill:#fff" transform="scale(.26458)"/><path d="M0 657.01h175.62l31.72 49.48h54.06" class="cls-3" style="fill:none;stroke:#fff;stroke-width:.86px;stroke-miterlimit:10" transform="scale(.26458)"/><path d="M261.24 709.71c1.78 0 3.22-1.44 3.22-3.22s-1.44-3.22-3.22-3.22-3.22 1.44-3.22 3.22 1.44 3.22 3.22 3.22" class="cls-4" style="fill:#fff" transform="scale(.26458)"/><g transform="scale(.26458)"><path d="M0 643.8h206.12l17.02 25.87h59.37" class="cls-3" style="fill:none;stroke:#fff;stroke-width:.86px;stroke-miterlimit:10"/><circle cx="282.35" cy="669.67" r="3.22" class="cls-4" style="fill:#fff"/></g><g transform="scale(.26458)"><path d="M0 519.52h80.47l31.51 31.51h108.1" class="cls-3" style="fill:none;stroke:#fff;stroke-width:.86px;stroke-miterlimit:10"/><circle cx="219.92" cy="551.03" r="3.22" class="cls-4" style="fill:#fff"/></g><path d="M0 537.29h80.47l31.51 31.51h88.56l21.01 21.01h87.37" class="cls-3" style="fill:none;stroke:#fff;stroke-width:.86px;stroke-miterlimit:10" transform="scale(.26458)"/><path d="M308.76 593.03c1.78 0 3.22-1.44 3.22-3.22s-1.44-3.22-3.22-3.22-3.22 1.44-3.22 3.22 1.44 3.22 3.22 3.22" class="cls-4" style="fill:#fff" transform="scale(.26458)"/><g transform="scale(.26458)"><path d="M0 553.04h75.32l30.72 30.72h80.92l27.28 27.29 73.18-.52" class="cls-3" style="fill:none;stroke:#fff;stroke-width:.86px;stroke-miterlimit:10"/><circle cx="287.26" cy="610.53" r="3.22" class="cls-4" style="fill:#fff"/></g><g transform="scale(.26458)"><path d="M0 568.4h65.86" class="cls-3" style="fill:none;stroke:#fff;stroke-width:.86px;stroke-miterlimit:10"/><circle cx="65.7" cy="568.4" r="3.22" class="cls-4" style="fill:#fff"/></g><path d="M0 585.62h82.99" class="cls-3" style="fill:none;stroke:#fff;stroke-width:.86px;stroke-miterlimit:10" transform="scale(.26458)"/><path d="M82.83 588.84c1.78 0 3.22-1.44 3.22-3.22s-1.44-3.22-3.22-3.22-3.22 1.44-3.22 3.22 1.44 3.22 3.22 3.22" class="cls-4" style="fill:#fff" transform="scale(.26458)"/><path d="M0 684.12h82.99" class="cls-3" style="fill:none;stroke:#fff;stroke-width:.86px;stroke-miterlimit:10" transform="scale(.26458)"/><path d="M82.83 687.34c1.78 0 3.22-1.44 3.22-3.22s-1.44-3.22-3.22-3.22-3.22 1.44-3.22 3.22 1.44 3.22 3.22 3.22" class="cls-4" style="fill:#fff" transform="scale(.26458)"/><path d="M109.69 630.4h135.87" class="cls-3" style="fill:none;stroke:#fff;stroke-width:.86px;stroke-miterlimit:10" transform="scale(.26458)"/><path d="M245.4 633.62c1.78 0 3.22-1.44 3.22-3.22s-1.44-3.22-3.22-3.22-3.22 1.44-3.22 3.22 1.44 3.22 3.22 3.22" class="cls-4" style="fill:#fff" transform="scale(.26458)"/><g transform="scale(.26458)"><path d="M250.65 687.3H216.1l-20.84-33.46" class="cls-3" style="fill:none;stroke:#fff;stroke-width:.86px;stroke-miterlimit:10"/><circle cx="250.49" cy="687.3" r="3.22" class="cls-4" style="fill:#fff"/></g><g transform="scale(.26458)"><path d="M0 631.9h85.83l18.29-18.28h79.78" class="cls-3" style="fill:none;stroke:#fff;stroke-width:.86px;stroke-miterlimit:10"/><circle cx="183.74" cy="613.62" r="3.22" class="cls-4" style="fill:#fff"/></g><path d="M0 617.44h71.61l19.37-19.37 35.77.8" class="cls-3" style="fill:none;stroke:#fff;stroke-width:.86px;stroke-miterlimit:10" transform="scale(.26458)"/><path d="M126.52 602.08c1.78.04 3.25-1.37 3.29-3.15a3.22 3.22 0 0 0-3.15-3.29 3.22 3.22 0 0 0-3.29 3.15 3.22 3.22 0 0 0 3.15 3.29" class="cls-4" style="fill:#fff" transform="scale(.26458)"/><g transform="scale(.26458)"><path d="M0 600.98h52.82" class="cls-3" style="fill:none;stroke:#fff;stroke-width:.86px;stroke-miterlimit:10"/><circle cx="52.66" cy="600.98" r="3.22" class="cls-4" style="fill:#fff"/></g><g transform="scale(.26458)"><path d="M0 782.43h52.82" class="cls-3" style="fill:none;stroke:#fff;stroke-width:.86px;stroke-miterlimit:10"/><circle cx="52.66" cy="782.43" r="3.22" class="cls-4" style="fill:#fff"/></g><g transform="scale(.26458)"><path d="M0 886.15h52.82" class="cls-3" style="fill:none;stroke:#fff;stroke-width:.86px;stroke-miterlimit:10"/><circle cx="52.66" cy="886.15" r="3.22" class="cls-4" style="fill:#fff"/></g><path d="M134.85 836.06h32.81" class="cls-3" style="fill:none;stroke:#fff;stroke-width:.86px;stroke-miterlimit:10" transform="scale(.26458)"/><path d="M167.5 839.28c1.78 0 3.22-1.44 3.22-3.22s-1.44-3.22-3.22-3.22-3.22 1.44-3.22 3.22 1.44 3.22 3.22 3.22" class="cls-4" style="fill:#fff" transform="scale(.26458)"/><path d="M0 767.52h125.55" class="cls-3" style="fill:none;stroke:#fff;stroke-width:.86px;stroke-miterlimit:10" transform="scale(.26458)"/><path d="M125.39 770.74c1.78 0 3.22-1.44 3.22-3.22s-1.44-3.22-3.22-3.22-3.22 1.44-3.22 3.22 1.44 3.22 3.22 3.22" class="cls-4" style="fill:#fff" transform="scale(.26458)"/><path d="M0 842.48h116.96l9.25 9.25h140.28" class="cls-3" style="fill:none;stroke:#fff;stroke-width:.86px;stroke-miterlimit:10" transform="scale(.26458)"/><path d="M266.33 854.95c1.78 0 3.22-1.44 3.22-3.22s-1.44-3.22-3.22-3.22-3.22 1.44-3.22 3.22 1.44 3.22 3.22 3.22" class="cls-4" style="fill:#fff" transform="scale(.26458)"/><path d="M0 831.92h86.05l17.43-11.48h101.07" class="cls-3" style="fill:none;stroke:#fff;stroke-width:.86px;stroke-miterlimit:10" transform="scale(.26458)"/><path d="M204.39 823.66c1.78 0 3.22-1.44 3.22-3.22s-1.44-3.22-3.22-3.22-3.22 1.44-3.22 3.22 1.44 3.22 3.22 3.22" class="cls-4" style="fill:#fff" transform="scale(.26458)"/><g transform="scale(.26458)"><path d="M0 503.37h44.46v-33.95h188.09" class="cls-3" style="fill:none;stroke:#fff;stroke-width:.86px;stroke-miterlimit:10"/><circle cx="232.39" cy="469.42" r="3.22" class="cls-4" style="fill:#fff"/></g><path d="M0 482.44h29.13v-26.03h72.11" class="cls-3" style="fill:none;stroke:#fff;stroke-width:.86px;stroke-miterlimit:10" transform="scale(.26458)"/><path d="M101.08 459.63c1.78 0 3.22-1.44 3.22-3.22s-1.44-3.22-3.22-3.22-3.22 1.44-3.22 3.22 1.44 3.22 3.22 3.22" class="cls-4" style="fill:#fff" transform="scale(.26458)"/><g transform="scale(.26458)"><path d="M261.33 482.44H122.47l21.62 21.61h85.62" class="cls-3" style="fill:none;stroke:#fff;stroke-width:.86px;stroke-miterlimit:10"/><path d="M261.16 479.22c1.78 0 3.22 1.44 3.22 3.22s-1.44 3.22-3.22 3.22-3.22-1.44-3.22-3.22 1.44-3.22 3.22-3.22" class="cls-4" style="fill:#fff"/><circle cx="229.54" cy="504.05" r="3.22" class="cls-4" style="fill:#fff"/></g><g transform="scale(.26458)"><path d="M252.92 536.37H121.38l-35.33-35.33-23.9-1.1v-17.5h30.34l37.2 37.2h82.26" class="cls-3" style="fill:none;stroke:#fff;stroke-width:.86px;stroke-miterlimit:10"/><circle cx="252.75" cy="536.37" r="3.22" class="cls-4" style="fill:#fff"/><path d="M211.79 522.86c1.78 0 3.22-1.44 3.22-3.22s-1.44-3.22-3.22-3.22-3.22 1.44-3.22 3.22 1.44 3.22 3.22 3.22" class="cls-4" style="fill:#fff"/></g></g><g class="cls-5" style="opacity:.1"><g transform="scale(.26458)"><path d="M1600 260.61h-94.31l-26.14-17.13h-37.72l-19.61 30.93h-107.79l-22.63-15.47h-64.07" class="cls-3" style="fill:none;stroke:#fff;stroke-width:.86px;stroke-miterlimit:10"/><circle cx="1227.89" cy="258.94" r="3.22" class="cls-4" style="fill:#fff" transform="rotate(-58.28 1227.95 258.929)"/></g><path d="M1600 279.81h-94.75l-26.58-17.44-33.75.32-20.37 30.92h-110.12l-22.63-15.46h-98.76" class="cls-3" style="fill:none;stroke:#fff;stroke-width:.86px;stroke-miterlimit:10" transform="scale(.26458)"/><path d="M1193.2 274.93c-1.78 0-3.22 1.44-3.22 3.22s1.44 3.22 3.22 3.22 3.22-1.44 3.22-3.22-1.44-3.22-3.22-3.22" class="cls-4" style="fill:#fff" transform="scale(.26458)"/><g transform="scale(.26458)"><path d="M1600 299.31h-94.75l-26.58-17.45-33.75.32-20.37 30.92h-107.06" class="cls-3" style="fill:none;stroke:#fff;stroke-width:.86px;stroke-miterlimit:10"/><circle cx="1317.65" cy="313.1" r="3.22" class="cls-4" style="fill:#fff" transform="rotate(-13.28 1317.906 313.143)"/></g><path d="M1420.84 360.12h98.31l22.63 15.47H1600" class="cls-3" style="fill:none;stroke:#fff;stroke-width:.86px;stroke-miterlimit:10" transform="scale(.26458)"/><path d="M1421.03 363.83c-2.04 0-3.7-1.66-3.7-3.7s1.66-3.7 3.7-3.7 3.7 1.66 3.7 3.7-1.66 3.7-3.7 3.7" class="cls-4" style="fill:#fff" transform="scale(.26458)"/><path d="M1600 358.76h-58.22l-22.63-15.46h-101.83l-14.86-14.86h-51.08l-14.09 14.08h-50.84" class="cls-3" style="fill:none;stroke:#fff;stroke-width:.86px;stroke-miterlimit:10" transform="scale(.26458)"/><path d="M1286.63 338.82c-2.04 0-3.7 1.66-3.7 3.7s1.66 3.7 3.7 3.7 3.7-1.66 3.7-3.7-1.66-3.7-3.7-3.7" class="cls-4" style="fill:#fff" transform="scale(.26458)"/><path d="M1600 309.46h-137.88" class="cls-3" style="fill:none;stroke:#fff;stroke-width:.86px;stroke-miterlimit:10" transform="scale(.26458)"/><path d="M1462.28 306.24c-1.78 0-3.22 1.44-3.22 3.22s1.44 3.22 3.22 3.22 3.22-1.44 3.22-3.22-1.44-3.22-3.22-3.22" class="cls-4" style="fill:#fff" transform="scale(.26458)"/><path d="M1382.62 428.12h98.3l22.63-15.46H1600" class="cls-3" style="fill:none;stroke:#fff;stroke-width:.86px;stroke-miterlimit:10" transform="scale(.26458)"/><path d="M1382.8 431.83c-2.04 0-3.7-1.66-3.7-3.7s1.66-3.7 3.7-3.7 3.7 1.66 3.7 3.7-1.66 3.7-3.7 3.7" class="cls-4" style="fill:#fff" transform="scale(.26458)"/><path d="M1359.78 443.59h121.14l22.63-15.47H1600" class="cls-3" style="fill:none;stroke:#fff;stroke-width:.86px;stroke-miterlimit:10" transform="scale(.26458)"/><path d="M1359.96 447.29c-2.04 0-3.7-1.66-3.7-3.7s1.66-3.7 3.7-3.7 3.7 1.66 3.7 3.7-1.66 3.7-3.7 3.7" class="cls-4" style="fill:#fff" transform="scale(.26458)"/><path d="M1600 227.1h-163.21l-23.67 34.9" class="cls-3" style="fill:none;stroke:#fff;stroke-width:.86px;stroke-miterlimit:10" transform="scale(.26458)"/><path d="M1410.55 260.06a3.218 3.218 0 1 0 5.33 3.61 3.218 3.218 0 1 0-5.33-3.61" class="cls-4" style="fill:#fff" transform="scale(.26458)"/><path d="M1600 214.44h-175.62l-31.72 49.48h-54.06" class="cls-3" style="fill:none;stroke:#fff;stroke-width:.86px;stroke-miterlimit:10" transform="scale(.26458)"/><path d="M1338.76 260.7c-1.78 0-3.22 1.44-3.22 3.22s1.44 3.22 3.22 3.22 3.22-1.44 3.22-3.22-1.44-3.22-3.22-3.22" class="cls-4" style="fill:#fff" transform="scale(.26458)"/><g transform="scale(.26458)"><path d="M1600 201.24h-206.12l-17.02 25.86h-59.37" class="cls-3" style="fill:none;stroke:#fff;stroke-width:.86px;stroke-miterlimit:10"/><circle cx="1317.65" cy="227.1" r="3.22" class="cls-4" style="fill:#fff" transform="rotate(-31.72 1317.55 227.107)"/></g><path d="M1600 76.95h-80.47l-31.51 31.52h-108.1" class="cls-3" style="fill:none;stroke:#fff;stroke-width:.86px;stroke-miterlimit:10" transform="scale(.26458)"/><path d="M1380.08 105.25c-1.78 0-3.22 1.44-3.22 3.22s1.44 3.22 3.22 3.22 3.22-1.44 3.22-3.22-1.44-3.22-3.22-3.22" class="cls-4" style="fill:#fff" transform="scale(.26458)"/><path d="M1600 94.72h-80.47l-31.51 31.51h-88.56l-21.01 21.01h-87.37" class="cls-3" style="fill:none;stroke:#fff;stroke-width:.86px;stroke-miterlimit:10" transform="scale(.26458)"/><path d="M1291.24 144.02c-1.78 0-3.22 1.44-3.22 3.22s1.44 3.22 3.22 3.22 3.22-1.44 3.22-3.22-1.44-3.22-3.22-3.22" class="cls-4" style="fill:#fff" transform="scale(.26458)"/><path d="M1600 110.48h-75.32l-30.72 30.72h-80.92l-27.28 27.28-73.18-.52" class="cls-3" style="fill:none;stroke:#fff;stroke-width:.86px;stroke-miterlimit:10" transform="scale(.26458)"/><path d="M1312.76 164.74a3.22 3.22 0 0 0-3.24 3.2 3.22 3.22 0 0 0 3.2 3.24c1.78.01 3.23-1.42 3.24-3.2a3.22 3.22 0 0 0-3.2-3.24" class="cls-4" style="fill:#fff" transform="scale(.26458)"/><path d="M1600 125.84h-65.86" class="cls-3" style="fill:none;stroke:#fff;stroke-width:.86px;stroke-miterlimit:10" transform="scale(.26458)"/><path d="M1534.3 122.62c-1.78 0-3.22 1.44-3.22 3.22s1.44 3.22 3.22 3.22 3.22-1.44 3.22-3.22-1.44-3.22-3.22-3.22" class="cls-4" style="fill:#fff" transform="scale(.26458)"/><path d="M1600 143.06h-82.99" class="cls-3" style="fill:none;stroke:#fff;stroke-width:.86px;stroke-miterlimit:10" transform="scale(.26458)"/><path d="M1517.17 139.84c-1.78 0-3.22 1.44-3.22 3.22s1.44 3.22 3.22 3.22 3.22-1.44 3.22-3.22-1.44-3.22-3.22-3.22" class="cls-4" style="fill:#fff" transform="scale(.26458)"/><path d="M1600 241.55h-82.99" class="cls-3" style="fill:none;stroke:#fff;stroke-width:.86px;stroke-miterlimit:10" transform="scale(.26458)"/><path d="M1517.17 238.33c-1.78 0-3.22 1.44-3.22 3.22s1.44 3.22 3.22 3.22 3.22-1.44 3.22-3.22-1.44-3.22-3.22-3.22" class="cls-4" style="fill:#fff" transform="scale(.26458)"/><g transform="scale(.26458)"><path d="M1490.31 187.83h-135.87" class="cls-3" style="fill:none;stroke:#fff;stroke-width:.86px;stroke-miterlimit:10"/><circle cx="1354.6" cy="187.83" r="3.22" class="cls-4" style="fill:#fff" transform="rotate(-22.5 1354.597 187.838)"/></g><path d="M1349.35 244.73h34.55l20.84-33.46" class="cls-3" style="fill:none;stroke:#fff;stroke-width:.86px;stroke-miterlimit:10" transform="scale(.26458)"/><path d="M1349.51 247.95c-1.78 0-3.22-1.44-3.22-3.22s1.44-3.22 3.22-3.22 3.22 1.44 3.22 3.22-1.44 3.22-3.22 3.22" class="cls-4" style="fill:#fff" transform="scale(.26458)"/><path d="M1600 189.34h-85.83l-18.29-18.29h-79.78" class="cls-3" style="fill:none;stroke:#fff;stroke-width:.86px;stroke-miterlimit:10" transform="scale(.26458)"/><path d="M1416.26 167.83c-1.78 0-3.22 1.44-3.22 3.22s1.44 3.22 3.22 3.22 3.22-1.44 3.22-3.22-1.44-3.22-3.22-3.22" class="cls-4" style="fill:#fff" transform="scale(.26458)"/><path d="M1600 174.87h-71.61l-19.37-19.37-35.77.8" class="cls-3" style="fill:none;stroke:#fff;stroke-width:.86px;stroke-miterlimit:10" transform="scale(.26458)"/><path d="M1473.34 153.08a3.22 3.22 0 0 0-3.15 3.29 3.22 3.22 0 0 0 3.29 3.15 3.22 3.22 0 0 0 3.15-3.29 3.22 3.22 0 0 0-3.29-3.15" class="cls-4" style="fill:#fff" transform="scale(.26458)"/><path d="M1600 158.41h-52.82" class="cls-3" style="fill:none;stroke:#fff;stroke-width:.86px;stroke-miterlimit:10" transform="scale(.26458)"/><path d="M1547.34 155.19c-1.78 0-3.22 1.44-3.22 3.22s1.44 3.22 3.22 3.22 3.22-1.44 3.22-3.22-1.44-3.22-3.22-3.22" class="cls-4" style="fill:#fff" transform="scale(.26458)"/><path d="M1600 339.86h-52.82" class="cls-3" style="fill:none;stroke:#fff;stroke-width:.86px;stroke-miterlimit:10" transform="scale(.26458)"/><path d="M1547.34 336.64c-1.78 0-3.22 1.44-3.22 3.22s1.44 3.22 3.22 3.22 3.22-1.44 3.22-3.22-1.44-3.22-3.22-3.22" class="cls-4" style="fill:#fff" transform="scale(.26458)"/><path d="M1600 443.59h-52.82" class="cls-3" style="fill:none;stroke:#fff;stroke-width:.86px;stroke-miterlimit:10" transform="scale(.26458)"/><path d="M1547.34 440.37c-1.78 0-3.22 1.44-3.22 3.22s1.44 3.22 3.22 3.22 3.22-1.44 3.22-3.22-1.44-3.22-3.22-3.22" class="cls-4" style="fill:#fff" transform="scale(.26458)"/><path d="M1465.15 393.49h-32.81" class="cls-3" style="fill:none;stroke:#fff;stroke-width:.86px;stroke-miterlimit:10" transform="scale(.26458)"/><path d="M1432.5 390.27c-1.78 0-3.22 1.44-3.22 3.22s1.44 3.22 3.22 3.22 3.22-1.44 3.22-3.22-1.44-3.22-3.22-3.22" class="cls-4" style="fill:#fff" transform="scale(.26458)"/><path d="M1600 324.95h-125.55" class="cls-3" style="fill:none;stroke:#fff;stroke-width:.86px;stroke-miterlimit:10" transform="scale(.26458)"/><path d="M1474.61 321.73c-1.78 0-3.22 1.44-3.22 3.22s1.44 3.22 3.22 3.22 3.22-1.44 3.22-3.22-1.44-3.22-3.22-3.22" class="cls-4" style="fill:#fff" transform="scale(.26458)"/><g transform="scale(.26458)"><path d="M1600 399.91h-116.96l-9.25 9.25h-140.28" class="cls-3" style="fill:none;stroke:#fff;stroke-width:.86px;stroke-miterlimit:10"/><circle cx="1333.67" cy="409.16" r="3.22" class="cls-4" style="fill:#fff" transform="rotate(-13.28 1333.93 409.214)"/></g><path d="M1600 389.35h-86.05l-17.43-11.48h-101.07" class="cls-3" style="fill:none;stroke:#fff;stroke-width:.86px;stroke-miterlimit:10" transform="scale(.26458)"/><path d="M1395.61 374.65c-1.78 0-3.22 1.44-3.22 3.22s1.44 3.22 3.22 3.22 3.22-1.44 3.22-3.22-1.44-3.22-3.22-3.22" class="cls-4" style="fill:#fff" transform="scale(.26458)"/><path d="M1600 60.8h-44.46V26.86h-188.09" class="cls-3" style="fill:none;stroke:#fff;stroke-width:.86px;stroke-miterlimit:10" transform="scale(.26458)"/><path d="M1367.61 23.64c-1.78 0-3.22 1.44-3.22 3.22s1.44 3.22 3.22 3.22 3.22-1.44 3.22-3.22-1.44-3.22-3.22-3.22" class="cls-4" style="fill:#fff" transform="scale(.26458)"/><path d="M1600 39.87h-29.13V13.85h-72.11" class="cls-3" style="fill:none;stroke:#fff;stroke-width:.86px;stroke-miterlimit:10" transform="scale(.26458)"/><path d="M1498.92 10.63c-1.78 0-3.22 1.44-3.22 3.22s1.44 3.22 3.22 3.22 3.22-1.44 3.22-3.22-1.44-3.22-3.22-3.22" class="cls-4" style="fill:#fff" transform="scale(.26458)"/><path d="M1338.67 39.87h138.86l-21.62 21.62h-85.62" class="cls-3" style="fill:none;stroke:#fff;stroke-width:.86px;stroke-miterlimit:10" transform="scale(.26458)"/><path d="M1338.84 43.09c-1.78 0-3.22-1.44-3.22-3.22s1.44-3.22 3.22-3.22 3.22 1.44 3.22 3.22-1.44 3.22-3.22 3.22M1370.46 58.27c-1.78 0-3.22 1.44-3.22 3.22s1.44 3.22 3.22 3.22 3.22-1.44 3.22-3.22-1.44-3.22-3.22-3.22" class="cls-4" style="fill:#fff" transform="scale(.26458)"/><path d="M1347.08 93.8h131.54l35.33-35.33 23.9-1.1v-17.5h-30.34l-37.2 37.2h-82.26" class="cls-3" style="fill:none;stroke:#fff;stroke-width:.86px;stroke-miterlimit:10" transform="scale(.26458)"/><path d="M1347.25 97.02c-1.78 0-3.22-1.44-3.22-3.22s1.44-3.22 3.22-3.22 3.22 1.44 3.22 3.22-1.44 3.22-3.22 3.22M1388.21 73.85c-1.78 0-3.22 1.44-3.22 3.22s1.44 3.22 3.22 3.22 3.22-1.44 3.22-3.22-1.44-3.22-3.22-3.22" class="cls-4" style="fill:#fff" transform="scale(.26458)"/></g><g class="cls-5" style="opacity:.1"><path d="M1600 703.18h-94.31l-26.14-17.13h-37.72l-19.61 30.92h-107.79l-22.63-15.46h-64.07" class="cls-3" style="fill:none;stroke:#fff;stroke-width:.86px;stroke-miterlimit:10" transform="scale(.26458)"/><path d="M1227.89 698.29c-1.78 0-3.22 1.44-3.22 3.22s1.44 3.22 3.22 3.22 3.22-1.44 3.22-3.22-1.44-3.22-3.22-3.22" class="cls-4" style="fill:#fff" transform="scale(.26458)"/><path d="M1600 722.38h-94.75l-26.58-17.44-33.75.31-20.37 30.93h-110.12l-22.63-15.46h-98.76" class="cls-3" style="fill:none;stroke:#fff;stroke-width:.86px;stroke-miterlimit:10" transform="scale(.26458)"/><path d="M1193.2 717.5c-1.78 0-3.22 1.44-3.22 3.22s1.44 3.22 3.22 3.22 3.22-1.44 3.22-3.22-1.44-3.22-3.22-3.22" class="cls-4" style="fill:#fff" transform="scale(.26458)"/><path d="M1600 741.87h-94.75l-26.58-17.44-33.75.32-20.37 30.92h-107.06" class="cls-3" style="fill:none;stroke:#fff;stroke-width:.86px;stroke-miterlimit:10" transform="scale(.26458)"/><path d="M1317.65 752.45c-1.78 0-3.22 1.44-3.22 3.22s1.44 3.22 3.22 3.22 3.22-1.44 3.22-3.22-1.44-3.22-3.22-3.22" class="cls-4" style="fill:#fff" transform="scale(.26458)"/><path d="M1420.84 802.69h98.31l22.63 15.46H1600" class="cls-3" style="fill:none;stroke:#fff;stroke-width:.86px;stroke-miterlimit:10" transform="scale(.26458)"/><path d="M1421.03 806.39c-2.04 0-3.7-1.66-3.7-3.7s1.66-3.7 3.7-3.7 3.7 1.66 3.7 3.7-1.66 3.7-3.7 3.7" class="cls-4" style="fill:#fff" transform="scale(.26458)"/><path d="M1600 801.33h-58.22l-22.63-15.46h-101.83L1402.46 771h-51.08l-14.09 14.09h-50.84" class="cls-3" style="fill:none;stroke:#fff;stroke-width:.86px;stroke-miterlimit:10" transform="scale(.26458)"/><path d="M1286.63 781.39c-2.04 0-3.7 1.66-3.7 3.7s1.66 3.7 3.7 3.7 3.7-1.66 3.7-3.7-1.66-3.7-3.7-3.7" class="cls-4" style="fill:#fff" transform="scale(.26458)"/><path d="M1600 752.03h-137.88" class="cls-3" style="fill:none;stroke:#fff;stroke-width:.86px;stroke-miterlimit:10" transform="scale(.26458)"/><path d="M1462.28 748.81c-1.78 0-3.22 1.44-3.22 3.22s1.44 3.22 3.22 3.22 3.22-1.44 3.22-3.22-1.44-3.22-3.22-3.22" class="cls-4" style="fill:#fff" transform="scale(.26458)"/><path d="M1382.62 870.69h98.3l22.63-15.46H1600" class="cls-3" style="fill:none;stroke:#fff;stroke-width:.86px;stroke-miterlimit:10" transform="scale(.26458)"/><path d="M1382.8 874.39c-2.04 0-3.7-1.66-3.7-3.7s1.66-3.7 3.7-3.7 3.7 1.66 3.7 3.7-1.66 3.7-3.7 3.7" class="cls-4" style="fill:#fff" transform="scale(.26458)"/><path d="M1359.78 886.15h121.14l22.63-15.46H1600" class="cls-3" style="fill:none;stroke:#fff;stroke-width:.86px;stroke-miterlimit:10" transform="scale(.26458)"/><path d="M1359.96 889.86c-2.04 0-3.7-1.66-3.7-3.7s1.66-3.7 3.7-3.7 3.7 1.66 3.7 3.7-1.66 3.7-3.7 3.7" class="cls-4" style="fill:#fff" transform="scale(.26458)"/><path d="M1600 669.67h-163.21l-23.67 34.9" class="cls-3" style="fill:none;stroke:#fff;stroke-width:.86px;stroke-miterlimit:10" transform="scale(.26458)"/><path d="M1410.55 702.63a3.218 3.218 0 1 0 5.33 3.61 3.218 3.218 0 1 0-5.33-3.61" class="cls-4" style="fill:#fff" transform="scale(.26458)"/><path d="M1600 657.01h-175.62l-31.72 49.48h-54.06" class="cls-3" style="fill:none;stroke:#fff;stroke-width:.86px;stroke-miterlimit:10" transform="scale(.26458)"/><path d="M1338.76 703.27c-1.78 0-3.22 1.44-3.22 3.22s1.44 3.22 3.22 3.22 3.22-1.44 3.22-3.22-1.44-3.22-3.22-3.22" class="cls-4" style="fill:#fff" transform="scale(.26458)"/><g transform="scale(.26458)"><path d="M1600 643.8h-206.12l-17.02 25.87h-59.37" class="cls-3" style="fill:none;stroke:#fff;stroke-width:.86px;stroke-miterlimit:10"/><circle cx="1317.65" cy="669.67" r="3.22" class="cls-4" style="fill:#fff" transform="rotate(-9.22 1317.27 669.484)"/></g><path d="M1600 519.52h-80.47l-31.51 31.51h-108.1" class="cls-3" style="fill:none;stroke:#fff;stroke-width:.86px;stroke-miterlimit:10" transform="scale(.26458)"/><path d="M1380.08 547.81c-1.78 0-3.22 1.44-3.22 3.22s1.44 3.22 3.22 3.22 3.22-1.44 3.22-3.22-1.44-3.22-3.22-3.22" class="cls-4" style="fill:#fff" transform="scale(.26458)"/><path d="M1600 537.29h-80.47l-31.51 31.51h-88.56l-21.01 21.01h-87.37" class="cls-3" style="fill:none;stroke:#fff;stroke-width:.86px;stroke-miterlimit:10" transform="scale(.26458)"/><path d="M1291.24 586.59c-1.78 0-3.22 1.44-3.22 3.22s1.44 3.22 3.22 3.22 3.22-1.44 3.22-3.22-1.44-3.22-3.22-3.22" class="cls-4" style="fill:#fff" transform="scale(.26458)"/><path d="M1600 553.04h-75.32l-30.72 30.72h-80.92l-27.28 27.29-73.18-.52" class="cls-3" style="fill:none;stroke:#fff;stroke-width:.86px;stroke-miterlimit:10" transform="scale(.26458)"/><path d="M1312.76 607.31a3.22 3.22 0 0 0-3.24 3.2 3.22 3.22 0 0 0 3.2 3.24c1.78.01 3.23-1.42 3.24-3.2a3.22 3.22 0 0 0-3.2-3.24" class="cls-4" style="fill:#fff" transform="scale(.26458)"/><path d="M1600 568.4h-65.86" class="cls-3" style="fill:none;stroke:#fff;stroke-width:.86px;stroke-miterlimit:10" transform="scale(.26458)"/><path d="M1534.3 565.18c-1.78 0-3.22 1.44-3.22 3.22s1.44 3.22 3.22 3.22 3.22-1.44 3.22-3.22-1.44-3.22-3.22-3.22" class="cls-4" style="fill:#fff" transform="scale(.26458)"/><path d="M1600 585.62h-82.99" class="cls-3" style="fill:none;stroke:#fff;stroke-width:.86px;stroke-miterlimit:10" transform="scale(.26458)"/><path d="M1517.17 582.4c-1.78 0-3.22 1.44-3.22 3.22s1.44 3.22 3.22 3.22 3.22-1.44 3.22-3.22-1.44-3.22-3.22-3.22" class="cls-4" style="fill:#fff" transform="scale(.26458)"/><path d="M1600 684.12h-82.99" class="cls-3" style="fill:none;stroke:#fff;stroke-width:.86px;stroke-miterlimit:10" transform="scale(.26458)"/><path d="M1517.17 680.9c-1.78 0-3.22 1.44-3.22 3.22s1.44 3.22 3.22 3.22 3.22-1.44 3.22-3.22-1.44-3.22-3.22-3.22" class="cls-4" style="fill:#fff" transform="scale(.26458)"/><g transform="scale(.26458)"><path d="M1490.31 630.4h-135.87" class="cls-3" style="fill:none;stroke:#fff;stroke-width:.86px;stroke-miterlimit:10"/><circle cx="1354.6" cy="630.4" r="3.22" class="cls-4" style="fill:#fff" transform="rotate(-9.22 1354.196 630.271)"/></g><path d="M1349.35 687.3h34.55l20.84-33.46" class="cls-3" style="fill:none;stroke:#fff;stroke-width:.86px;stroke-miterlimit:10" transform="scale(.26458)"/><path d="M1349.51 690.52c-1.78 0-3.22-1.44-3.22-3.22s1.44-3.22 3.22-3.22 3.22 1.44 3.22 3.22-1.44 3.22-3.22 3.22" class="cls-4" style="fill:#fff" transform="scale(.26458)"/><path d="M1600 631.9h-85.83l-18.29-18.28h-79.78" class="cls-3" style="fill:none;stroke:#fff;stroke-width:.86px;stroke-miterlimit:10" transform="scale(.26458)"/><path d="M1416.26 610.4c-1.78 0-3.22 1.44-3.22 3.22s1.44 3.22 3.22 3.22 3.22-1.44 3.22-3.22-1.44-3.22-3.22-3.22" class="cls-4" style="fill:#fff" transform="scale(.26458)"/><path d="M1600 617.44h-71.61l-19.37-19.37-35.77.8" class="cls-3" style="fill:none;stroke:#fff;stroke-width:.86px;stroke-miterlimit:10" transform="scale(.26458)"/><path d="M1473.34 595.64a3.22 3.22 0 0 0-3.15 3.29 3.22 3.22 0 0 0 3.29 3.15 3.22 3.22 0 0 0 3.15-3.29 3.22 3.22 0 0 0-3.29-3.15" class="cls-4" style="fill:#fff" transform="scale(.26458)"/><path d="M1600 600.98h-52.82" class="cls-3" style="fill:none;stroke:#fff;stroke-width:.86px;stroke-miterlimit:10" transform="scale(.26458)"/><path d="M1547.34 597.76c-1.78 0-3.22 1.44-3.22 3.22s1.44 3.22 3.22 3.22 3.22-1.44 3.22-3.22-1.44-3.22-3.22-3.22" class="cls-4" style="fill:#fff" transform="scale(.26458)"/><path d="M1600 782.43h-52.82" class="cls-3" style="fill:none;stroke:#fff;stroke-width:.86px;stroke-miterlimit:10" transform="scale(.26458)"/><path d="M1547.34 779.21c-1.78 0-3.22 1.44-3.22 3.22s1.44 3.22 3.22 3.22 3.22-1.44 3.22-3.22-1.44-3.22-3.22-3.22" class="cls-4" style="fill:#fff" transform="scale(.26458)"/><path d="M1600 886.15h-52.82" class="cls-3" style="fill:none;stroke:#fff;stroke-width:.86px;stroke-miterlimit:10" transform="scale(.26458)"/><path d="M1547.34 882.93c-1.78 0-3.22 1.44-3.22 3.22s1.44 3.22 3.22 3.22 3.22-1.44 3.22-3.22-1.44-3.22-3.22-3.22" class="cls-4" style="fill:#fff" transform="scale(.26458)"/><path d="M1465.15 836.06h-32.81" class="cls-3" style="fill:none;stroke:#fff;stroke-width:.86px;stroke-miterlimit:10" transform="scale(.26458)"/><path d="M1432.5 832.84c-1.78 0-3.22 1.44-3.22 3.22s1.44 3.22 3.22 3.22 3.22-1.44 3.22-3.22-1.44-3.22-3.22-3.22" class="cls-4" style="fill:#fff" transform="scale(.26458)"/><path d="M1600 767.52h-125.55" class="cls-3" style="fill:none;stroke:#fff;stroke-width:.86px;stroke-miterlimit:10" transform="scale(.26458)"/><path d="M1474.61 764.3c-1.78 0-3.22 1.44-3.22 3.22s1.44 3.22 3.22 3.22 3.22-1.44 3.22-3.22-1.44-3.22-3.22-3.22" class="cls-4" style="fill:#fff" transform="scale(.26458)"/><path d="M1600 842.48h-116.96l-9.25 9.25h-140.28" class="cls-3" style="fill:none;stroke:#fff;stroke-width:.86px;stroke-miterlimit:10" transform="scale(.26458)"/><path d="M1333.67 848.51c-1.78 0-3.22 1.44-3.22 3.22s1.44 3.22 3.22 3.22 3.22-1.44 3.22-3.22-1.44-3.22-3.22-3.22" class="cls-4" style="fill:#fff" transform="scale(.26458)"/><path d="M1600 831.92h-86.05l-17.43-11.48h-101.07" class="cls-3" style="fill:none;stroke:#fff;stroke-width:.86px;stroke-miterlimit:10" transform="scale(.26458)"/><path d="M1395.61 817.22c-1.78 0-3.22 1.44-3.22 3.22s1.44 3.22 3.22 3.22 3.22-1.44 3.22-3.22-1.44-3.22-3.22-3.22" class="cls-4" style="fill:#fff" transform="scale(.26458)"/><path d="M1600 503.37h-44.46v-33.95h-188.09" class="cls-3" style="fill:none;stroke:#fff;stroke-width:.86px;stroke-miterlimit:10" transform="scale(.26458)"/><path d="M1367.61 466.2c-1.78 0-3.22 1.44-3.22 3.22s1.44 3.22 3.22 3.22 3.22-1.44 3.22-3.22-1.44-3.22-3.22-3.22" class="cls-4" style="fill:#fff" transform="scale(.26458)"/><path d="M1600 482.44h-29.13v-26.03h-72.11" class="cls-3" style="fill:none;stroke:#fff;stroke-width:.86px;stroke-miterlimit:10" transform="scale(.26458)"/><path d="M1498.92 453.19c-1.78 0-3.22 1.44-3.22 3.22s1.44 3.22 3.22 3.22 3.22-1.44 3.22-3.22-1.44-3.22-3.22-3.22" class="cls-4" style="fill:#fff" transform="scale(.26458)"/><path d="M1338.67 482.44h138.86l-21.62 21.61h-85.62" class="cls-3" style="fill:none;stroke:#fff;stroke-width:.86px;stroke-miterlimit:10" transform="scale(.26458)"/><path d="M1338.84 485.66c-1.78 0-3.22-1.44-3.22-3.22s1.44-3.22 3.22-3.22 3.22 1.44 3.22 3.22-1.44 3.22-3.22 3.22M1370.46 500.83c-1.78 0-3.22 1.44-3.22 3.22s1.44 3.22 3.22 3.22 3.22-1.44 3.22-3.22-1.44-3.22-3.22-3.22" class="cls-4" style="fill:#fff" transform="scale(.26458)"/><path d="M1347.08 536.37h131.54l35.33-35.33 23.9-1.1v-17.5h-30.34l-37.2 37.2h-82.26" class="cls-3" style="fill:none;stroke:#fff;stroke-width:.86px;stroke-miterlimit:10" transform="scale(.26458)"/><path d="M1347.25 539.59c-1.78 0-3.22-1.44-3.22-3.22s1.44-3.22 3.22-3.22 3.22 1.44 3.22 3.22-1.44 3.22-3.22 3.22M1388.21 516.42c-1.78 0-3.22 1.44-3.22 3.22s1.44 3.22 3.22 3.22 3.22-1.44 3.22-3.22-1.44-3.22-3.22-3.22" class="cls-4" style="fill:#fff" transform="scale(.26458)"/></g><g data-name="Layer 1"><path d="M41.81 842.29v18.89c0 1.2.64 2.32 1.68 2.92l16.35 9.44c1.04.6 2.33.6 3.37 0l16.35-9.44c1.04-.6 1.68-1.71 1.68-2.92v-18.89c0-1.2-.64-2.32-1.68-2.92l-16.35-9.44a3.38 3.38 0 0 0-3.37 0l-16.35 9.44c-1.03.6-1.68 1.71-1.68 2.92" class="cls-7" style="fill:#213147" transform="scale(.26458)"/><path d="m65.11 855.39-2.33 6.39c-.07.18-.07.37 0 .55l4.01 11 4.64-2.68-5.57-15.27a.4.4 0 0 0-.75 0zM69.78 844.63a.4.4 0 0 0-.75 0l-2.33 6.39c-.07.18-.07.37 0 .55l6.57 18.02 4.64-2.68z" class="cls-2" style="fill:#12aaff" transform="scale(.26458)"/><path d="M61.54 830.63q.18 0 .33.09l17.69 10.22c.21.12.33.33.33.57v20.43c0 .24-.13.45-.33.57l-17.69 10.23a.66.66 0 0 1-.66 0l-17.68-10.22a.64.64 0 0 1-.33-.57v-20.44c0-.24.13-.45.33-.57l17.69-10.22c.1-.06.22-.09.33-.09m-.01-2.98c-.63 0-1.26.17-1.82.49l-17.69 10.22a3.65 3.65 0 0 0-1.82 3.15v20.43c0 1.3.7 2.51 1.82 3.16l17.69 10.22c.56.33 1.19.49 1.82.49s1.26-.17 1.82-.49l17.69-10.22a3.63 3.63 0 0 0 1.82-3.16v-20.43c0-1.3-.7-2.51-1.82-3.16l-17.68-10.21c-.57-.33-1.2-.49-1.83-.49" class="cls-6" style="fill:#9dcced" transform="scale(.26458)"/><path d="m49.84 869.62 1.63-4.46 3.27 2.72-3.05 2.8z" class="cls-7" style="fill:#213147" transform="scale(.26458)"/><path d="M60.05 840.05h-4.48c-.33 0-.64.21-.75.52l-9.62 26.36 4.64 2.68 10.59-29.03c.09-.26-.1-.53-.38-.53M67.9 840.05h-4.48c-.33 0-.64.21-.75.52l-10.98 30.11 4.64 2.68 11.95-32.77c.1-.27-.1-.54-.37-.54zM101.98 845.54c.44 0 .83.09 1.13.28.31.19.61.54.91 1.07l5.85 10.62c.06.12.07.22.04.3s-.12.12-.26.12h-2.25c-.2 0-.33-.08-.4-.23l-1.25-2.28h-8.3l-1.22 2.28c-.08.16-.22.23-.4.23h-2.3c-.16 0-.25-.04-.28-.12s-.02-.18.04-.3l5.8-10.62c.3-.53.58-.89.87-1.07.29-.19.61-.28.99-.28zm-3.44 7.81h6.09l-2.81-5.18c-.05-.08-.11-.13-.2-.13h-.11c-.08 0-.15.04-.2.13l-2.78 5.18zM122.73 845.54c1.36 0 2.32.31 2.92.92s.89 1.52.89 2.72v1c0 1.01-.21 1.81-.62 2.4s-1.08.97-2.02 1.13l3.02 3.74c.06.06.08.15.05.27-.02.12-.12.18-.29.18h-2.28c-.16 0-.26-.02-.32-.05a.8.8 0 0 1-.18-.18l-2.8-3.67h-5.71v3.52c0 .26-.13.38-.38.38h-1.91c-.28 0-.4-.13-.4-.38v-11.45c0-.35.18-.53.53-.53zm-7.32 6.31h6.77c.6 0 1.02-.13 1.27-.38.25-.26.37-.65.37-1.18v-.74c0-.53-.13-.93-.37-1.18s-.67-.38-1.27-.38h-6.54c-.16 0-.23.07-.23.22v3.65zM141.32 845.54c1.21 0 2.08.25 2.59.73s.77 1.21.77 2.19v.85c0 .99-.37 1.73-1.13 2.25.81.47 1.22 1.23 1.22 2.28v1.02c0 .47-.05.9-.16 1.27s-.28.7-.52.97c-.25.27-.56.47-.97.61-.4.14-.9.22-1.49.22h-10.5c-.35 0-.53-.18-.53-.53v-11.31c0-.35.18-.53.53-.53h10.19zm-8.01 5.14h7.25q.885 0 1.2-.27c.21-.18.32-.43.32-.78v-.6c0-.36-.1-.63-.31-.81-.21-.17-.54-.26-1-.26h-7.23c-.16 0-.23.08-.23.23v2.48zm0 1.93v2.63c0 .16.08.23.23.23h7.25c.47 0 .81-.09 1-.26s.31-.44.31-.82v-.67c0-.36-.11-.64-.33-.83s-.62-.29-1.21-.29h-7.25zM151.36 845.54c.26 0 .38.13.38.38v11.6c0 .26-.13.38-.38.38h-1.91c-.28 0-.4-.13-.4-.38v-11.59c0-.26.14-.38.4-.38h1.91zM169.88 845.54c.28 0 .4.13.4.38v1.73c0 .28-.14.4-.4.4h-5.55v9.46c0 .26-.13.38-.38.38h-1.93c-.26 0-.38-.13-.38-.38v-9.46h-5.55c-.28 0-.4-.14-.4-.4v-1.73c0-.26.14-.38.4-.38zM183.86 845.54c1.36 0 2.32.31 2.92.92s.89 1.52.89 2.72v1c0 1.01-.21 1.81-.62 2.4s-1.08.97-2.02 1.13l3.02 3.74c.06.06.08.15.05.27-.02.12-.12.18-.29.18h-2.28c-.16 0-.26-.02-.32-.05a.8.8 0 0 1-.18-.18l-2.8-3.67h-5.71v3.52c0 .26-.13.38-.38.38h-1.91c-.28 0-.4-.13-.4-.38v-11.45c0-.35.18-.53.53-.53zm-7.31 6.31h6.77c.6 0 1.02-.13 1.27-.38.25-.26.37-.65.37-1.18v-.74c0-.53-.13-.93-.37-1.18s-.67-.38-1.27-.38h-6.54c-.16 0-.23.07-.23.22v3.65zM193.8 845.54c.26 0 .38.13.38.38v7.05c0 .47.04.87.12 1.17.08.32.21.56.38.74.18.19.41.32.72.38.31.08.68.12 1.14.12h4.9q.69 0 1.14-.12c.31-.08.54-.21.72-.38.18-.19.31-.43.37-.74.07-.32.11-.7.11-1.17v-7.05c0-.26.13-.38.38-.38h1.93c.26 0 .38.13.38.38v7.32c0 .85-.09 1.57-.27 2.17-.18.59-.46 1.07-.86 1.45-.39.37-.91.64-1.54.81s-1.39.25-2.29.25h-5.09c-.9 0-1.66-.08-2.28-.25s-1.13-.43-1.53-.81c-.39-.37-.68-.86-.87-1.45s-.28-1.32-.28-2.17v-7.32c0-.26.14-.38.4-.38h1.89zM214.08 845.54c.26 0 .48.02.67.05.19.04.35.1.49.21.14.1.27.24.38.4.11.17.23.39.34.68l3.67 8.48c.05.11.13.16.25.16h.22c.12 0 .2-.05.25-.16l3.67-8.48c.12-.29.24-.51.34-.68s.24-.31.38-.4c.14-.1.31-.17.48-.21.19-.04.4-.05.66-.05h1.89c.61 0 1.02.14 1.24.41s.32.75.32 1.42v10.15c0 .26-.14.38-.4.38h-1.8c-.26 0-.38-.13-.38-.38v-9.23c0-.12-.05-.18-.14-.18h-.16c-.12 0-.2.05-.23.14l-3.57 7.92c-.14.32-.29.59-.43.81s-.31.39-.47.54c-.17.14-.36.25-.58.31s-.47.09-.77.09h-.85c-.3 0-.55-.03-.77-.09a1.4 1.4 0 0 1-.58-.31 2.5 2.5 0 0 1-.47-.54c-.15-.22-.3-.48-.43-.81l-3.57-7.92c-.04-.1-.11-.14-.23-.14h-.16c-.1 0-.14.06-.14.18v9.23c0 .26-.13.38-.38.38h-1.8c-.28 0-.4-.13-.4-.38v-10.15c0-.67.11-1.14.32-1.42.22-.28.63-.41 1.25-.41h1.88z" class="cls-4" style="fill:#fff" transform="scale(.26458)"/></g></g>
  <g font-family="Inter, ui-sans-serif, system-ui, -apple-system, sans-serif" font-weight="600" text-anchor="middle">
  
  <!-- containers -->
  <rect x="60" y="70" width="690" height="720" rx="24" fill="#ffffff" fill-opacity="0.07" stroke="#9dcced" stroke-width="2"/>
  <rect x="878" y="250" width="667" height="480" rx="24" fill="#ffffff" fill-opacity="0.07" stroke="#9dcced" stroke-width="2"/>
  <text x="405" y="112" font-size="32" fill="#ffffff">L1 Ethereum</text>
  <text x="1180" y="300" font-size="32" fill="#ffffff">L2 Arbitrum</text>

  <!-- L1 flow -->
  <circle cx="405" cy="145" r="17" fill="#ffffff"/><path d="M379 192 a26 27 0 0 1 52 0 Z" fill="#ffffff"/>
  <rect x="298" y="214" width="214" height="58" rx="16" fill="#292d3e" />
  <text x="405" y="251" font-size="24" font-family="ui-monospace, SFMono-Regular, Menlo, monospace" xml:space="preserve"><tspan fill="#82aaff">depositEth</tspan><tspan fill="#c792ea">()</tspan></text>
  <rect x="298" y="300" width="214" height="58" rx="16" fill="#12aaff" />
  <text x="405" y="338" font-size="26" fill="#ffffff">Inbox contract</text>
  <rect x="232" y="386" width="346" height="58" rx="16" fill="#292d3e" />
  <text x="405" y="424" font-size="23" font-family="ui-monospace, SFMono-Regular, Menlo, monospace" xml:space="preserve"><tspan fill="#82aaff">enqueueDelayedMessage</tspan><tspan fill="#c792ea">()</tspan></text>
  <rect x="298" y="472" width="214" height="58" rx="16" fill="#12aaff" />
  <text x="405" y="510" font-size="26" fill="#ffffff">Bridge contract</text>

  <rect x="92" y="592" width="252" height="168" rx="16" fill="#e6007a" />
  <text x="218" font-size="20" fill="#ffffff" ><tspan x="218" y="653">Deposited funds are</tspan><tspan x="218" dy="28">escrowed in the</tspan><tspan x="218" dy="28">Bridge contract</tspan></text>
  <rect x="486" y="592" width="252" height="168" rx="16" fill="#e6007a" />
  <text x="612" font-size="20" fill="#ffffff" ><tspan x="612" y="624">Wait for the</tspan><tspan x="612" dy="26">transaction to be</tspan><tspan x="612" dy="26">justified on Ethereum,</tspan><tspan x="612" dy="26">meaning that 2</tspan><tspan x="612" dy="26">epochs have passed</tspan></text>

  <!-- L1 arrows -->
  <path d="M405 190 L405 212" fill="none" stroke="#ffffff" stroke-width="2" marker-end="url(#arrow)"/>
  <path d="M405 272 L405 298" fill="none" stroke="#ffffff" stroke-width="2" marker-end="url(#arrow)"/>
  <path d="M405 358 L405 384" fill="none" stroke="#ffffff" stroke-width="2" marker-end="url(#arrow)"/>
  <path d="M405 444 L405 470" fill="none" stroke="#ffffff" stroke-width="2" marker-end="url(#arrow)"/>
  <path d="M405 530 L405 558" fill="none" stroke="#ffffff" stroke-width="2"/>
  <path d="M218 560 L612 560" fill="none" stroke="#ffffff" stroke-width="2"/>
  <path d="M218 560 L218 590" fill="none" stroke="#ffffff" stroke-width="2" marker-end="url(#arrow)"/>
  <path d="M612 560 L612 590" fill="none" stroke="#ffffff" stroke-width="2" marker-end="url(#arrow)"/>

  <!-- L1 to L2 -->
  <path d="M752 430 L874 430" fill="none" stroke="#ffffff" stroke-width="2" marker-end="url(#arrow)"/>

  <!-- L2 flow -->
  <path d="M985 322 a45 13 0 0 1 90 0 v66 a45 13 0 0 1 -90 0 Z" fill="#292d3e"/>
  <ellipse cx="1030" cy="322" rx="45" ry="13" fill="#292d3e" stroke="#ffffff" stroke-width="2"/>
  <ellipse cx="1030" cy="344" rx="45" ry="13" fill="none" stroke="#ffffff" stroke-width="1.5" opacity="0.5"/>
  <text x="1030" y="380" font-size="22" fill="#ffffff">Node</text>

  <rect x="888" y="456" width="284" height="150" rx="16" fill="#12aaff" />
  <text x="1030" font-size="21" fill="#ffffff" ><tspan x="1030" y="496">Nodes pick up the</tspan><tspan x="1030" dy="26">transaction from the</tspan><tspan x="1030" dy="26">Bridge's emitted events</tspan><tspan x="1030" dy="26">and add it to a block</tspan></text>

  <rect x="1252" y="340" width="276" height="126" rx="16" fill="#12aaff" />
  <text x="1390" font-size="22" fill="#ffffff" ><tspan x="1390" y="380">Funds equal to the</tspan><tspan x="1390" dy="28">deposited amount are</tspan><tspan x="1390" dy="28">credited to the user</tspan></text>
  <circle cx="1390" cy="560" r="17" fill="#ffffff"/><path d="M1364 607 a26 27 0 0 1 52 0 Z" fill="#ffffff"/>

  <!-- L2 arrows -->
  <path d="M1030 402 L1030 454" fill="none" stroke="#ffffff" stroke-width="2" marker-end="url(#arrow)"/>
  <path d="M1390 466 L1390 538" fill="none" stroke="#ffffff" stroke-width="2" marker-end="url(#arrow)"/>

  </g>
</svg>
