<svg xmlns="http://www.w3.org/2000/svg" width="24" height="24" viewBox="0 0 24 24" fill="none">
  <path d="M13.2601 6.16892C16.6562 3.55477 19.62 2.34032 20.6388 3.35922C22.0178 4.73834 19.2701 9.72992 14.5053 14.5054C9.74055 19.2808 4.73906 22.0288 3.36005 20.6394C1.98104 19.25 4.72877 14.2687 9.49356 9.49321C9.82287 9.16387 10.1625 8.83452 10.4918 8.52577" stroke="black" stroke-width="0.93" stroke-miterlimit="10"/>
  <path d="M10.9143 15.8635C10.4409 15.4313 9.96751 14.9784 9.49411 14.505C4.71903 9.72956 1.97131 4.73797 3.36061 3.35886C4.73962 1.97974 9.73081 4.72768 14.5059 9.49284C19.281 14.258 22.0287 19.2599 20.6394 20.639C19.6309 21.6476 16.7185 20.464 13.3636 17.9116" stroke="black" stroke-width="0.93" stroke-miterlimit="10"/>
</svg>