<?xml version="1.0" encoding="UTF-8"?>
<svg xmlns="http://www.w3.org/2000/svg" viewBox="0 0 2667 1030">
  <defs>
    <style>
      .cls-1 {
        fill: #fff;
      }

      .cls-2 {
        fill: #e3066e;
      }

      .cls-3 {
        fill: #213147;
      }

      .cls-4 {
        fill: #1a1a1a;
      }
    </style>
  </defs>
  <g id="font">
    <g>
      <path class="cls-3" d="m1372.33,374.03c4.84,0,7.26,2.42,7.26,7.26v31.35c0,4.84-2.42,7.26-7.26,7.26h-165.33c-6.38,0-10.89,1.65-13.53,4.95-2.64,3.3-3.96,7.81-3.96,13.53v11.22c0,12.32,5.72,18.48,17.16,18.48h123.75c19.14,0,33.55,4.9,43.23,14.69,9.68,9.79,14.52,23.82,14.52,42.08v26.4c0,16.06-4.73,29.04-14.19,38.94-9.46,9.9-24.2,14.85-44.22,14.85h-182.82c-5.06,0-7.59-2.42-7.59-7.26v-31.35c0-4.84,2.53-7.26,7.59-7.26h173.25c6.38,0,10.89-1.65,13.53-4.95,2.64-3.3,3.96-7.81,3.96-13.53v-13.53c0-12.32-5.72-18.48-17.16-18.48h-123.75c-19.14,0-33.55-4.89-43.23-14.69-9.68-9.79-14.52-23.81-14.52-42.08v-24.09c0-16.06,4.73-29.04,14.19-38.94,9.46-9.9,24.2-14.85,44.22-14.85h174.9Z"/>
      <path class="cls-3" d="m1463.41,423.86v-43.56c0-4.84,2.42-7.26,7.26-7.26h32.67c4.84,0,7.26,2.42,7.26,7.26v43.56h57.75c3.96,0,5.94,1.98,5.94,5.94v27.06c0,3.96-1.98,5.94-5.94,5.94h-57.75v76.56c0,9.24,1.87,16,5.61,20.29,3.74,4.29,11.11,6.43,22.11,6.43h32.01c3.96,0,5.94,1.98,5.94,5.94v27.06c0,3.96-1.98,5.94-5.94,5.94h-39.93c-13.2,0-24.09-1.21-32.67-3.63-8.58-2.42-15.46-6.27-20.62-11.55-5.17-5.28-8.75-12.1-10.72-20.46-1.98-8.36-2.97-18.37-2.97-30.03v-76.56h-31.35c-3.96,0-5.94-1.98-5.94-5.94v-27.06c0-3.96,1.98-5.94,5.94-5.94h31.35Z"/>
      <path class="cls-3" d="m1858.09,423.86c2.42,0,4.01.82,4.79,2.48.77,1.65.6,3.58-.5,5.77l-126.72,223.41c-4.4,7.7-10.62,13.36-18.65,16.99-8.03,3.63-19.2,5.45-33.49,5.45h-23.1c-3.96,0-5.94-1.98-5.94-5.94v-27.06c0-3.96,1.98-5.94,5.94-5.94h19.47c8.36,0,13.97-2.53,16.83-7.59l17.82-31.35c-5.5-.44-9.73-1.76-12.71-3.96-2.97-2.2-5.78-5.61-8.42-10.23l-89.1-153.78c-1.1-2.2-1.27-4.12-.49-5.77.77-1.65,2.36-2.48,4.79-2.48h37.95c3.74,0,6.38,1.54,7.92,4.62l73.26,127.05c1.76,3.08,3.14,5.12,4.12,6.1s2.25,1.49,3.8,1.49l77.55-134.64c1.54-3.08,4.18-4.62,7.92-4.62h36.96Z"/>
      <path class="cls-3" d="m1942.57,357.53c4.84,0,7.26,2.42,7.26,7.26v232.98c0,4.84-2.42,7.26-7.26,7.26h-32.34c-4.84,0-7.26-2.42-7.26-7.26v-232.98c0-4.84,2.42-7.26,7.26-7.26h32.34Z"/>
      <path class="cls-3" d="m2047.17,423.86c4.84,0,7.26,2.53,7.26,7.59v95.37c0,7.04.44,12.87,1.32,17.49.88,4.62,2.53,8.31,4.95,11.06,2.42,2.75,5.83,4.73,10.23,5.94,4.4,1.21,10.23,1.82,17.49,1.82h84.81c7.26,0,13.2-.6,17.82-1.82,4.62-1.21,8.3-3.19,11.05-5.94s4.67-6.44,5.78-11.06c1.1-4.62,1.65-10.45,1.65-17.49v-95.37c0-5.06,2.42-7.59,7.26-7.59h32.34c4.84,0,7.26,2.53,7.26,7.59v106.92c0,11.88-1.32,22.06-3.96,30.53-2.64,8.47-6.99,15.4-13.04,20.79-6.05,5.39-14.14,9.3-24.26,11.72-10.12,2.42-22.55,3.63-37.29,3.63h-92.07c-14.96,0-27.45-1.21-37.46-3.63-10.01-2.42-18.04-6.32-24.09-11.72-6.05-5.39-10.4-12.32-13.04-20.79-2.64-8.47-3.96-18.65-3.96-30.53v-106.92c0-5.06,2.53-7.59,7.59-7.59h32.34Z"/>
      <path class="cls-3" d="m2522.7,423.86c3.96,0,5.94,1.98,5.94,5.94v26.4c0,3.96-1.98,5.94-5.94,5.94h-148.83c-6.82,0-11.55,1.27-14.19,3.79-2.64,2.53-3.96,6.22-3.96,11.06v4.95c0,4.4,1.32,7.87,3.96,10.4,2.64,2.53,7.37,3.79,14.19,3.79h111.21c18.48,0,31.68,3.85,39.6,11.55,7.92,7.7,11.88,18.59,11.88,32.67v18.48c0,7.26-.88,13.75-2.64,19.47-1.76,5.72-4.68,10.56-8.75,14.52-4.07,3.96-9.41,6.99-16,9.08-6.6,2.09-14.74,3.13-24.42,3.13h-168.96c-3.96,0-5.94-1.98-5.94-5.94v-26.4c0-3.96,1.98-5.94,5.94-5.94h156.42c6.82,0,11.6-1.21,14.35-3.63,2.75-2.42,4.12-6.49,4.12-12.21v-8.91c0-4.4-1.38-7.81-4.12-10.23-2.75-2.42-7.54-3.63-14.35-3.63h-110.88c-18.48,0-31.68-3.79-39.6-11.38-7.92-7.59-11.88-18.65-11.88-33.17v-14.52c0-6.82.88-13.04,2.64-18.65,1.76-5.61,4.67-10.4,8.74-14.35,4.07-3.96,9.41-6.98,16.01-9.08,6.6-2.09,14.74-3.13,24.42-3.13h161.04Z"/>
    </g>
  </g>
  <g id="icon">
    <g>
      <g>
        <path class="cls-4" d="m396.07,589.39l90.69,27.87-41.01,41.01-3.73,3.73-62.36-19.11c-59.24-18.18-103.51-64.92-118.47-125.04-14.96-60.12,2.24-122.15,46.05-165.96l244.44-244.54c.75.33,1.49.7,2.19,1.12.75.37,1.49.79,2.19,1.17,1.26.65,2.47,1.4,3.73,2.1,1.21.7,2.42,1.44,3.64,2.24.98.61,1.91,1.21,2.84,1.86.93.61,1.86,1.26,2.8,1.96.89.61,1.72,1.26,2.56,1.91.75.51,1.49,1.12,2.19,1.72.65.47,1.26.98,1.86,1.54.09.05.19.09.28.19,2.8,2.33,5.45,4.75,8.06,7.36l11.84,11.84-249.1,249.06c-29.78,29.83-41.48,72-31.32,112.92,10.16,40.92,40.31,72.7,80.63,85.05Z"/>
        <path class="cls-4" d="m422.77,507.46l137.11,36.68-45.67,45.67-105.89-28.34c-30.15-8.02-52.94-30.81-61.05-60.96-8.06-30.15.28-61.29,22.32-83.33l250.55-250.55,39.57,39.57-250.55,250.5c-3.08,3.12-5.41,6.66-6.94,10.58-2.28,5.97-2.61,12.44-.93,18.78.33,1.26.75,2.47,1.26,3.64,3.59,8.76,10.91,15.29,20.23,17.76Z"/>
        <path class="cls-1" d="m688.38,648.67l-244.49,244.54-34.25,34.25c-11.14-6.8-21.53-15.01-30.99-24.47l-11.84-11.84,32.95-32.95,249.1-249.06c29.83-29.83,41.53-72.05,31.32-112.92-10.21-40.92-40.31-72.7-80.63-85.05l-90.65-27.82,3.73-3.73,41.01-41.01,62.36,19.11c59.23,18.18,103.51,64.92,118.47,125.04,14.91,60.12-2.28,122.15-46.09,165.91Z"/>
        <path class="cls-1" d="m626.02,583.43l-250.5,250.55-32.95,32.95-39.57-39.57,32.95-32.95,250.55-250.5c3.12-3.17,5.45-6.71,6.9-10.63,2.28-5.97,2.61-12.44.93-18.74-.33-1.26-.75-2.47-1.21-3.64-3.54-8.76-10.91-15.29-20.27-17.8l-137.07-36.63,3.82-3.82,38.03-38.03,3.82-3.82,105.84,28.24c30.15,8.11,52.94,30.9,61.05,61.01,8.06,30.15-.28,61.33-22.32,83.38Z"/>
        <path class="cls-3" d="m903.27,500.28c0,32.58-12.68,63.2-35.7,86.22l-283.55,283.55c-23.02,23.02-53.64,35.7-86.22,35.7-1.91,0-3.82-.05-5.69-.14h-.56c-1.49-.09-2.94-.19-4.38-.33-.51-.05-.98-.09-1.49-.14-1.44-.14-2.84-.28-4.29-.51-.23,0-.47-.05-.7-.09-.61-.05-1.26-.14-1.91-.23-1.63-.28-3.22-.56-4.8-.84-.23-.09-.47-.14-.65-.14-1.44-.33-2.89-.65-4.29-.98-1.35-.33-2.7-.65-4.05-1.07-.93-.23-1.82-.51-2.7-.75-1.58-.47-3.17-.98-4.71-1.54-.47-.19-.93-.33-1.4-.51-.14-.05-.23-.09-.37-.14-1.35-.47-2.66-.98-3.96-1.54-.56-.19-1.12-.47-1.68-.7-1.91-.84-3.82-1.68-5.73-2.61-.19-.09-.37-.19-.56-.28l244.49-244.54c43.81-43.76,61.01-105.79,46.09-165.91-14.96-60.12-59.24-106.87-118.47-125.04l-62.36-19.11-41.01,41.01-3.73,3.73,90.65,27.82c40.31,12.35,70.42,44.13,80.63,85.05,10.21,40.87-1.49,83.1-31.32,112.92l-249.1,249.06-32.95,32.95-24.23-24.23,32.95-32.95,250.5-250.55c22.04-22.04,30.39-53.22,22.32-83.38-8.11-30.11-30.9-52.9-61.05-61.01l-105.84-28.24-3.82,3.82-38.03,38.03-3.82,3.82,137.07,36.63c9.37,2.52,16.73,9.04,20.27,17.8.47,1.17.89,2.38,1.21,3.64,1.68,6.29,1.35,12.77-.93,18.74-1.44,3.91-3.78,7.46-6.9,10.63l-250.55,250.5-207.91-207.91c-23.02-23.02-35.7-53.64-35.7-86.22s12.68-63.2,35.7-86.22L411.59,130.52c23.02-23.02,53.64-35.7,86.22-35.7,1.91,0,3.82.05,5.69.14h.56c1.96.09,3.91.28,5.87.47,1.58.14,3.17.33,4.71.56.28,0,.51.05.75.09.61.05,1.17.14,1.72.23,1.49.23,2.94.51,4.38.79.28.05.51.09.79.14,1.44.33,2.84.65,4.29.98,1.35.33,2.7.65,4.05,1.07.7.19,1.44.37,2.14.61,1.07.33,2.14.65,3.22,1.03,2.1.7,4.24,1.44,6.29,2.28,1.07.33,2.1.75,3.12,1.26,1.07.42,2.14.89,3.17,1.4,1.07.47,2.1.98,3.12,1.49l-244.44,244.54c-43.81,43.81-61.01,105.84-46.05,165.96,14.96,60.12,59.23,106.87,118.47,125.04l62.36,19.11,3.73-3.73,41.01-41.01-90.69-27.87c-40.31-12.35-70.47-44.14-80.63-85.05-10.16-40.92,1.54-83.1,31.32-112.92l249.1-249.06,24.28,24.28-250.55,250.55c-22.04,22.04-30.39,53.18-22.32,83.33,8.11,30.15,30.9,52.94,61.05,60.96l105.89,28.34,45.67-45.67-137.11-36.68c-9.32-2.47-16.64-8.99-20.23-17.76-.51-1.17-.93-2.38-1.26-3.64-1.68-6.34-1.35-12.82.93-18.78,1.54-3.91,3.87-7.46,6.94-10.58l250.55-250.5,207.86,207.86c23.02,23.02,35.7,53.64,35.7,86.22Z"/>
      </g>
      <path class="cls-2" d="m900.52,381.07l-207.86-207.86-39.57-39.57-36.07-36.07c-9.46-9.46-19.9-17.66-31.04-24.47-26.24-16.22-56.53-24.89-88.18-24.89-45.02,0-87.34,17.52-119.17,49.35L95.09,381.07c-31.83,31.88-49.35,74.2-49.35,119.22s17.52,87.34,49.35,119.22l207.91,207.86,32.95-32.95-207.91-207.91c-23.02-23.02-35.7-53.64-35.7-86.22s12.68-63.2,35.7-86.22L411.59,130.52c23.02-23.02,53.64-35.7,86.22-35.7,1.91,0,3.82.05,5.69.14h.56c1.96.09,3.91.28,5.87.47,1.58.14,3.17.33,4.71.56.28,0,.51.05.75.09.61.05,1.17.14,1.72.23,1.49.23,2.94.51,4.38.79.28.05.51.09.79.14,1.44.33,2.84.65,4.29.98,1.35.33,2.7.65,4.05,1.07.7.19,1.44.37,2.14.61,1.07.33,2.14.65,3.22,1.03,2.1.7,4.24,1.44,6.29,2.28,1.07.33,2.1.75,3.12,1.26,1.07.42,2.14.89,3.17,1.4,1.07.47,2.1.98,3.12,1.49.1.05.21.1.31.15h0c-.1-.05-.21-.1-.31-.15l-244.44,244.54c-43.81,43.81-61.01,105.84-46.05,165.96,14.96,60.12,59.23,106.87,118.47,125.04l62.36,19.11,3.73-3.73,41.01-41.01-90.69-27.87c-40.31-12.35-70.47-44.14-80.63-85.05-10.16-40.92,1.54-83.1,31.32-112.92l249.1-249.06-.33-.33h0l24.61,24.61h0l-250.55,250.55c-22.04,22.04-30.39,53.18-22.32,83.33,8.11,30.15,30.9,52.94,61.05,60.96l105.89,28.34,45.67-45.67-137.11-36.68c-9.32-2.47-16.64-8.99-20.23-17.76-.51-1.17-.93-2.38-1.26-3.64-1.68-6.34-1.35-12.82.93-18.78,1.54-3.91,3.87-7.46,6.94-10.58l250.55-250.5-.14-.14.14.14,207.86,207.86c23.02,23.02,35.7,53.64,35.7,86.22s-12.68,63.2-35.7,86.22l-283.55,283.55c-23.02,23.02-53.64,35.7-86.22,35.7-1.91,0-3.82-.05-5.69-.14h-.56c-1.49-.09-2.94-.19-4.38-.33-.51-.05-.98-.09-1.49-.14-1.44-.14-2.84-.28-4.29-.51-.23,0-.47-.05-.7-.09-.61-.05-1.26-.14-1.91-.23-1.63-.28-3.22-.56-4.8-.84-.23-.09-.47-.14-.65-.14-1.44-.33-2.89-.65-4.29-.98-1.35-.33-2.7-.65-4.05-1.07-.93-.23-1.82-.51-2.7-.75-1.58-.47-3.17-.98-4.71-1.54-.47-.19-.93-.33-1.4-.51-.14-.05-.23-.09-.37-.14-1.35-.47-2.66-.98-3.96-1.54-.56-.19-1.12-.47-1.68-.7-1.91-.84-3.82-1.68-5.73-2.61-.19-.09-.37-.19-.56-.28l-34.25,34.25c26.24,16.22,56.53,24.89,88.18,24.89,45.02,0,87.34-17.52,119.22-49.35l283.5-283.5c31.83-31.88,49.35-74.2,49.35-119.22s-17.52-87.34-49.35-119.22Z"/>
    </g>
  </g>
</svg>