<?xml version="1.0" encoding="iso-8859-1"?>
<!-- Generator: Adobe Illustrator 19.1.0, SVG Export Plug-In . SVG Version: 6.00 Build 0)  -->
<svg version="1.1" id="Capa_1" xmlns="http://www.w3.org/2000/svg" xmlns:xlink="http://www.w3.org/1999/xlink" x="0px" y="0px"
	 viewBox="0 0 410.666 410.666" style="enable-background:new 0 0 410.666 410.666;" xml:space="preserve">
<g>
	<g>
		<path style="fill:#80362D;" d="M301.834,115.1l-86.367,148.113l32.902,6.58C291.964,260.51,328.43,203.112,301.834,115.1z"/>
	</g>
	<g>
		<path style="fill:#80362D;" d="M108.832,115.1l86.367,148.113l-32.902,6.58C118.702,260.51,82.236,203.112,108.832,115.1z"/>
	</g>
	<g>
		<path style="fill:#FFD7A3;" d="M251.753,232.52h-0.358v-15.37h-92.124v15.354c0,15.042-0.063,31.392-13.161,41.282v52.56
			c0,0,90.234,0,118.446,0v-52.79C251.794,263.642,251.753,247.433,251.753,232.52z"/>
	</g>
	<g>
		<path style="fill:#FDC88E;" d="M257.975,302.695c2.401,0.655,4.563,1.004,6.58,1.174v-30.312
			c-12.762-9.915-12.803-26.124-12.803-41.037h0.029v-15.37h-72.771l-19.741,6.58C172.431,238.536,212.736,290.356,257.975,302.695z
			"/>
	</g>
	<g>
		<path style="fill:#FFE1B2;" d="M297.457,131.606c0,52.696-52.408,118.446-92.124,118.446s-92.124-65.75-92.124-118.446
			s41.246-72.384,92.124-72.384S297.457,78.91,297.457,131.606z"/>
	</g>
	<g>
		<path style="fill:#80362D;" d="M218.494,26.321c-3.697,0-15.701,4.154-25.512,7.794l-0.809-1.214c0,0-1.354,1.064-3.698,2.908
			c-5.457,2.072-9.462,3.672-9.462,3.672l1.539,2.566c-24.976,19.678-65.783,71.274-70.907,76.398
			c-6.58,6.58,14.861,170.593,23.256,75.463c6.082-68.919,50.957-84.739,92.174-94.437c18.644-4.387,17.548-29.282,19.741-40.249
			C247.008,48.255,225.074,26.321,218.494,26.321z"/>
	</g>
	<g>
		<path style="fill:#80362D;" d="M231.654,67.118c12.064,43.32,37.288,91.028,61.203,93.373c12.729,1.248,5.834-62.459,5.834-62.459
			s-18.233-32.559-20.426-33.656c-2.193-1.097-18.644-13.38-18.644-13.38l-34.547-4.934L231.654,67.118z"/>
	</g>
	<g>
		<path style="fill:#FFE1B2;" d="M287.657,137.691c10.767-2.468,17.821,2.805,17.821,13.161c0,13.709-14.479,47.296-29.701,26.321
			L287.657,137.691z"/>
	</g>
	<g>
		<path style="fill:#FFBE1E;" d="M284.297,36.996V26.332c0-3.64-2.951-6.591-6.591-6.591h-6.559c-1.687,0-3.189,0.682-4.354,1.724
			c-13.296-8.392-29.641-12.953-48.299-14.35V6.591c0-3.64-2.951-6.591-6.591-6.591h-13.139c-3.64,0-6.591,2.951-6.591,6.591v0.524
			c-18.776,1.41-35.062,6.028-48.272,14.368c-1.169-1.055-2.683-1.742-4.382-1.742h-6.559c-3.64,0-6.591,2.951-6.591,6.591v10.676
			c-12.659,15.711-19.741,38.002-19.741,68.278v13.161h197.41v-13.161C304.038,74.828,296.878,52.613,284.297,36.996z"/>
	</g>
	<g>
		<path style="fill:#FC9B28;" d="M205.333,92.124c-42.13,0-105.179,11.784-105.179,26.321h210.359
			C310.512,103.909,247.463,92.124,205.333,92.124z"/>
	</g>
	<g>
		<path style="fill:#FFBE1E;" d="M304.038,282.35h-2.193c-24.835,0-37.334-6.563-43.732-15.991
			c-6.408,17.985-27.58,31.208-52.779,31.208s-46.371-13.222-52.779-31.208c-6.398,9.427-18.897,15.991-43.732,15.991h-2.193
			c-39.976,0-72.384,32.407-72.384,72.384v36.192c0,10.902,8.838,19.741,19.741,19.741H356.68c10.903,0,19.741-8.839,19.741-19.741
			v-36.192C376.421,314.757,344.014,282.35,304.038,282.35z"/>
	</g>
	<g>
		<path style="fill:#4F6E8D;" d="M93.467,410.666h223.731V283.602c-4.274-0.786-8.66-1.253-13.161-1.253h-2.193
			c-4.004,0-7.579-0.227-10.967-0.553v70.015c0,3.012-1.999,5.675-4.923,6.395c-22.275,5.486-50.216,8.77-80.621,8.77
			s-58.346-3.284-80.621-8.77c-2.925-0.72-4.923-3.383-4.923-6.395v-70.015c-3.389,0.326-6.963,0.553-10.967,0.553h-2.193
			c-4.501,0-8.887,0.467-13.161,1.253V410.666z"/>
	</g>
</g>
<g>
</g>
<g>
</g>
<g>
</g>
<g>
</g>
<g>
</g>
<g>
</g>
<g>
</g>
<g>
</g>
<g>
</g>
<g>
</g>
<g>
</g>
<g>
</g>
<g>
</g>
<g>
</g>
<g>
</g>
</svg>
