<svg xmlns="http://www.w3.org/2000/svg" width="21" height="24" viewBox="0 0 21 24" fill="none">
  <g clip-path="url(#clip0_1408_816)">
    <path d="M12.2603 13.6953L11.1114 16.8516C11.0775 16.9391 11.0775 17.0364 11.1114 17.1239L13.0844 22.5563L15.3676 21.2334L12.6287 13.6953C12.5657 13.5202 12.3233 13.5202 12.2603 13.6953Z" fill="black"/>
    <path d="M14.5584 8.38448C14.4954 8.2094 14.253 8.2094 14.19 8.38448L13.0411 11.5408C13.0071 11.6283 13.0071 11.7256 13.0411 11.8131L16.2745 20.7082L18.5577 19.3854L14.5584 8.38448Z" fill="black"/>
    <path d="M10.5 1.47359C10.5582 1.47359 10.6115 1.48818 10.6648 1.51736L19.3712 6.56064C19.473 6.619 19.536 6.726 19.536 6.84272V16.9293C19.536 17.046 19.473 17.153 19.3712 17.2114L10.6648 22.2595C10.6163 22.2887 10.5582 22.3033 10.5 22.3033C10.4418 22.3033 10.3885 22.2887 10.3352 22.2595L1.63366 17.2162C1.53186 17.1579 1.46884 17.0509 1.46884 16.9341V6.84272C1.46884 6.726 1.53186 6.619 1.63366 6.56064L10.34 1.51736C10.3885 1.48818 10.4467 1.47359 10.5 1.47359ZM10.5 0C10.1898 0 9.8795 0.0826767 9.60319 0.243167L0.896814 5.28645C0.344183 5.60743 0 6.20076 0 6.84272V16.9293C0 17.5712 0.344183 18.1694 0.896814 18.4904L9.60319 23.5337C9.8795 23.6942 10.1898 23.7769 10.5 23.7769C10.8102 23.7769 11.1205 23.6942 11.3968 23.5337L20.1032 18.4904C20.6607 18.1694 21 17.5761 21 16.9293V6.84272C21 6.20076 20.6558 5.60257 20.1032 5.28158L11.4017 0.243167C11.1205 0.0826767 10.8102 0 10.5 0Z" fill="black"/>
    <path d="M4.74609 20.7178L5.54596 18.5195L7.15537 19.8618L5.6526 21.243L4.74609 20.7178Z" fill="black"/>
    <path d="M9.76829 6.12305H7.56261C7.39779 6.12305 7.24752 6.22518 7.19419 6.3808L2.46289 19.3951L4.74613 20.7179L9.95735 6.38567C10.001 6.25922 9.90887 6.12305 9.76829 6.12305Z" fill="black"/>
    <path d="M13.6316 6.12305H11.4259C11.2611 6.12305 11.1108 6.22518 11.0575 6.3808L5.65234 21.2432L7.93558 22.566L13.8158 6.39053C13.8643 6.25922 13.7673 6.12305 13.6316 6.12305Z" fill="black"/>
  </g>
  <defs>
    <clipPath id="clip0_1408_816">
      <rect width="21" height="23.7769" fill="white"/>
    </clipPath>
  </defs>
</svg>