<svg class="svg-icon" style="width: 1em; height: 1em;vertical-align: middle;fill: currentColor;overflow: hidden;" viewBox="0 0 1024 1024" version="1.1" xmlns="http://www.w3.org/2000/svg"><path d="M161.402923 603.283507V309.979123a6.840919 6.840919 0 0 1 3.420459-5.985804l241.997495-144.941962A128.267223 128.267223 0 0 1 383.732777 85.511482a63.278497 63.278497 0 0 1 0-8.978705L91.283507 252.68643a12.826722 12.826722 0 0 0-6.840918 11.54405v342.045929A118.433403 118.433403 0 0 1 127.19833 598.580376a128.267223 128.267223 0 0 1 34.204593 4.703131zM776.658038 769.60334l-261.237579 156.91357a6.413361 6.413361 0 0 1-6.840918 0L247.341962 769.60334a128.267223 128.267223 0 0 1-52.589561 64.561169l310.40668 185.987474a13.25428 13.25428 0 0 0 13.681838 0l310.40668-185.987474A128.267223 128.267223 0 0 1 776.658038 769.60334zM859.176618 303.993319a6.840919 6.840919 0 0 1 3.420459 5.985804v293.304384A128.267223 128.267223 0 0 1 896.80167 598.580376a118.433403 118.433403 0 0 1 42.755741 7.696033v-342.045929a12.826722 12.826722 0 0 0-6.840918-11.54405L640.267223 76.532777A63.278497 63.278497 0 0 1 640.267223 85.511482a128.267223 128.267223 0 0 1-23.0881 73.539875z"  /><path d="M512 85.511482m-85.511482 0a85.511482 85.511482 0 1 0 171.022964 0 85.511482 85.511482 0 1 0-171.022964 0Z"  /><path d="M212.709812 726.847599a85.511482 85.511482 0 0 0-51.306889-78.243006A85.511482 85.511482 0 0 0 41.686848 726.847599a85.511482 85.511482 0 0 0 85.511482 85.511482 81.663466 81.663466 0 0 0 23.0881-3.420459 85.511482 85.511482 0 0 0 59.43048-59.858037A75.677662 75.677662 0 0 0 212.709812 726.847599zM939.557411 652.880167A85.511482 85.511482 0 0 0 811.290188 726.847599a75.677662 75.677662 0 0 0 2.992902 22.232986 85.511482 85.511482 0 0 0 59.43048 59.858037A81.663466 81.663466 0 0 0 896.80167 812.359081a85.511482 85.511482 0 0 0 42.755741-159.478914z"  /></svg>