<?xml version="1.0" encoding="iso-8859-1"?>
<!-- Uploaded to: SVG Repo, www.svgrepo.com, Generator: SVG Repo Mixer Tools -->
<svg height="800px" width="800px" version="1.1" id="Layer_1" xmlns="http://www.w3.org/2000/svg" xmlns:xlink="http://www.w3.org/1999/xlink" 
	 viewBox="0 0 512.001 512.001" xml:space="preserve">
<path style="fill:#578CAD;" d="M256.001,129.438c-69.787,0-126.563,56.775-126.563,126.563s56.775,126.563,126.563,126.563
	s126.563-56.775,126.563-126.563S325.787,129.438,256.001,129.438z"/>
<path style="opacity:0.1;fill:#231F20;enable-background:new    ;" d="M153.487,256.001c0-65.731,50.37-119.911,114.538-125.988
	c-3.96-0.375-7.969-0.574-12.024-0.574c-69.787,0-126.563,56.775-126.563,126.563s56.775,126.563,126.563,126.563
	c4.055,0,8.065-0.2,12.024-0.574C203.858,375.912,153.487,321.731,153.487,256.001z"/>
<path style="fill:#90C8EC;" d="M409.503,317.662c0.076-0.188,0.146-0.379,0.221-0.566c0.217-0.546,0.428-1.096,0.64-1.645
	c0.263-0.679,0.523-1.359,0.779-2.042c0.208-0.562,0.41-1.126,0.612-1.691c0.243-0.678,0.486-1.357,0.72-2.04
	c0.197-0.572,0.388-1.148,0.579-1.724c0.226-0.681,0.45-1.364,0.667-2.049c0.184-0.583,0.363-1.166,0.543-1.751
	c0.209-0.686,0.414-1.374,0.614-2.063c0.171-0.59,0.339-1.181,0.504-1.774c0.193-0.691,0.38-1.382,0.562-2.077
	c0.159-0.597,0.313-1.195,0.465-1.794c0.175-0.695,0.345-1.395,0.513-2.096c0.144-0.604,0.287-1.207,0.424-1.814
	c0.158-0.701,0.31-1.405,0.461-2.109c0.129-0.61,0.257-1.219,0.381-1.83c0.143-0.708,0.277-1.421,0.41-2.134
	c0.116-0.612,0.23-1.225,0.339-1.84c0.125-0.718,0.243-1.439,0.359-2.16c0.1-0.613,0.2-1.228,0.292-1.843
	c0.11-0.733,0.209-1.469,0.31-2.205c0.082-0.609,0.168-1.215,0.244-1.826c0.094-0.754,0.176-1.512,0.261-2.27
	c0.066-0.597,0.136-1.194,0.197-1.793c0.077-0.779,0.142-1.56,0.208-2.342c0.05-0.584,0.105-1.166,0.149-1.752
	c0.062-0.822,0.108-1.648,0.158-2.474c0.032-0.548,0.072-1.094,0.101-1.642c0.045-0.925,0.074-1.853,0.106-2.78
	c0.015-0.455,0.038-0.91,0.05-1.366c0.035-1.386,0.053-2.777,0.053-4.171c0-91.213-74.208-165.421-165.421-165.421
	S90.583,164.786,90.583,256c0,1.394,0.018,2.785,0.053,4.171c0.012,0.456,0.035,0.911,0.05,1.366
	c0.031,0.927,0.061,1.856,0.106,2.78c0.027,0.549,0.068,1.095,0.101,1.642c0.05,0.825,0.096,1.652,0.158,2.474
	c0.044,0.588,0.1,1.174,0.15,1.761c0.066,0.778,0.13,1.555,0.207,2.33c0.061,0.604,0.131,1.202,0.198,1.803
	c0.083,0.755,0.165,1.512,0.26,2.264c0.076,0.611,0.161,1.217,0.243,1.826c0.102,0.737,0.201,1.472,0.31,2.205
	c0.092,0.615,0.193,1.23,0.292,1.843c0.116,0.721,0.234,1.442,0.359,2.16c0.108,0.614,0.223,1.228,0.339,1.84
	c0.133,0.713,0.267,1.424,0.41,2.134c0.122,0.611,0.251,1.221,0.381,1.83c0.15,0.704,0.302,1.408,0.461,2.109
	c0.137,0.606,0.28,1.21,0.424,1.814c0.167,0.7,0.337,1.4,0.513,2.096c0.153,0.6,0.306,1.197,0.465,1.794
	c0.184,0.693,0.371,1.384,0.564,2.075c0.165,0.595,0.333,1.188,0.506,1.779c0.199,0.687,0.403,1.372,0.612,2.054
	c0.178,0.586,0.359,1.173,0.544,1.757c0.216,0.685,0.44,1.366,0.666,2.048c0.19,0.575,0.383,1.151,0.579,1.724
	c0.235,0.683,0.477,1.362,0.72,2.04c0.203,0.565,0.405,1.129,0.612,1.691c0.254,0.684,0.516,1.363,0.779,2.042
	c0.212,0.549,0.423,1.099,0.64,1.645c0.075,0.188,0.145,0.379,0.221,0.566l0.062,0.122c3.324,8.226,7.285,16.128,11.832,23.639
	l0.022,0.041c0.022,0.036,0.044,0.07,0.066,0.106c0.818,1.347,1.657,2.679,2.512,4c0.237,0.367,0.48,0.729,0.72,1.095
	c0.644,0.977,1.295,1.948,1.959,2.911c0.286,0.413,0.57,0.826,0.859,1.237c0.723,1.03,1.458,2.051,2.203,3.063
	c0.196,0.264,0.384,0.532,0.581,0.796c0.938,1.258,1.894,2.502,2.866,3.731c0.244,0.31,0.498,0.615,0.744,0.924
	c0.748,0.933,1.508,1.861,2.276,2.778c0.323,0.387,0.648,0.77,0.975,1.153c0.78,0.914,1.569,1.817,2.368,2.713
	c0.261,0.293,0.518,0.588,0.78,0.879c1.051,1.162,2.117,2.309,3.199,3.441c0.229,0.24,0.466,0.475,0.695,0.713
	c0.872,0.9,1.751,1.79,2.642,2.669c0.355,0.35,0.713,0.699,1.071,1.047c0.838,0.812,1.686,1.615,2.541,2.41
	c0.318,0.295,0.633,0.595,0.954,0.888c1.156,1.058,2.325,2.104,3.512,3.129c0.178,0.155,0.36,0.303,0.54,0.456
	c1.018,0.874,2.05,1.734,3.088,2.584c0.383,0.311,0.767,0.619,1.151,0.927c0.898,0.719,1.804,1.43,2.717,2.132
	c0.368,0.282,0.733,0.566,1.103,0.845c1.256,0.949,2.522,1.884,3.805,2.797c0.066,0.045,0.132,0.09,0.197,0.136
	c1.222,0.866,2.459,1.712,3.705,2.545c0.396,0.265,0.795,0.525,1.192,0.787c0.966,0.633,1.935,1.256,2.913,1.87
	c0.409,0.256,0.817,0.514,1.228,0.767c1.233,0.758,2.475,1.505,3.728,2.231c0.117,0.068,0.233,0.138,0.348,0.206
	c1.37,0.79,2.755,1.555,4.147,2.305c0.402,0.217,0.808,0.427,1.211,0.64c1.031,0.545,2.067,1.078,3.111,1.602
	c0.446,0.224,0.891,0.448,1.339,0.666c1.188,0.582,2.382,1.15,3.584,1.704c0.249,0.115,0.496,0.236,0.747,0.349
	c1.444,0.657,2.901,1.288,4.364,1.905c0.396,0.165,0.794,0.324,1.192,0.487c1.103,0.453,2.212,0.897,3.327,1.327
	c0.476,0.183,0.953,0.366,1.43,0.544c1.177,0.441,2.359,0.867,3.547,1.283c0.341,0.118,0.678,0.243,1.019,0.359
	c1.513,0.517,3.037,1.011,4.569,1.485c0.368,0.114,0.738,0.218,1.104,0.33c1.192,0.359,2.387,0.705,3.589,1.038
	c0.498,0.138,0.997,0.273,1.496,0.406c1.181,0.315,2.367,0.614,3.555,0.904c0.409,0.1,0.816,0.204,1.227,0.3
	c1.575,0.37,3.159,0.718,4.753,1.043c0.308,0.064,0.619,0.117,0.927,0.178c1.301,0.256,2.609,0.5,3.921,0.726
	c0.512,0.088,1.022,0.171,1.535,0.254c1.194,0.195,2.393,0.375,3.594,0.543c0.463,0.066,0.925,0.134,1.389,0.196
	c1.63,0.214,3.268,0.41,4.912,0.575c0.204,0.022,0.411,0.035,0.615,0.055c1.449,0.142,2.905,0.262,4.364,0.366
	c0.518,0.036,1.035,0.067,1.555,0.098c1.215,0.075,2.431,0.135,3.654,0.184c0.504,0.019,1.006,0.042,1.509,0.057
	c1.682,0.051,3.365,0.084,5.059,0.084c1.693,0,3.377-0.034,5.059-0.084c0.504-0.015,1.006-0.038,1.51-0.057
	c1.222-0.049,2.439-0.108,3.654-0.184c0.519-0.031,1.037-0.063,1.555-0.098c1.46-0.104,2.915-0.224,4.364-0.366
	c0.204-0.019,0.412-0.034,0.615-0.055c1.645-0.166,3.282-0.361,4.912-0.575c0.464-0.062,0.926-0.13,1.389-0.196
	c1.202-0.168,2.401-0.348,3.594-0.543c0.513-0.083,1.023-0.167,1.535-0.254c1.312-0.226,2.62-0.469,3.921-0.726
	c0.308-0.062,0.619-0.115,0.927-0.178c1.593-0.324,3.178-0.673,4.752-1.043c0.411-0.096,0.818-0.2,1.227-0.3
	c1.19-0.29,2.374-0.589,3.555-0.904c0.499-0.133,0.998-0.267,1.496-0.406c1.202-0.333,2.398-0.679,3.589-1.038
	c0.368-0.111,0.738-0.215,1.105-0.33c1.532-0.474,3.055-0.968,4.569-1.485c0.341-0.117,0.679-0.241,1.019-0.359
	c1.189-0.415,2.37-0.84,3.547-1.283c0.477-0.178,0.954-0.361,1.43-0.544c1.115-0.43,2.225-0.874,3.328-1.327
	c0.396-0.162,0.794-0.321,1.189-0.487c1.466-0.614,2.923-1.248,4.366-1.905c0.251-0.114,0.499-0.235,0.747-0.349
	c1.203-0.555,2.398-1.122,3.586-1.704c0.448-0.218,0.893-0.442,1.339-0.666c1.044-0.522,2.08-1.057,3.111-1.602
	c0.403-0.213,0.809-0.423,1.211-0.64c1.392-0.75,2.776-1.515,4.147-2.305c0.116-0.068,0.231-0.138,0.348-0.206
	c1.254-0.727,2.496-1.472,3.728-2.231c0.411-0.252,0.819-0.51,1.228-0.767c0.978-0.613,1.948-1.237,2.913-1.87
	c0.397-0.262,0.796-0.521,1.193-0.787c1.245-0.833,2.482-1.68,3.705-2.545c0.065-0.047,0.131-0.091,0.197-0.136
	c1.282-0.913,2.548-1.849,3.805-2.797c0.37-0.279,0.735-0.562,1.103-0.845c0.913-0.701,1.819-1.413,2.717-2.132
	c0.384-0.308,0.769-0.615,1.152-0.927c1.039-0.849,2.07-1.71,3.088-2.584c0.18-0.154,0.361-0.302,0.54-0.456
	c1.187-1.025,2.356-2.071,3.512-3.129c0.321-0.294,0.636-0.593,0.954-0.888c0.854-0.794,1.701-1.598,2.541-2.41
	c0.358-0.347,0.716-0.697,1.071-1.047c0.891-0.879,1.772-1.77,2.642-2.669c0.23-0.239,0.467-0.474,0.697-0.713
	c1.083-1.131,2.148-2.278,3.199-3.441c0.262-0.291,0.518-0.586,0.78-0.879c0.798-0.896,1.589-1.799,2.368-2.713
	c0.328-0.383,0.652-0.766,0.975-1.153c0.769-0.917,1.527-1.844,2.276-2.778c0.248-0.308,0.5-0.613,0.745-0.924
	c0.972-1.23,1.929-2.473,2.866-3.731c0.197-0.264,0.386-0.532,0.581-0.796c0.745-1.012,1.481-2.033,2.203-3.063
	c0.289-0.411,0.573-0.824,0.859-1.237c0.663-0.964,1.315-1.934,1.959-2.911c0.24-0.366,0.483-0.728,0.72-1.095
	c0.854-1.322,1.694-2.653,2.512-4c0.022-0.036,0.044-0.07,0.066-0.106l0.022-0.041c4.547-7.511,8.508-15.413,11.833-23.639
	L409.503,317.662z M135.927,256.001c0-66.207,53.864-120.073,120.073-120.073s120.073,53.866,120.073,120.073
	c0,66.209-53.864,120.073-120.073,120.073S135.927,322.21,135.927,256.001z"/>
<g>
	<path style="fill:#3A5D74;" d="M370.047,218.43c-1.79-5.419-3.957-10.667-6.468-15.716h-78.676c-4.48,0-8.112,3.631-8.112,8.112
		s3.632,8.112,8.112,8.112h82.341C368.23,218.938,369.172,218.753,370.047,218.43z"/>
	<path style="fill:#3A5D74;" d="M374.891,272.805c-0.454-0.078-0.919-0.128-1.395-0.128H235.925c-4.48,0-8.112,3.631-8.112,8.112
		s3.632,8.112,8.112,8.112H371.49C372.981,283.673,374.119,278.297,374.891,272.805z"/>
	<path style="fill:#3A5D74;" d="M185.135,232.121h-46.819c-1.069,5.278-1.785,10.682-2.135,16.185
		c0.259,0.024,0.518,0.039,0.784,0.039h48.17c4.48,0,8.112-3.631,8.112-8.112S189.615,232.121,185.135,232.121z"/>
</g>
<g>
	<path style="fill:#CAE9F7;" d="M46.988,397.434c-2.676,0-5.296-1.323-6.842-3.745C13.883,352.598,0,304.986,0,256.001
		c0-49.738,14.281-97.968,41.297-139.474c2.444-3.755,7.468-4.818,11.225-2.373c3.755,2.444,4.818,7.47,2.373,11.225
		c-25.299,38.865-38.671,84.033-38.671,130.622c0,45.884,13,90.473,37.592,128.952c2.412,3.775,1.309,8.791-2.466,11.203
		C49.997,397.022,48.484,397.434,46.988,397.434z"/>
	<path style="fill:#CAE9F7;" d="M256.001,512.001c-59.027,0-116.629-20.574-162.196-57.93c-3.464-2.84-3.971-7.952-1.13-11.417
		c2.84-3.466,7.952-3.973,11.417-1.13c42.673,34.985,96.623,54.251,151.91,54.251c54.757,0,106.308-17.969,149.079-51.967
		c3.507-2.788,8.611-2.203,11.398,1.302c2.787,3.508,2.204,8.611-1.302,11.398C369.504,492.813,314.462,512.001,256.001,512.001z"/>
	<path style="fill:#CAE9F7;" d="M464.649,398.005c-1.502,0-3.022-0.417-4.38-1.289c-3.768-2.423-4.86-7.443-2.437-11.21
		c24.823-38.609,37.943-83.391,37.943-129.504c0-46.976-13.578-92.457-39.265-131.531c-2.461-3.743-1.421-8.773,2.322-11.235
		c3.743-2.462,8.774-1.421,11.235,2.321c27.433,41.727,41.933,90.292,41.933,140.443c0,49.232-14.011,97.047-40.521,138.278
		C469.93,396.69,467.317,398.005,464.649,398.005z"/>
	<path style="fill:#CAE9F7;" d="M98.324,72.83c-2.337,0-4.657-1.005-6.26-2.949c-2.852-3.455-2.363-8.569,1.094-11.42
		c45.682-37.7,103.516-58.462,162.844-58.462c58.715,0,116.081,20.38,161.531,57.385c3.474,2.83,3.998,7.939,1.168,11.413
		c-2.828,3.474-7.938,3.997-11.412,1.169c-42.565-34.657-96.294-53.744-151.287-53.744c-55.568,0-109.733,19.444-152.517,54.75
		C101.971,72.222,100.142,72.83,98.324,72.83z"/>
</g>
<g>
	<path style="fill:#578CAD;" d="M72.156,50.139c-21.485,0-38.965,17.48-38.965,38.965s17.48,38.965,38.965,38.965
		s38.965-17.48,38.965-38.965S93.641,50.139,72.156,50.139z"/>
	<path style="fill:#578CAD;" d="M439.844,128.07c21.485,0,38.965-17.48,38.965-38.965s-17.48-38.965-38.965-38.965
		c-21.485,0-38.965,17.48-38.965,38.965S418.359,128.07,439.844,128.07z"/>
	<path style="fill:#578CAD;" d="M72.156,381.836c-21.485,0-38.965,17.48-38.965,38.965c0,21.485,17.48,38.965,38.965,38.965
		s38.965-17.48,38.965-38.965C111.122,399.316,93.641,381.836,72.156,381.836z"/>
	<path style="fill:#578CAD;" d="M439.844,381.836c-21.485,0-38.965,17.48-38.965,38.965c0,21.485,17.48,38.965,38.965,38.965
		c21.485,0,38.965-17.48,38.965-38.965C478.81,399.316,461.33,381.836,439.844,381.836z"/>
</g>
<g style="opacity:0.1;">
	<path style="fill:#231F20;" d="M263.085,421.096c-0.519-0.031-1.037-0.063-1.555-0.098c-1.46-0.104-2.915-0.224-4.364-0.366
		c-0.204-0.019-0.412-0.034-0.615-0.055c-1.644-0.165-3.282-0.361-4.912-0.575c-0.464-0.062-0.926-0.13-1.389-0.196
		c-1.202-0.168-2.401-0.348-3.594-0.543c-0.513-0.083-1.023-0.167-1.535-0.254c-1.312-0.226-2.62-0.469-3.921-0.726
		c-0.308-0.062-0.619-0.115-0.927-0.178c-1.593-0.324-3.178-0.673-4.753-1.043c-0.411-0.096-0.818-0.2-1.227-0.3
		c-1.19-0.29-2.374-0.59-3.555-0.904c-0.499-0.133-0.998-0.267-1.496-0.406c-1.202-0.333-2.398-0.679-3.589-1.038
		c-0.368-0.111-0.738-0.215-1.104-0.33c-1.532-0.474-3.055-0.968-4.569-1.485c-0.341-0.117-0.679-0.241-1.019-0.359
		c-1.189-0.415-2.37-0.84-3.547-1.283c-0.477-0.178-0.954-0.361-1.43-0.544c-1.115-0.429-2.224-0.874-3.327-1.327
		c-0.397-0.162-0.795-0.321-1.192-0.487c-1.465-0.615-2.92-1.248-4.364-1.905c-0.251-0.114-0.499-0.235-0.747-0.349
		c-1.203-0.555-2.398-1.122-3.584-1.704c-0.448-0.218-0.893-0.442-1.339-0.666c-1.044-0.522-2.08-1.057-3.111-1.602
		c-0.403-0.213-0.809-0.423-1.211-0.64c-1.392-0.75-2.777-1.515-4.147-2.305c-0.116-0.068-0.231-0.138-0.348-0.206
		c-1.254-0.727-2.496-1.472-3.728-2.231c-0.411-0.252-0.819-0.511-1.228-0.767c-0.978-0.613-1.948-1.237-2.913-1.87
		c-0.397-0.262-0.796-0.521-1.192-0.787c-1.245-0.833-2.482-1.68-3.705-2.545c-0.065-0.047-0.131-0.091-0.197-0.136
		c-1.283-0.913-2.548-1.849-3.805-2.797c-0.37-0.279-0.735-0.562-1.103-0.845c-0.913-0.701-1.819-1.413-2.717-2.132
		c-0.384-0.308-0.769-0.615-1.151-0.927c-1.039-0.849-2.07-1.71-3.088-2.584c-0.18-0.154-0.361-0.302-0.54-0.456
		c-1.187-1.025-2.356-2.071-3.512-3.129c-0.321-0.294-0.636-0.593-0.954-0.888c-0.854-0.794-1.701-1.598-2.541-2.41
		c-0.358-0.347-0.716-0.697-1.071-1.047c-0.891-0.879-1.772-1.77-2.642-2.669c-0.23-0.239-0.467-0.474-0.697-0.713
		c-1.083-1.131-2.148-2.278-3.199-3.441c-0.262-0.291-0.519-0.586-0.78-0.879c-0.798-0.896-1.589-1.799-2.368-2.713
		c-0.328-0.383-0.652-0.766-0.975-1.153c-0.769-0.917-1.527-1.844-2.277-2.778c-0.248-0.308-0.5-0.613-0.744-0.924
		c-0.972-1.23-1.929-2.473-2.866-3.73c-0.197-0.264-0.386-0.532-0.581-0.796c-0.745-1.012-1.481-2.033-2.203-3.063
		c-0.289-0.411-0.573-0.824-0.859-1.237c-0.663-0.964-1.315-1.934-1.959-2.911c-0.24-0.366-0.483-0.728-0.72-1.095
		c-0.854-1.322-1.694-2.653-2.512-4c-0.022-0.036-0.044-0.07-0.066-0.106l-0.022-0.041c-4.547-7.511-8.508-15.413-11.832-23.639
		l-0.062-0.122c-0.076-0.188-0.146-0.379-0.221-0.566c-0.217-0.546-0.428-1.096-0.64-1.645c-0.263-0.679-0.524-1.359-0.779-2.042
		c-0.208-0.562-0.41-1.126-0.612-1.691c-0.243-0.678-0.486-1.357-0.72-2.04c-0.197-0.572-0.388-1.148-0.579-1.724
		c-0.226-0.681-0.45-1.363-0.666-2.048c-0.185-0.584-0.366-1.17-0.544-1.757c-0.209-0.684-0.414-1.368-0.612-2.054
		c-0.173-0.593-0.34-1.185-0.506-1.779c-0.193-0.69-0.38-1.381-0.564-2.075c-0.158-0.597-0.313-1.195-0.465-1.794
		c-0.175-0.695-0.345-1.395-0.513-2.096c-0.144-0.604-0.287-1.207-0.424-1.814c-0.158-0.701-0.31-1.405-0.461-2.109
		c-0.129-0.61-0.257-1.219-0.381-1.83c-0.143-0.708-0.277-1.421-0.41-2.134c-0.115-0.612-0.23-1.225-0.339-1.84
		c-0.125-0.718-0.243-1.439-0.359-2.16c-0.1-0.613-0.2-1.228-0.292-1.843c-0.11-0.733-0.209-1.469-0.31-2.205
		c-0.082-0.609-0.168-1.215-0.243-1.826c-0.094-0.752-0.176-1.509-0.26-2.264c-0.067-0.601-0.137-1.2-0.198-1.803
		c-0.077-0.774-0.142-1.553-0.207-2.33c-0.051-0.587-0.106-1.172-0.15-1.761c-0.062-0.822-0.108-1.648-0.158-2.474
		c-0.032-0.548-0.072-1.094-0.101-1.642c-0.045-0.925-0.074-1.853-0.106-2.78c-0.015-0.455-0.038-0.91-0.05-1.366
		c-0.035-1.386-0.053-2.777-0.053-4.171c0-88.31,69.56-160.679,156.768-165.196c-2.866-0.148-5.751-0.225-8.653-0.225
		c-91.213,0-165.421,74.207-165.421,165.421c0,1.394,0.018,2.785,0.053,4.171c0.012,0.456,0.035,0.911,0.05,1.366
		c0.031,0.927,0.061,1.856,0.106,2.78c0.027,0.549,0.068,1.095,0.101,1.642c0.05,0.825,0.096,1.652,0.158,2.474
		c0.044,0.588,0.1,1.174,0.15,1.761c0.066,0.778,0.13,1.555,0.207,2.33c0.061,0.604,0.131,1.202,0.198,1.803
		c0.083,0.755,0.165,1.512,0.26,2.264c0.076,0.611,0.161,1.217,0.243,1.826c0.102,0.737,0.201,1.472,0.31,2.205
		c0.092,0.615,0.193,1.23,0.292,1.843c0.116,0.721,0.234,1.442,0.359,2.16c0.108,0.614,0.223,1.228,0.339,1.84
		c0.133,0.713,0.267,1.424,0.41,2.134c0.122,0.611,0.251,1.221,0.381,1.83c0.15,0.704,0.302,1.408,0.461,2.109
		c0.137,0.606,0.28,1.21,0.424,1.814c0.167,0.7,0.337,1.4,0.513,2.096c0.153,0.6,0.306,1.197,0.465,1.794
		c0.184,0.693,0.371,1.384,0.564,2.075c0.165,0.595,0.333,1.188,0.506,1.779c0.199,0.687,0.403,1.371,0.612,2.054
		c0.178,0.586,0.359,1.172,0.544,1.757c0.216,0.685,0.44,1.366,0.666,2.048c0.19,0.575,0.383,1.151,0.579,1.724
		c0.235,0.683,0.477,1.362,0.72,2.04c0.203,0.565,0.405,1.129,0.612,1.691c0.254,0.684,0.516,1.363,0.779,2.042
		c0.212,0.549,0.423,1.099,0.64,1.645c0.075,0.188,0.145,0.379,0.221,0.566l0.062,0.122c3.324,8.226,7.285,16.128,11.832,23.639
		l0.022,0.041c0.022,0.036,0.044,0.07,0.066,0.106c0.818,1.347,1.657,2.679,2.512,4c0.237,0.367,0.48,0.729,0.72,1.095
		c0.644,0.977,1.295,1.948,1.959,2.911c0.286,0.413,0.57,0.826,0.859,1.237c0.723,1.03,1.458,2.051,2.203,3.063
		c0.196,0.264,0.384,0.532,0.581,0.796c0.938,1.258,1.894,2.502,2.866,3.73c0.244,0.31,0.498,0.615,0.744,0.924
		c0.748,0.933,1.508,1.861,2.276,2.778c0.323,0.387,0.648,0.77,0.975,1.153c0.78,0.914,1.569,1.817,2.368,2.713
		c0.261,0.293,0.518,0.588,0.78,0.879c1.051,1.162,2.117,2.309,3.199,3.441c0.229,0.24,0.466,0.475,0.695,0.713
		c0.872,0.9,1.751,1.79,2.642,2.669c0.355,0.35,0.713,0.699,1.071,1.047c0.838,0.812,1.686,1.615,2.541,2.41
		c0.318,0.295,0.633,0.595,0.954,0.888c1.156,1.058,2.325,2.104,3.512,3.129c0.178,0.155,0.36,0.303,0.54,0.456
		c1.018,0.874,2.05,1.734,3.088,2.584c0.383,0.312,0.767,0.619,1.151,0.927c0.898,0.719,1.804,1.43,2.717,2.132
		c0.368,0.282,0.733,0.566,1.103,0.845c1.256,0.949,2.522,1.884,3.805,2.797c0.066,0.045,0.132,0.09,0.197,0.136
		c1.222,0.866,2.459,1.712,3.705,2.545c0.396,0.265,0.795,0.525,1.192,0.787c0.966,0.633,1.935,1.256,2.913,1.87
		c0.409,0.256,0.817,0.514,1.228,0.767c1.233,0.758,2.475,1.505,3.728,2.231c0.117,0.068,0.233,0.138,0.348,0.206
		c1.37,0.79,2.755,1.555,4.147,2.305c0.402,0.217,0.808,0.427,1.211,0.64c1.031,0.545,2.067,1.078,3.111,1.602
		c0.446,0.224,0.891,0.448,1.339,0.666c1.188,0.582,2.382,1.15,3.584,1.704c0.249,0.115,0.496,0.236,0.747,0.349
		c1.444,0.657,2.901,1.288,4.364,1.905c0.396,0.165,0.794,0.324,1.192,0.487c1.103,0.453,2.212,0.897,3.327,1.327
		c0.476,0.183,0.953,0.366,1.43,0.544c1.177,0.441,2.359,0.867,3.547,1.283c0.341,0.118,0.678,0.243,1.019,0.359
		c1.513,0.517,3.037,1.011,4.569,1.485c0.368,0.114,0.738,0.219,1.104,0.33c1.192,0.359,2.387,0.705,3.589,1.038
		c0.498,0.138,0.997,0.273,1.496,0.406c1.181,0.315,2.367,0.614,3.555,0.904c0.409,0.1,0.816,0.204,1.227,0.3
		c1.575,0.37,3.159,0.718,4.753,1.043c0.308,0.064,0.619,0.117,0.927,0.178c1.301,0.256,2.609,0.5,3.921,0.726
		c0.512,0.088,1.022,0.171,1.535,0.254c1.194,0.195,2.393,0.375,3.594,0.543c0.463,0.066,0.925,0.134,1.389,0.196
		c1.63,0.214,3.268,0.41,4.912,0.575c0.204,0.022,0.411,0.035,0.615,0.055c1.449,0.142,2.905,0.262,4.364,0.366
		c0.518,0.036,1.035,0.067,1.555,0.098c1.215,0.075,2.431,0.135,3.654,0.184c0.504,0.019,1.006,0.042,1.509,0.057
		c1.682,0.051,3.365,0.084,5.059,0.084c1.693,0,3.377-0.034,5.059-0.084c0.504-0.015,1.006-0.038,1.51-0.057
		c0.698-0.027,1.39-0.068,2.085-0.105C264.13,421.147,263.607,421.128,263.085,421.096z"/>
</g>
<g>
	<path style="opacity:0.1;fill:#231F20;enable-background:new    ;" d="M50.497,89.105c0-18.511,12.979-34.039,30.312-37.985
		c-2.785-0.634-5.679-0.98-8.653-0.98c-21.485,0-38.965,17.48-38.965,38.965s17.48,38.965,38.965,38.965
		c2.974,0,5.868-0.346,8.653-0.98C63.476,123.143,50.497,107.615,50.497,89.105z"/>
	<path style="opacity:0.1;fill:#231F20;enable-background:new    ;" d="M418.184,89.105c0-18.511,12.979-34.039,30.312-37.985
		c-2.785-0.634-5.679-0.98-8.653-0.98c-21.485,0-38.965,17.48-38.965,38.965s17.48,38.965,38.965,38.965
		c2.974,0,5.868-0.346,8.653-0.98C431.164,123.143,418.184,107.615,418.184,89.105z"/>
	<path style="opacity:0.1;fill:#231F20;enable-background:new    ;" d="M50.497,420.801c0-18.511,12.979-34.039,30.312-37.985
		c-2.785-0.634-5.679-0.98-8.653-0.98c-21.485,0-38.965,17.48-38.965,38.965c0,21.485,17.48,38.965,38.965,38.965
		c2.974,0,5.868-0.346,8.653-0.98C63.476,454.84,50.497,439.312,50.497,420.801z"/>
	<path style="opacity:0.1;fill:#231F20;enable-background:new    ;" d="M418.184,420.801c0-18.511,12.979-34.039,30.312-37.985
		c-2.785-0.634-5.679-0.98-8.653-0.98c-21.485,0-38.965,17.48-38.965,38.965c0,21.485,17.48,38.965,38.965,38.965
		c2.974,0,5.868-0.346,8.653-0.98C431.164,454.84,418.184,439.312,418.184,420.801z"/>
</g>
</svg>