<?xml version="1.0" encoding="iso-8859-1"?>
<!-- Generator: Adobe Illustrator 19.0.0, SVG Export Plug-In . SVG Version: 6.00 Build 0)  -->
<svg version="1.1" id="Capa_1" xmlns="http://www.w3.org/2000/svg" xmlns:xlink="http://www.w3.org/1999/xlink" x="0px" y="0px"
	 viewBox="0 0 490.01 490.01" style="enable-background:new 0 0 490.01 490.01;" xml:space="preserve">
<path d="M487.441,338.212c-72.595-85.706-127.154-205.297-147.957-329.58c-0.601-3.584-5.781-12.605-16.497-6.65L141.649,136.55
	c-3.146,2.331-4.714,6.232-4.073,10.091c2.893,17.275,10.071,50.839,9.92,50.61L3.742,313.611
	c-6.136,5.305-3.268,12.556-1.517,14.704c63.45,77.726,167.805,135.067,293.828,161.47c0.713,0.153,1.436,0.225,2.139,0.225
	c2.296,0,4.512-0.764,6.315-2.134L485.74,353.385C489.139,351.415,492.459,344.136,487.441,338.212z M25.137,323.122
	l128.251-103.814c0.584,2.176,1.163,4.352,1.765,6.519c0.04-0.06,0.086-0.116,0.127-0.176
	c24.671,88.312,64.949,170.763,115.622,236.846C168.247,435.978,80.338,386.246,25.137,323.122z M299.846,465.363
	c-58.168-70.286-103.689-162.761-128.929-262.006c-0.008,0.004-0.016,0.008-0.024,0.012c-4.555-17.803-8.471-35.796-11.667-53.896
	L321.898,28.753c22.677,119.365,72.818,230.073,142.509,314.5L299.846,465.363z"/>
<g>
</g>
<g>
</g>
<g>
</g>
<g>
</g>
<g>
</g>
<g>
</g>
<g>
</g>
<g>
</g>
<g>
</g>
<g>
</g>
<g>
</g>
<g>
</g>
<g>
</g>
<g>
</g>
<g>
</g>
</svg>
