<?xml version="1.0" encoding="UTF-8"?>
<svg xmlns="http://www.w3.org/2000/svg" xmlns:xlink="http://www.w3.org/1999/xlink" viewBox="0 0 1600 900">
  <defs>
    <style>
      .cls-1 {
        fill: url(#linear-gradient);
      }

      .cls-2 {
        fill: #12aaff;
      }

      .cls-3 {
        fill: none;
        stroke: #fff;
        stroke-miterlimit: 10;
        stroke-width: .86px;
      }

      .cls-4 {
        fill: #fff;
      }

      .cls-5 {
        opacity: .1;
      }

      .cls-6 {
        fill: #9dcced;
      }

      .cls-7 {
        fill: #213147;
      }
    </style>
    <linearGradient id="linear-gradient" x1="800" y1="905.32" x2="800" y2="-3.69" gradientUnits="userSpaceOnUse">
      <stop offset="0" stop-color="#12aaff"/>
      <stop offset=".3" stop-color="#1b4add"/>
      <stop offset=".75" stop-color="#152c4e"/>
    </linearGradient>
  </defs>
  <g id="bkgd">
    <g>
      <rect class="cls-1" width="1600" height="900"/>
      <g>
        <g>
          <g class="cls-5">
            <g>
              <polyline class="cls-3" points="0 260.61 94.31 260.61 120.45 243.48 158.17 243.48 177.78 274.41 285.57 274.41 308.2 258.94 372.27 258.94"/>
              <circle class="cls-4" cx="372.11" cy="258.94" r="3.22"/>
            </g>
            <g>
              <polyline class="cls-3" points="0 279.81 94.75 279.81 121.33 262.37 155.08 262.69 175.45 293.61 285.57 293.61 308.2 278.15 406.96 278.15"/>
              <circle class="cls-4" cx="406.8" cy="278.15" r="3.22"/>
            </g>
            <g>
              <polyline class="cls-3" points="0 299.31 94.75 299.31 121.33 281.86 155.08 282.18 175.45 313.1 282.51 313.1"/>
              <circle class="cls-4" cx="282.35" cy="313.1" r="3.22"/>
            </g>
            <g>
              <polyline class="cls-3" points="179.16 360.12 80.85 360.12 58.22 375.59 0 375.59"/>
              <path class="cls-4" d="M178.97,356.42c2.04,0,3.7,1.66,3.7,3.7s-1.66,3.7-3.7,3.7-3.7-1.66-3.7-3.7,1.66-3.7,3.7-3.7Z"/>
            </g>
            <g>
              <polyline class="cls-3" points="0 358.76 58.22 358.76 80.85 343.3 182.68 343.3 197.54 328.44 248.62 328.44 262.71 342.52 313.55 342.52"/>
              <path class="cls-4" d="M313.37,346.23c2.04,0,3.7-1.66,3.7-3.7s-1.66-3.7-3.7-3.7-3.7,1.66-3.7,3.7,1.66,3.7,3.7,3.7Z"/>
            </g>
            <g>
              <line class="cls-3" y1="309.46" x2="137.88" y2="309.46"/>
              <circle class="cls-4" cx="137.72" cy="309.46" r="3.22"/>
            </g>
            <g>
              <polyline class="cls-3" points="217.38 428.12 119.08 428.12 96.45 412.66 0 412.66"/>
              <circle class="cls-4" cx="217.2" cy="428.12" r="3.7"/>
            </g>
            <g>
              <polyline class="cls-3" points="240.22 443.59 119.08 443.59 96.45 428.12 0 428.12"/>
              <path class="cls-4" d="M240.04,439.88c2.04,0,3.7,1.66,3.7,3.7s-1.66,3.7-3.7,3.7-3.7-1.66-3.7-3.7,1.66-3.7,3.7-3.7Z"/>
            </g>
            <g>
              <path class="cls-3" d="M0,227.1h163.21l23.67,34.9"/>
              <path class="cls-4" d="M184.12,263.67c1,1.47,3,1.86,4.47.86,1.47-1,1.86-3,.86-4.47-1-1.47-3-1.86-4.47-.86-1.47,1-1.86,3-.86,4.47Z"/>
            </g>
            <g>
              <polyline class="cls-3" points="0 214.44 175.62 214.44 207.34 263.92 261.4 263.92"/>
              <path class="cls-4" d="M261.24,267.14c1.78,0,3.22-1.44,3.22-3.22s-1.44-3.22-3.22-3.22-3.22,1.44-3.22,3.22,1.44,3.22,3.22,3.22Z"/>
            </g>
            <g>
              <polyline class="cls-3" points="0 201.24 206.12 201.24 223.14 227.1 282.51 227.1"/>
              <circle class="cls-4" cx="282.35" cy="227.1" r="3.22"/>
            </g>
            <g>
              <polyline class="cls-3" points="0 76.95 80.47 76.95 111.98 108.47 162.45 108.47 220.08 108.47"/>
              <circle class="cls-4" cx="219.92" cy="108.47" r="3.22"/>
            </g>
            <g>
              <polyline class="cls-3" points="0 94.72 80.47 94.72 111.98 126.23 162.45 126.23 200.54 126.23 221.55 147.24 308.92 147.24"/>
              <path class="cls-4" d="M308.76,150.46c1.78,0,3.22-1.44,3.22-3.22s-1.44-3.22-3.22-3.22-3.22,1.44-3.22,3.22,1.44,3.22,3.22,3.22Z"/>
            </g>
            <g>
              <polyline class="cls-3" points="0 110.48 75.32 110.48 106.04 141.2 153.9 141.2 186.96 141.2 214.24 168.48 287.42 167.96"/>
              <circle class="cls-4" cx="287.26" cy="167.96" r="3.22"/>
            </g>
            <g>
              <line class="cls-3" y1="125.84" x2="65.86" y2="125.84"/>
              <circle class="cls-4" cx="65.7" cy="125.84" r="3.22"/>
            </g>
            <g>
              <line class="cls-3" y1="143.06" x2="82.99" y2="143.06"/>
              <circle class="cls-4" cx="82.83" cy="143.06" r="3.22"/>
            </g>
            <g>
              <line class="cls-3" y1="241.55" x2="82.99" y2="241.55"/>
              <circle class="cls-4" cx="82.83" cy="241.55" r="3.22"/>
            </g>
            <g>
              <line class="cls-3" x1="109.69" y1="187.83" x2="245.56" y2="187.83"/>
              <path class="cls-4" d="M245.4,191.05c1.78,0,3.22-1.44,3.22-3.22s-1.44-3.22-3.22-3.22-3.22,1.44-3.22,3.22,1.44,3.22,3.22,3.22Z"/>
            </g>
            <g>
              <polyline class="cls-3" points="250.65 244.73 216.1 244.73 195.26 211.27"/>
              <circle class="cls-4" cx="250.49" cy="244.73" r="3.22"/>
            </g>
            <g>
              <polyline class="cls-3" points="0 189.34 85.83 189.34 104.12 171.05 183.9 171.05"/>
              <circle class="cls-4" cx="183.74" cy="171.05" r="3.22"/>
            </g>
            <g>
              <polyline class="cls-3" points="0 174.87 71.61 174.87 90.98 155.5 126.75 156.3"/>
              <path class="cls-4" d="M126.52,159.51c1.78.04,3.25-1.37,3.29-3.15.04-1.78-1.37-3.25-3.15-3.29-1.78-.04-3.25,1.37-3.29,3.15s1.37,3.25,3.15,3.29Z"/>
            </g>
            <g>
              <line class="cls-3" y1="158.41" x2="52.82" y2="158.41"/>
              <circle class="cls-4" cx="52.66" cy="158.41" r="3.22"/>
            </g>
            <g>
              <line class="cls-3" y1="339.86" x2="52.82" y2="339.86"/>
              <circle class="cls-4" cx="52.66" cy="339.86" r="3.22"/>
            </g>
            <g>
              <line class="cls-3" y1="443.59" x2="52.82" y2="443.59"/>
              <circle class="cls-4" cx="52.66" cy="443.59" r="3.22"/>
            </g>
            <g>
              <line class="cls-3" x1="134.85" y1="393.49" x2="167.66" y2="393.49"/>
              <path class="cls-4" d="M167.5,396.71c1.78,0,3.22-1.44,3.22-3.22s-1.44-3.22-3.22-3.22-3.22,1.44-3.22,3.22,1.44,3.22,3.22,3.22Z"/>
            </g>
            <g>
              <line class="cls-3" y1="324.95" x2="125.55" y2="324.95"/>
              <circle class="cls-4" cx="125.39" cy="324.95" r="3.22"/>
            </g>
            <g>
              <polyline class="cls-3" points="0 399.91 116.96 399.91 126.21 409.16 266.49 409.16"/>
              <circle class="cls-4" cx="266.33" cy="409.16" r="3.22"/>
            </g>
            <g>
              <polyline class="cls-3" points="0 389.35 86.05 389.35 103.48 377.87 204.55 377.87"/>
              <path class="cls-4" d="M204.39,381.09c1.78,0,3.22-1.44,3.22-3.22s-1.44-3.22-3.22-3.22-3.22,1.44-3.22,3.22,1.44,3.22,3.22,3.22Z"/>
            </g>
            <g>
              <polyline class="cls-3" points="0 60.8 44.46 60.8 44.46 26.86 232.55 26.86"/>
              <circle class="cls-4" cx="232.39" cy="26.86" r="3.22"/>
            </g>
            <g>
              <polyline class="cls-3" points="0 39.87 29.13 39.87 29.13 13.85 101.24 13.85"/>
              <path class="cls-4" d="M101.08,17.07c1.78,0,3.22-1.44,3.22-3.22s-1.44-3.22-3.22-3.22-3.22,1.44-3.22,3.22,1.44,3.22,3.22,3.22Z"/>
            </g>
            <g>
              <polyline class="cls-3" points="261.33 39.87 144.78 39.87 122.47 39.87 144.09 61.49 229.71 61.49"/>
              <path class="cls-4" d="M261.16,36.65c1.78,0,3.22,1.44,3.22,3.22s-1.44,3.22-3.22,3.22-3.22-1.44-3.22-3.22,1.44-3.22,3.22-3.22Z"/>
              <circle class="cls-4" cx="229.54" cy="61.49" r="3.22"/>
            </g>
            <g>
              <polyline class="cls-3" points="252.92 93.8 121.38 93.8 86.05 58.47 62.15 57.37 62.15 39.87 92.49 39.87 129.69 77.07 211.95 77.07"/>
              <circle class="cls-4" cx="252.75" cy="93.8" r="3.22"/>
              <circle class="cls-4" cx="211.79" cy="77.07" r="3.22"/>
            </g>
          </g>
          <g class="cls-5">
            <g>
              <polyline class="cls-3" points="0 703.18 94.31 703.18 120.45 686.05 158.17 686.05 177.78 716.97 285.57 716.97 308.2 701.51 372.27 701.51"/>
              <path class="cls-4" d="M372.11,704.73c1.78,0,3.22-1.44,3.22-3.22s-1.44-3.22-3.22-3.22-3.22,1.44-3.22,3.22,1.44,3.22,3.22,3.22Z"/>
            </g>
            <g>
              <polyline class="cls-3" points="0 722.38 94.75 722.38 121.33 704.94 155.08 705.25 175.45 736.18 285.57 736.18 308.2 720.72 406.96 720.72"/>
              <path class="cls-4" d="M406.8,723.94c1.78,0,3.22-1.44,3.22-3.22s-1.44-3.22-3.22-3.22-3.22,1.44-3.22,3.22,1.44,3.22,3.22,3.22Z"/>
            </g>
            <g>
              <polyline class="cls-3" points="0 741.87 94.75 741.87 121.33 724.43 155.08 724.75 175.45 755.67 282.51 755.67"/>
              <path class="cls-4" d="M282.35,758.89c1.78,0,3.22-1.44,3.22-3.22s-1.44-3.22-3.22-3.22-3.22,1.44-3.22,3.22,1.44,3.22,3.22,3.22Z"/>
            </g>
            <g>
              <polyline class="cls-3" points="179.16 802.69 80.85 802.69 58.22 818.15 0 818.15"/>
              <path class="cls-4" d="M178.97,798.99c2.04,0,3.7,1.66,3.7,3.7s-1.66,3.7-3.7,3.7-3.7-1.66-3.7-3.7,1.66-3.7,3.7-3.7Z"/>
            </g>
            <g>
              <polyline class="cls-3" points="0 801.33 58.22 801.33 80.85 785.87 182.68 785.87 197.54 771 248.62 771 262.71 785.09 313.55 785.09"/>
              <path class="cls-4" d="M313.37,788.79c2.04,0,3.7-1.66,3.7-3.7s-1.66-3.7-3.7-3.7-3.7,1.66-3.7,3.7,1.66,3.7,3.7,3.7Z"/>
            </g>
            <g>
              <line class="cls-3" y1="752.03" x2="137.88" y2="752.03"/>
              <path class="cls-4" d="M137.72,755.25c1.78,0,3.22-1.44,3.22-3.22s-1.44-3.22-3.22-3.22-3.22,1.44-3.22,3.22,1.44,3.22,3.22,3.22Z"/>
            </g>
            <g>
              <polyline class="cls-3" points="217.38 870.69 119.08 870.69 96.45 855.23 0 855.23"/>
              <path class="cls-4" d="M217.2,866.99c2.04,0,3.7,1.66,3.7,3.7s-1.66,3.7-3.7,3.7-3.7-1.66-3.7-3.7,1.66-3.7,3.7-3.7Z"/>
            </g>
            <g>
              <polyline class="cls-3" points="240.22 886.15 119.08 886.15 96.45 870.69 0 870.69"/>
              <path class="cls-4" d="M240.04,882.45c2.04,0,3.7,1.66,3.7,3.7s-1.66,3.7-3.7,3.7-3.7-1.66-3.7-3.7,1.66-3.7,3.7-3.7Z"/>
            </g>
            <g>
              <path class="cls-3" d="M0,669.67h163.21l23.67,34.9"/>
              <path class="cls-4" d="M184.12,706.24c1,1.47,3,1.86,4.47.86,1.47-1,1.86-3,.86-4.47-1-1.47-3-1.86-4.47-.86-1.47,1-1.86,3-.86,4.47Z"/>
            </g>
            <g>
              <polyline class="cls-3" points="0 657.01 175.62 657.01 207.34 706.49 261.4 706.49"/>
              <path class="cls-4" d="M261.24,709.71c1.78,0,3.22-1.44,3.22-3.22s-1.44-3.22-3.22-3.22-3.22,1.44-3.22,3.22,1.44,3.22,3.22,3.22Z"/>
            </g>
            <g>
              <polyline class="cls-3" points="0 643.8 206.12 643.8 223.14 669.67 282.51 669.67"/>
              <circle class="cls-4" cx="282.35" cy="669.67" r="3.22"/>
            </g>
            <g>
              <polyline class="cls-3" points="0 519.52 80.47 519.52 111.98 551.03 162.45 551.03 220.08 551.03"/>
              <circle class="cls-4" cx="219.92" cy="551.03" r="3.22"/>
            </g>
            <g>
              <polyline class="cls-3" points="0 537.29 80.47 537.29 111.98 568.8 162.45 568.8 200.54 568.8 221.55 589.81 308.92 589.81"/>
              <path class="cls-4" d="M308.76,593.03c1.78,0,3.22-1.44,3.22-3.22s-1.44-3.22-3.22-3.22-3.22,1.44-3.22,3.22,1.44,3.22,3.22,3.22Z"/>
            </g>
            <g>
              <polyline class="cls-3" points="0 553.04 75.32 553.04 106.04 583.76 153.9 583.76 186.96 583.76 214.24 611.05 287.42 610.53"/>
              <circle class="cls-4" cx="287.26" cy="610.53" r="3.22"/>
            </g>
            <g>
              <line class="cls-3" y1="568.4" x2="65.86" y2="568.4"/>
              <circle class="cls-4" cx="65.7" cy="568.4" r="3.22"/>
            </g>
            <g>
              <line class="cls-3" y1="585.62" x2="82.99" y2="585.62"/>
              <path class="cls-4" d="M82.83,588.84c1.78,0,3.22-1.44,3.22-3.22s-1.44-3.22-3.22-3.22-3.22,1.44-3.22,3.22,1.44,3.22,3.22,3.22Z"/>
            </g>
            <g>
              <line class="cls-3" y1="684.12" x2="82.99" y2="684.12"/>
              <path class="cls-4" d="M82.83,687.34c1.78,0,3.22-1.44,3.22-3.22s-1.44-3.22-3.22-3.22-3.22,1.44-3.22,3.22,1.44,3.22,3.22,3.22Z"/>
            </g>
            <g>
              <line class="cls-3" x1="109.69" y1="630.4" x2="245.56" y2="630.4"/>
              <path class="cls-4" d="M245.4,633.62c1.78,0,3.22-1.44,3.22-3.22s-1.44-3.22-3.22-3.22-3.22,1.44-3.22,3.22,1.44,3.22,3.22,3.22Z"/>
            </g>
            <g>
              <polyline class="cls-3" points="250.65 687.3 216.1 687.3 195.26 653.84"/>
              <circle class="cls-4" cx="250.49" cy="687.3" r="3.22"/>
            </g>
            <g>
              <polyline class="cls-3" points="0 631.9 85.83 631.9 104.12 613.62 183.9 613.62"/>
              <circle class="cls-4" cx="183.74" cy="613.62" r="3.22"/>
            </g>
            <g>
              <polyline class="cls-3" points="0 617.44 71.61 617.44 90.98 598.07 126.75 598.87"/>
              <path class="cls-4" d="M126.52,602.08c1.78.04,3.25-1.37,3.29-3.15.04-1.78-1.37-3.25-3.15-3.29s-3.25,1.37-3.29,3.15,1.37,3.25,3.15,3.29Z"/>
            </g>
            <g>
              <line class="cls-3" y1="600.98" x2="52.82" y2="600.98"/>
              <circle class="cls-4" cx="52.66" cy="600.98" r="3.22"/>
            </g>
            <g>
              <line class="cls-3" y1="782.43" x2="52.82" y2="782.43"/>
              <circle class="cls-4" cx="52.66" cy="782.43" r="3.22"/>
            </g>
            <g>
              <line class="cls-3" y1="886.15" x2="52.82" y2="886.15"/>
              <circle class="cls-4" cx="52.66" cy="886.15" r="3.22"/>
            </g>
            <g>
              <line class="cls-3" x1="134.85" y1="836.06" x2="167.66" y2="836.06"/>
              <path class="cls-4" d="M167.5,839.28c1.78,0,3.22-1.44,3.22-3.22s-1.44-3.22-3.22-3.22-3.22,1.44-3.22,3.22,1.44,3.22,3.22,3.22Z"/>
            </g>
            <g>
              <line class="cls-3" y1="767.52" x2="125.55" y2="767.52"/>
              <path class="cls-4" d="M125.39,770.74c1.78,0,3.22-1.44,3.22-3.22s-1.44-3.22-3.22-3.22-3.22,1.44-3.22,3.22,1.44,3.22,3.22,3.22Z"/>
            </g>
            <g>
              <polyline class="cls-3" points="0 842.48 116.96 842.48 126.21 851.73 266.49 851.73"/>
              <path class="cls-4" d="M266.33,854.95c1.78,0,3.22-1.44,3.22-3.22s-1.44-3.22-3.22-3.22-3.22,1.44-3.22,3.22,1.44,3.22,3.22,3.22Z"/>
            </g>
            <g>
              <polyline class="cls-3" points="0 831.92 86.05 831.92 103.48 820.44 204.55 820.44"/>
              <path class="cls-4" d="M204.39,823.66c1.78,0,3.22-1.44,3.22-3.22s-1.44-3.22-3.22-3.22-3.22,1.44-3.22,3.22,1.44,3.22,3.22,3.22Z"/>
            </g>
            <g>
              <polyline class="cls-3" points="0 503.37 44.46 503.37 44.46 469.42 232.55 469.42"/>
              <circle class="cls-4" cx="232.39" cy="469.42" r="3.22"/>
            </g>
            <g>
              <polyline class="cls-3" points="0 482.44 29.13 482.44 29.13 456.41 101.24 456.41"/>
              <path class="cls-4" d="M101.08,459.63c1.78,0,3.22-1.44,3.22-3.22s-1.44-3.22-3.22-3.22-3.22,1.44-3.22,3.22,1.44,3.22,3.22,3.22Z"/>
            </g>
            <g>
              <polyline class="cls-3" points="261.33 482.44 144.78 482.44 122.47 482.44 144.09 504.05 229.71 504.05"/>
              <path class="cls-4" d="M261.16,479.22c1.78,0,3.22,1.44,3.22,3.22s-1.44,3.22-3.22,3.22-3.22-1.44-3.22-3.22,1.44-3.22,3.22-3.22Z"/>
              <circle class="cls-4" cx="229.54" cy="504.05" r="3.22"/>
            </g>
            <g>
              <polyline class="cls-3" points="252.92 536.37 121.38 536.37 86.05 501.04 62.15 499.94 62.15 482.44 92.49 482.44 129.69 519.64 211.95 519.64"/>
              <circle class="cls-4" cx="252.75" cy="536.37" r="3.22"/>
              <path class="cls-4" d="M211.79,522.86c1.78,0,3.22-1.44,3.22-3.22s-1.44-3.22-3.22-3.22-3.22,1.44-3.22,3.22,1.44,3.22,3.22,3.22Z"/>
            </g>
          </g>
        </g>
        <g>
          <g class="cls-5">
            <g>
              <polyline class="cls-3" points="1600 260.61 1505.69 260.61 1479.55 243.48 1441.83 243.48 1422.22 274.41 1314.43 274.41 1291.8 258.94 1227.73 258.94"/>
              <circle class="cls-4" cx="1227.89" cy="258.94" r="3.22" transform="translate(362.08 1167.32) rotate(-58.28)"/>
            </g>
            <g>
              <polyline class="cls-3" points="1600 279.81 1505.25 279.81 1478.67 262.37 1444.92 262.69 1424.55 293.61 1314.43 293.61 1291.8 278.15 1193.04 278.15"/>
              <path class="cls-4" d="M1193.2,274.93c-1.78,0-3.22,1.44-3.22,3.22s1.44,3.22,3.22,3.22,3.22-1.44,3.22-3.22-1.44-3.22-3.22-3.22Z"/>
            </g>
            <g>
              <polyline class="cls-3" points="1600 299.31 1505.25 299.31 1478.67 281.86 1444.92 282.18 1424.55 313.1 1317.49 313.1"/>
              <circle class="cls-4" cx="1317.65" cy="313.1" r="3.22" transform="translate(-36.69 311.11) rotate(-13.28)"/>
            </g>
            <g>
              <polyline class="cls-3" points="1420.84 360.12 1519.15 360.12 1541.78 375.59 1600 375.59"/>
              <path class="cls-4" d="M1421.03,363.83c-2.04,0-3.7-1.66-3.7-3.7s1.66-3.7,3.7-3.7,3.7,1.66,3.7,3.7-1.66,3.7-3.7,3.7Z"/>
            </g>
            <g>
              <polyline class="cls-3" points="1600 358.76 1541.78 358.76 1519.15 343.3 1417.32 343.3 1402.46 328.44 1351.38 328.44 1337.29 342.52 1286.45 342.52"/>
              <path class="cls-4" d="M1286.63,338.82c-2.04,0-3.7,1.66-3.7,3.7s1.66,3.7,3.7,3.7,3.7-1.66,3.7-3.7-1.66-3.7-3.7-3.7Z"/>
            </g>
            <g>
              <line class="cls-3" x1="1600" y1="309.46" x2="1462.12" y2="309.46"/>
              <path class="cls-4" d="M1462.28,306.24c-1.78,0-3.22,1.44-3.22,3.22s1.44,3.22,3.22,3.22,3.22-1.44,3.22-3.22-1.44-3.22-3.22-3.22Z"/>
            </g>
            <g>
              <polyline class="cls-3" points="1382.62 428.12 1480.92 428.12 1503.55 412.66 1600 412.66"/>
              <path class="cls-4" d="M1382.8,431.83c-2.04,0-3.7-1.66-3.7-3.7s1.66-3.7,3.7-3.7,3.7,1.66,3.7,3.7-1.66,3.7-3.7,3.7Z"/>
            </g>
            <g>
              <polyline class="cls-3" points="1359.78 443.59 1480.92 443.59 1503.55 428.12 1600 428.12"/>
              <path class="cls-4" d="M1359.96,447.29c-2.04,0-3.7-1.66-3.7-3.7s1.66-3.7,3.7-3.7,3.7,1.66,3.7,3.7-1.66,3.7-3.7,3.7Z"/>
            </g>
            <g>
              <path class="cls-3" d="M1600,227.1h-163.21l-23.67,34.9"/>
              <path class="cls-4" d="M1410.55,260.06c-1,1.47-.61,3.47.86,4.47,1.47,1,3.47.61,4.47-.86,1-1.47.61-3.47-.86-4.47-1.47-1-3.47-.61-4.47.86Z"/>
            </g>
            <g>
              <polyline class="cls-3" points="1600 214.44 1424.38 214.44 1392.66 263.92 1338.6 263.92"/>
              <path class="cls-4" d="M1338.76,260.7c-1.78,0-3.22,1.44-3.22,3.22s1.44,3.22,3.22,3.22,3.22-1.44,3.22-3.22-1.44-3.22-3.22-3.22Z"/>
            </g>
            <g>
              <polyline class="cls-3" points="1600 201.24 1393.88 201.24 1376.86 227.1 1317.49 227.1"/>
              <circle class="cls-4" cx="1317.65" cy="227.1" r="3.22" transform="translate(77.4 726.65) rotate(-31.72)"/>
            </g>
            <g>
              <polyline class="cls-3" points="1600 76.95 1519.53 76.95 1488.02 108.47 1437.55 108.47 1379.92 108.47"/>
              <path class="cls-4" d="M1380.08,105.25c-1.78,0-3.22,1.44-3.22,3.22s1.44,3.22,3.22,3.22,3.22-1.44,3.22-3.22-1.44-3.22-3.22-3.22Z"/>
            </g>
            <g>
              <polyline class="cls-3" points="1600 94.72 1519.53 94.72 1488.02 126.23 1437.55 126.23 1399.46 126.23 1378.45 147.24 1291.08 147.24"/>
              <path class="cls-4" d="M1291.24,144.02c-1.78,0-3.22,1.44-3.22,3.22s1.44,3.22,3.22,3.22,3.22-1.44,3.22-3.22-1.44-3.22-3.22-3.22Z"/>
            </g>
            <g>
              <polyline class="cls-3" points="1600 110.48 1524.68 110.48 1493.96 141.2 1446.1 141.2 1413.04 141.2 1385.76 168.48 1312.58 167.96"/>
              <path class="cls-4" d="M1312.76,164.74c-1.78-.01-3.23,1.42-3.24,3.2-.01,1.78,1.42,3.23,3.2,3.24,1.78.01,3.23-1.42,3.24-3.2.01-1.78-1.42-3.23-3.2-3.24Z"/>
            </g>
            <g>
              <line class="cls-3" x1="1600" y1="125.84" x2="1534.14" y2="125.84"/>
              <path class="cls-4" d="M1534.3,122.62c-1.78,0-3.22,1.44-3.22,3.22s1.44,3.22,3.22,3.22,3.22-1.44,3.22-3.22-1.44-3.22-3.22-3.22Z"/>
            </g>
            <g>
              <line class="cls-3" x1="1600" y1="143.06" x2="1517.01" y2="143.06"/>
              <path class="cls-4" d="M1517.17,139.84c-1.78,0-3.22,1.44-3.22,3.22s1.44,3.22,3.22,3.22,3.22-1.44,3.22-3.22-1.44-3.22-3.22-3.22Z"/>
            </g>
            <g>
              <line class="cls-3" x1="1600" y1="241.55" x2="1517.01" y2="241.55"/>
              <path class="cls-4" d="M1517.17,238.33c-1.78,0-3.22,1.44-3.22,3.22s1.44,3.22,3.22,3.22,3.22-1.44,3.22-3.22-1.44-3.22-3.22-3.22Z"/>
            </g>
            <g>
              <line class="cls-3" x1="1490.31" y1="187.83" x2="1354.44" y2="187.83"/>
              <circle class="cls-4" cx="1354.6" cy="187.83" r="3.22" transform="translate(31.23 532.68) rotate(-22.5)"/>
            </g>
            <g>
              <polyline class="cls-3" points="1349.35 244.73 1383.9 244.73 1404.74 211.27"/>
              <path class="cls-4" d="M1349.51,247.95c-1.78,0-3.22-1.44-3.22-3.22s1.44-3.22,3.22-3.22,3.22,1.44,3.22,3.22-1.44,3.22-3.22,3.22Z"/>
            </g>
            <g>
              <polyline class="cls-3" points="1600 189.34 1514.17 189.34 1495.88 171.05 1416.1 171.05"/>
              <path class="cls-4" d="M1416.26,167.83c-1.78,0-3.22,1.44-3.22,3.22s1.44,3.22,3.22,3.22,3.22-1.44,3.22-3.22-1.44-3.22-3.22-3.22Z"/>
            </g>
            <g>
              <polyline class="cls-3" points="1600 174.87 1528.39 174.87 1509.02 155.5 1473.25 156.3"/>
              <path class="cls-4" d="M1473.34,153.08c-1.78.04-3.19,1.51-3.15,3.29.04,1.78,1.51,3.19,3.29,3.15,1.78-.04,3.19-1.51,3.15-3.29-.04-1.78-1.51-3.19-3.29-3.15Z"/>
            </g>
            <g>
              <line class="cls-3" x1="1600" y1="158.41" x2="1547.18" y2="158.41"/>
              <path class="cls-4" d="M1547.34,155.19c-1.78,0-3.22,1.44-3.22,3.22s1.44,3.22,3.22,3.22,3.22-1.44,3.22-3.22-1.44-3.22-3.22-3.22Z"/>
            </g>
            <g>
              <line class="cls-3" x1="1600" y1="339.86" x2="1547.18" y2="339.86"/>
              <path class="cls-4" d="M1547.34,336.64c-1.78,0-3.22,1.44-3.22,3.22s1.44,3.22,3.22,3.22,3.22-1.44,3.22-3.22-1.44-3.22-3.22-3.22Z"/>
            </g>
            <g>
              <line class="cls-3" x1="1600" y1="443.59" x2="1547.18" y2="443.59"/>
              <path class="cls-4" d="M1547.34,440.37c-1.78,0-3.22,1.44-3.22,3.22s1.44,3.22,3.22,3.22,3.22-1.44,3.22-3.22-1.44-3.22-3.22-3.22Z"/>
            </g>
            <g>
              <line class="cls-3" x1="1465.15" y1="393.49" x2="1432.34" y2="393.49"/>
              <path class="cls-4" d="M1432.5,390.27c-1.78,0-3.22,1.44-3.22,3.22s1.44,3.22,3.22,3.22,3.22-1.44,3.22-3.22-1.44-3.22-3.22-3.22Z"/>
            </g>
            <g>
              <line class="cls-3" x1="1600" y1="324.95" x2="1474.45" y2="324.95"/>
              <path class="cls-4" d="M1474.61,321.73c-1.78,0-3.22,1.44-3.22,3.22s1.44,3.22,3.22,3.22,3.22-1.44,3.22-3.22-1.44-3.22-3.22-3.22Z"/>
            </g>
            <g>
              <polyline class="cls-3" points="1600 399.91 1483.04 399.91 1473.79 409.16 1333.51 409.16"/>
              <circle class="cls-4" cx="1333.67" cy="409.16" r="3.22" transform="translate(-58.33 317.36) rotate(-13.28)"/>
            </g>
            <g>
              <polyline class="cls-3" points="1600 389.35 1513.95 389.35 1496.52 377.87 1395.45 377.87"/>
              <path class="cls-4" d="M1395.61,374.65c-1.78,0-3.22,1.44-3.22,3.22s1.44,3.22,3.22,3.22,3.22-1.44,3.22-3.22-1.44-3.22-3.22-3.22Z"/>
            </g>
            <g>
              <polyline class="cls-3" points="1600 60.8 1555.54 60.8 1555.54 26.86 1367.45 26.86"/>
              <path class="cls-4" d="M1367.61,23.64c-1.78,0-3.22,1.44-3.22,3.22s1.44,3.22,3.22,3.22,3.22-1.44,3.22-3.22-1.44-3.22-3.22-3.22Z"/>
            </g>
            <g>
              <polyline class="cls-3" points="1600 39.87 1570.87 39.87 1570.87 13.85 1498.76 13.85"/>
              <path class="cls-4" d="M1498.92,10.63c-1.78,0-3.22,1.44-3.22,3.22s1.44,3.22,3.22,3.22,3.22-1.44,3.22-3.22-1.44-3.22-3.22-3.22Z"/>
            </g>
            <g>
              <polyline class="cls-3" points="1338.67 39.87 1455.22 39.87 1477.53 39.87 1455.91 61.49 1370.29 61.49"/>
              <path class="cls-4" d="M1338.84,43.09c-1.78,0-3.22-1.44-3.22-3.22s1.44-3.22,3.22-3.22,3.22,1.44,3.22,3.22-1.44,3.22-3.22,3.22Z"/>
              <path class="cls-4" d="M1370.46,58.27c-1.78,0-3.22,1.44-3.22,3.22s1.44,3.22,3.22,3.22,3.22-1.44,3.22-3.22-1.44-3.22-3.22-3.22Z"/>
            </g>
            <g>
              <polyline class="cls-3" points="1347.08 93.8 1478.62 93.8 1513.95 58.47 1537.85 57.37 1537.85 39.87 1507.51 39.87 1470.31 77.07 1388.05 77.07"/>
              <path class="cls-4" d="M1347.25,97.02c-1.78,0-3.22-1.44-3.22-3.22s1.44-3.22,3.22-3.22,3.22,1.44,3.22,3.22-1.44,3.22-3.22,3.22Z"/>
              <path class="cls-4" d="M1388.21,73.85c-1.78,0-3.22,1.44-3.22,3.22s1.44,3.22,3.22,3.22,3.22-1.44,3.22-3.22-1.44-3.22-3.22-3.22Z"/>
            </g>
          </g>
          <g class="cls-5">
            <g>
              <polyline class="cls-3" points="1600 703.18 1505.69 703.18 1479.55 686.05 1441.83 686.05 1422.22 716.97 1314.43 716.97 1291.8 701.51 1227.73 701.51"/>
              <path class="cls-4" d="M1227.89,698.29c-1.78,0-3.22,1.44-3.22,3.22s1.44,3.22,3.22,3.22,3.22-1.44,3.22-3.22-1.44-3.22-3.22-3.22Z"/>
            </g>
            <g>
              <polyline class="cls-3" points="1600 722.38 1505.25 722.38 1478.67 704.94 1444.92 705.25 1424.55 736.18 1314.43 736.18 1291.8 720.72 1193.04 720.72"/>
              <path class="cls-4" d="M1193.2,717.5c-1.78,0-3.22,1.44-3.22,3.22s1.44,3.22,3.22,3.22,3.22-1.44,3.22-3.22-1.44-3.22-3.22-3.22Z"/>
            </g>
            <g>
              <polyline class="cls-3" points="1600 741.87 1505.25 741.87 1478.67 724.43 1444.92 724.75 1424.55 755.67 1317.49 755.67"/>
              <path class="cls-4" d="M1317.65,752.45c-1.78,0-3.22,1.44-3.22,3.22s1.44,3.22,3.22,3.22,3.22-1.44,3.22-3.22-1.44-3.22-3.22-3.22Z"/>
            </g>
            <g>
              <polyline class="cls-3" points="1420.84 802.69 1519.15 802.69 1541.78 818.15 1600 818.15"/>
              <path class="cls-4" d="M1421.03,806.39c-2.04,0-3.7-1.66-3.7-3.7s1.66-3.7,3.7-3.7,3.7,1.66,3.7,3.7-1.66,3.7-3.7,3.7Z"/>
            </g>
            <g>
              <polyline class="cls-3" points="1600 801.33 1541.78 801.33 1519.15 785.87 1417.32 785.87 1402.46 771 1351.38 771 1337.29 785.09 1286.45 785.09"/>
              <path class="cls-4" d="M1286.63,781.39c-2.04,0-3.7,1.66-3.7,3.7s1.66,3.7,3.7,3.7,3.7-1.66,3.7-3.7-1.66-3.7-3.7-3.7Z"/>
            </g>
            <g>
              <line class="cls-3" x1="1600" y1="752.03" x2="1462.12" y2="752.03"/>
              <path class="cls-4" d="M1462.28,748.81c-1.78,0-3.22,1.44-3.22,3.22s1.44,3.22,3.22,3.22,3.22-1.44,3.22-3.22-1.44-3.22-3.22-3.22Z"/>
            </g>
            <g>
              <polyline class="cls-3" points="1382.62 870.69 1480.92 870.69 1503.55 855.23 1600 855.23"/>
              <path class="cls-4" d="M1382.8,874.39c-2.04,0-3.7-1.66-3.7-3.7s1.66-3.7,3.7-3.7,3.7,1.66,3.7,3.7-1.66,3.7-3.7,3.7Z"/>
            </g>
            <g>
              <polyline class="cls-3" points="1359.78 886.15 1480.92 886.15 1503.55 870.69 1600 870.69"/>
              <path class="cls-4" d="M1359.96,889.86c-2.04,0-3.7-1.66-3.7-3.7s1.66-3.7,3.7-3.7,3.7,1.66,3.7,3.7-1.66,3.7-3.7,3.7Z"/>
            </g>
            <g>
              <path class="cls-3" d="M1600,669.67h-163.21l-23.67,34.9"/>
              <path class="cls-4" d="M1410.55,702.63c-1,1.47-.61,3.47.86,4.47,1.47,1,3.47.61,4.47-.86,1-1.47.61-3.47-.86-4.47s-3.47-.61-4.47.86Z"/>
            </g>
            <g>
              <polyline class="cls-3" points="1600 657.01 1424.38 657.01 1392.66 706.49 1338.6 706.49"/>
              <path class="cls-4" d="M1338.76,703.27c-1.78,0-3.22,1.44-3.22,3.22s1.44,3.22,3.22,3.22,3.22-1.44,3.22-3.22-1.44-3.22-3.22-3.22Z"/>
            </g>
            <g>
              <polyline class="cls-3" points="1600 643.8 1393.88 643.8 1376.86 669.67 1317.49 669.67"/>
              <circle class="cls-4" cx="1317.65" cy="669.67" r="3.22" transform="translate(-90.25 219.71) rotate(-9.22)"/>
            </g>
            <g>
              <polyline class="cls-3" points="1600 519.52 1519.53 519.52 1488.02 551.03 1437.55 551.03 1379.92 551.03"/>
              <path class="cls-4" d="M1380.08,547.81c-1.78,0-3.22,1.44-3.22,3.22s1.44,3.22,3.22,3.22,3.22-1.44,3.22-3.22-1.44-3.22-3.22-3.22Z"/>
            </g>
            <g>
              <polyline class="cls-3" points="1600 537.29 1519.53 537.29 1488.02 568.8 1437.55 568.8 1399.46 568.8 1378.45 589.81 1291.08 589.81"/>
              <path class="cls-4" d="M1291.24,586.59c-1.78,0-3.22,1.44-3.22,3.22s1.44,3.22,3.22,3.22,3.22-1.44,3.22-3.22-1.44-3.22-3.22-3.22Z"/>
            </g>
            <g>
              <polyline class="cls-3" points="1600 553.04 1524.68 553.04 1493.96 583.76 1446.1 583.76 1413.04 583.76 1385.76 611.05 1312.58 610.53"/>
              <path class="cls-4" d="M1312.76,607.31c-1.78-.01-3.23,1.42-3.24,3.2-.01,1.78,1.42,3.23,3.2,3.24,1.78.01,3.23-1.42,3.24-3.2.01-1.78-1.42-3.23-3.2-3.24Z"/>
            </g>
            <g>
              <line class="cls-3" x1="1600" y1="568.4" x2="1534.14" y2="568.4"/>
              <path class="cls-4" d="M1534.3,565.18c-1.78,0-3.22,1.44-3.22,3.22s1.44,3.22,3.22,3.22,3.22-1.44,3.22-3.22-1.44-3.22-3.22-3.22Z"/>
            </g>
            <g>
              <line class="cls-3" x1="1600" y1="585.62" x2="1517.01" y2="585.62"/>
              <path class="cls-4" d="M1517.17,582.4c-1.78,0-3.22,1.44-3.22,3.22s1.44,3.22,3.22,3.22,3.22-1.44,3.22-3.22-1.44-3.22-3.22-3.22Z"/>
            </g>
            <g>
              <line class="cls-3" x1="1600" y1="684.12" x2="1517.01" y2="684.12"/>
              <path class="cls-4" d="M1517.17,680.9c-1.78,0-3.22,1.44-3.22,3.22s1.44,3.22,3.22,3.22,3.22-1.44,3.22-3.22-1.44-3.22-3.22-3.22Z"/>
            </g>
            <g>
              <line class="cls-3" x1="1490.31" y1="630.4" x2="1354.44" y2="630.4"/>
              <circle class="cls-4" cx="1354.6" cy="630.4" r="3.22" transform="translate(-83.49 225.12) rotate(-9.22)"/>
            </g>
            <g>
              <polyline class="cls-3" points="1349.35 687.3 1383.9 687.3 1404.74 653.84"/>
              <path class="cls-4" d="M1349.51,690.52c-1.78,0-3.22-1.44-3.22-3.22s1.44-3.22,3.22-3.22,3.22,1.44,3.22,3.22-1.44,3.22-3.22,3.22Z"/>
            </g>
            <g>
              <polyline class="cls-3" points="1600 631.9 1514.17 631.9 1495.88 613.62 1416.1 613.62"/>
              <path class="cls-4" d="M1416.26,610.4c-1.78,0-3.22,1.44-3.22,3.22s1.44,3.22,3.22,3.22,3.22-1.44,3.22-3.22-1.44-3.22-3.22-3.22Z"/>
            </g>
            <g>
              <polyline class="cls-3" points="1600 617.44 1528.39 617.44 1509.02 598.07 1473.25 598.87"/>
              <path class="cls-4" d="M1473.34,595.64c-1.78.04-3.19,1.51-3.15,3.29.04,1.78,1.51,3.19,3.29,3.15,1.78-.04,3.19-1.51,3.15-3.29-.04-1.78-1.51-3.19-3.29-3.15Z"/>
            </g>
            <g>
              <line class="cls-3" x1="1600" y1="600.98" x2="1547.18" y2="600.98"/>
              <path class="cls-4" d="M1547.34,597.76c-1.78,0-3.22,1.44-3.22,3.22s1.44,3.22,3.22,3.22,3.22-1.44,3.22-3.22-1.44-3.22-3.22-3.22Z"/>
            </g>
            <g>
              <line class="cls-3" x1="1600" y1="782.43" x2="1547.18" y2="782.43"/>
              <path class="cls-4" d="M1547.34,779.21c-1.78,0-3.22,1.44-3.22,3.22s1.44,3.22,3.22,3.22,3.22-1.44,3.22-3.22-1.44-3.22-3.22-3.22Z"/>
            </g>
            <g>
              <line class="cls-3" x1="1600" y1="886.15" x2="1547.18" y2="886.15"/>
              <path class="cls-4" d="M1547.34,882.93c-1.78,0-3.22,1.44-3.22,3.22s1.44,3.22,3.22,3.22,3.22-1.44,3.22-3.22-1.44-3.22-3.22-3.22Z"/>
            </g>
            <g>
              <line class="cls-3" x1="1465.15" y1="836.06" x2="1432.34" y2="836.06"/>
              <path class="cls-4" d="M1432.5,832.84c-1.78,0-3.22,1.44-3.22,3.22s1.44,3.22,3.22,3.22,3.22-1.44,3.22-3.22-1.44-3.22-3.22-3.22Z"/>
            </g>
            <g>
              <line class="cls-3" x1="1600" y1="767.52" x2="1474.45" y2="767.52"/>
              <path class="cls-4" d="M1474.61,764.3c-1.78,0-3.22,1.44-3.22,3.22s1.44,3.22,3.22,3.22,3.22-1.44,3.22-3.22-1.44-3.22-3.22-3.22Z"/>
            </g>
            <g>
              <polyline class="cls-3" points="1600 842.48 1483.04 842.48 1473.79 851.73 1333.51 851.73"/>
              <path class="cls-4" d="M1333.67,848.51c-1.78,0-3.22,1.44-3.22,3.22s1.44,3.22,3.22,3.22,3.22-1.44,3.22-3.22-1.44-3.22-3.22-3.22Z"/>
            </g>
            <g>
              <polyline class="cls-3" points="1600 831.92 1513.95 831.92 1496.52 820.44 1395.45 820.44"/>
              <path class="cls-4" d="M1395.61,817.22c-1.78,0-3.22,1.44-3.22,3.22s1.44,3.22,3.22,3.22,3.22-1.44,3.22-3.22-1.44-3.22-3.22-3.22Z"/>
            </g>
            <g>
              <polyline class="cls-3" points="1600 503.37 1555.54 503.37 1555.54 469.42 1367.45 469.42"/>
              <path class="cls-4" d="M1367.61,466.2c-1.78,0-3.22,1.44-3.22,3.22s1.44,3.22,3.22,3.22,3.22-1.44,3.22-3.22-1.44-3.22-3.22-3.22Z"/>
            </g>
            <g>
              <polyline class="cls-3" points="1600 482.44 1570.87 482.44 1570.87 456.41 1498.76 456.41"/>
              <path class="cls-4" d="M1498.92,453.19c-1.78,0-3.22,1.44-3.22,3.22s1.44,3.22,3.22,3.22,3.22-1.44,3.22-3.22-1.44-3.22-3.22-3.22Z"/>
            </g>
            <g>
              <polyline class="cls-3" points="1338.67 482.44 1455.22 482.44 1477.53 482.44 1455.91 504.05 1370.29 504.05"/>
              <path class="cls-4" d="M1338.84,485.66c-1.78,0-3.22-1.44-3.22-3.22s1.44-3.22,3.22-3.22,3.22,1.44,3.22,3.22-1.44,3.22-3.22,3.22Z"/>
              <path class="cls-4" d="M1370.46,500.83c-1.78,0-3.22,1.44-3.22,3.22s1.44,3.22,3.22,3.22,3.22-1.44,3.22-3.22-1.44-3.22-3.22-3.22Z"/>
            </g>
            <g>
              <polyline class="cls-3" points="1347.08 536.37 1478.62 536.37 1513.95 501.04 1537.85 499.94 1537.85 482.44 1507.51 482.44 1470.31 519.64 1388.05 519.64"/>
              <path class="cls-4" d="M1347.25,539.59c-1.78,0-3.22-1.44-3.22-3.22s1.44-3.22,3.22-3.22,3.22,1.44,3.22,3.22-1.44,3.22-3.22,3.22Z"/>
              <path class="cls-4" d="M1388.21,516.42c-1.78,0-3.22,1.44-3.22,3.22s1.44,3.22,3.22,3.22,3.22-1.44,3.22-3.22-1.44-3.22-3.22-3.22Z"/>
            </g>
          </g>
        </g>
      </g>
    </g>
  </g>
  <g id="Layer_1" data-name="Layer 1">
    <g>
      <g>
        <path class="cls-7" d="M41.81,842.29v18.89c0,1.2.64,2.32,1.68,2.92l16.35,9.44c1.04.6,2.33.6,3.37,0l16.35-9.44c1.04-.6,1.68-1.71,1.68-2.92v-18.89c0-1.2-.64-2.32-1.68-2.92l-16.35-9.44c-1.04-.6-2.33-.6-3.37,0l-16.35,9.44c-1.03.6-1.68,1.71-1.68,2.92Z"/>
        <g>
          <path class="cls-2" d="M65.11,855.39l-2.33,6.39c-.07.18-.07.37,0,.55l4.01,11,4.64-2.68-5.57-15.27c-.13-.35-.62-.35-.75,0Z"/>
          <path class="cls-2" d="M69.78,844.63c-.13-.35-.62-.35-.75,0l-2.33,6.39c-.07.18-.07.37,0,.55l6.57,18.02,4.64-2.68-8.13-22.28Z"/>
        </g>
        <path class="cls-6" d="M61.54,830.63c.12,0,.23.03.33.09l17.69,10.22c.21.12.33.33.33.57v20.43c0,.24-.13.45-.33.57l-17.69,10.23c-.1.06-.22.09-.33.09s-.23-.03-.33-.09l-17.68-10.22c-.21-.12-.33-.33-.33-.57v-20.44c0-.24.13-.45.33-.57l17.69-10.22c.1-.06.22-.09.33-.09M61.54,827.65c-.63,0-1.26.17-1.82.49l-17.69,10.22c-1.12.65-1.82,1.85-1.82,3.15v20.43c0,1.3.7,2.51,1.82,3.16l17.69,10.22c.56.33,1.19.49,1.82.49s1.26-.17,1.82-.49l17.69-10.22c1.13-.65,1.82-1.85,1.82-3.16v-20.43c0-1.3-.7-2.51-1.82-3.16l-17.68-10.21c-.57-.33-1.2-.49-1.83-.49h0Z"/>
        <polygon class="cls-7" points="49.84 869.62 51.47 865.16 54.74 867.88 51.69 870.68 49.84 869.62"/>
        <g>
          <path class="cls-4" d="M60.05,840.05h-4.48c-.33,0-.64.21-.75.52l-9.62,26.36,4.64,2.68,10.59-29.03c.09-.26-.1-.53-.38-.53Z"/>
          <path class="cls-4" d="M67.9,840.05h-4.48c-.33,0-.64.21-.75.52l-10.98,30.11,4.64,2.68,11.95-32.77c.1-.27-.1-.54-.37-.54Z"/>
        </g>
      </g>
      <g>
        <path class="cls-4" d="M101.98,845.54c.44,0,.83.09,1.13.28.31.19.61.54.91,1.07l5.85,10.62c.06.12.07.22.04.3s-.12.12-.26.12h-2.25c-.2,0-.33-.08-.4-.23l-1.25-2.28h-8.3l-1.22,2.28c-.08.16-.22.23-.4.23h-2.3c-.16,0-.25-.04-.28-.12-.03-.08-.02-.18.04-.3l5.8-10.62c.3-.53.58-.89.87-1.07.29-.19.61-.28.99-.28h1.03ZM98.54,853.35h6.09l-2.81-5.18c-.05-.08-.11-.13-.2-.13h-.11c-.08,0-.15.04-.2.13l-2.78,5.18Z"/>
        <path class="cls-4" d="M122.73,845.54c1.36,0,2.32.31,2.92.92s.89,1.52.89,2.72v1c0,1.01-.21,1.81-.62,2.4s-1.08.97-2.02,1.13l3.02,3.74c.06.06.08.15.05.27-.02.12-.12.18-.29.18h-2.28c-.16,0-.26-.02-.32-.05-.06-.04-.12-.1-.18-.18l-2.8-3.67h-5.71v3.52c0,.26-.13.38-.38.38h-1.91c-.28,0-.4-.13-.4-.38v-11.45c0-.35.18-.53.53-.53h9.5ZM115.41,851.85h6.77c.6,0,1.02-.13,1.27-.38.25-.26.37-.65.37-1.18v-.74c0-.53-.13-.93-.37-1.18s-.67-.38-1.27-.38h-6.54c-.16,0-.23.07-.23.22v3.65Z"/>
        <path class="cls-4" d="M141.32,845.54c1.21,0,2.08.25,2.59.73.51.48.77,1.21.77,2.19v.85c0,.99-.37,1.73-1.13,2.25.81.47,1.22,1.23,1.22,2.28v1.02c0,.47-.05.9-.16,1.27s-.28.7-.52.97c-.25.27-.56.47-.97.61-.4.14-.9.22-1.49.22h-10.5c-.35,0-.53-.18-.53-.53v-11.31c0-.35.18-.53.53-.53h10.19ZM133.31,850.68h7.25c.59,0,.99-.09,1.2-.27s.32-.43.32-.78v-.6c0-.36-.1-.63-.31-.81-.21-.17-.54-.26-1-.26h-7.23c-.16,0-.23.08-.23.23v2.48h0ZM133.31,852.61v2.63c0,.16.08.23.23.23h7.25c.47,0,.81-.09,1-.26s.31-.44.31-.82v-.67c0-.36-.11-.64-.33-.83-.22-.19-.62-.29-1.21-.29h-7.25Z"/>
        <path class="cls-4" d="M151.36,845.54c.26,0,.38.13.38.38v11.6c0,.26-.13.38-.38.38h-1.91c-.28,0-.4-.13-.4-.38v-11.59c0-.26.14-.38.4-.38h1.91Z"/>
        <path class="cls-4" d="M169.88,845.54c.28,0,.4.13.4.38v1.73c0,.28-.14.4-.4.4h-5.55v9.46c0,.26-.13.38-.38.38h-1.93c-.26,0-.38-.13-.38-.38v-9.46h-5.55c-.28,0-.4-.14-.4-.4v-1.73c0-.26.14-.38.4-.38h13.79Z"/>
        <path class="cls-4" d="M183.86,845.54c1.36,0,2.32.31,2.92.92s.89,1.52.89,2.72v1c0,1.01-.21,1.81-.62,2.4-.41.59-1.08.97-2.02,1.13l3.02,3.74c.06.06.08.15.05.27-.02.12-.12.18-.29.18h-2.28c-.16,0-.26-.02-.32-.05-.06-.04-.12-.1-.18-.18l-2.8-3.67h-5.71v3.52c0,.26-.13.38-.38.38h-1.91c-.28,0-.4-.13-.4-.38v-11.45c0-.35.18-.53.53-.53h9.5ZM176.55,851.85h6.77c.6,0,1.02-.13,1.27-.38.25-.26.37-.65.37-1.18v-.74c0-.53-.13-.93-.37-1.18s-.67-.38-1.27-.38h-6.54c-.16,0-.23.07-.23.22v3.65h0Z"/>
        <path class="cls-4" d="M193.8,845.54c.26,0,.38.13.38.38v7.05c0,.47.04.87.12,1.17.08.32.21.56.38.74.18.19.41.32.72.38.31.08.68.12,1.14.12h4.9c.46,0,.84-.04,1.14-.12.31-.08.54-.21.72-.38.18-.19.31-.43.37-.74.07-.32.11-.7.11-1.17v-7.05c0-.26.13-.38.38-.38h1.93c.26,0,.38.13.38.38v7.32c0,.85-.09,1.57-.27,2.17-.18.59-.46,1.07-.86,1.45-.39.37-.91.64-1.54.81s-1.39.25-2.29.25h-5.09c-.9,0-1.66-.08-2.28-.25-.62-.17-1.13-.43-1.53-.81-.39-.37-.68-.86-.87-1.45s-.28-1.32-.28-2.17v-7.32c0-.26.14-.38.4-.38h1.89Z"/>
        <path class="cls-4" d="M214.08,845.54c.26,0,.48.02.67.05.19.04.35.1.49.21.14.1.27.24.38.4.11.17.23.39.34.68l3.67,8.48c.05.11.13.16.25.16h.22c.12,0,.2-.05.25-.16l3.67-8.48c.12-.29.24-.51.34-.68s.24-.31.38-.4c.14-.1.31-.17.48-.21.19-.04.4-.05.66-.05h1.89c.61,0,1.02.14,1.24.41s.32.75.32,1.42v10.15c0,.26-.14.38-.4.38h-1.8c-.26,0-.38-.13-.38-.38v-9.23c0-.12-.05-.18-.14-.18h-.16c-.12,0-.2.05-.23.14l-3.57,7.92c-.14.32-.29.59-.43.81s-.31.39-.47.54c-.17.14-.36.25-.58.31-.22.06-.47.09-.77.09h-.85c-.3,0-.55-.03-.77-.09-.22-.06-.41-.16-.58-.31-.17-.14-.33-.33-.47-.54-.15-.22-.3-.48-.43-.81l-3.57-7.92c-.04-.1-.11-.14-.23-.14h-.16c-.1,0-.14.06-.14.18v9.23c0,.26-.13.38-.38.38h-1.8c-.28,0-.4-.13-.4-.38v-10.15c0-.67.11-1.14.32-1.42.22-.28.63-.41,1.25-.41h1.88Z"/>
      </g>
    </g>
  </g>
</svg>